<svg width="22" height="22" viewBox="0 0 22 22" fill="none" xmlns="http://www.w3.org/2000/svg">
<rect width="22" height="22" rx="11" fill="#919EAB"/>
<path d="M6.055 16V8.076H4.137V7.145C4.73433 7.145 5.20333 7.09833 5.544 7.005C5.88933 6.907 6.13667 6.76467 6.286 6.578C6.44 6.38667 6.52633 6.15333 6.545 5.878H7.588V16H6.055ZM13.6165 16.154C12.4732 16.154 11.5725 15.7177 10.9145 14.845C10.2565 13.9677 9.92753 12.6773 9.92753 10.974C9.92753 9.83067 10.0792 8.87167 10.3825 8.097C10.6859 7.31767 11.1129 6.72967 11.6635 6.333C12.2189 5.93633 12.8722 5.738 13.6235 5.738C14.7482 5.738 15.6419 6.18133 16.3045 7.068C16.9719 7.95 17.3055 9.24733 17.3055 10.96C17.3055 12.6633 16.9742 13.956 16.3115 14.838C15.6535 15.7153 14.7552 16.154 13.6165 16.154ZM13.6235 14.88C14.3142 14.88 14.8322 14.5767 15.1775 13.97C15.5229 13.3587 15.6955 12.3577 15.6955 10.967C15.6955 9.54833 15.5205 8.52867 15.1705 7.908C14.8205 7.28267 14.3025 6.97 13.6165 6.97C12.9352 6.97 12.4149 7.285 12.0555 7.915C11.6962 8.54033 11.5165 9.55767 11.5165 10.967C11.5165 12.353 11.6939 13.3517 12.0485 13.963C12.4079 14.5743 12.9329 14.88 13.6235 14.88Z" fill="white"/>
</svg>
