<svg width="22" height="22" viewBox="0 0 22 22" fill="none" xmlns="http://www.w3.org/2000/svg">
<rect width="22" height="22" rx="11" fill="#0C68E9"/>
<path d="M7.347 16V15.153V14.705C7.347 14.1917 7.44267 13.746 7.634 13.368C7.83 12.99 8.08667 12.661 8.404 12.381C8.72133 12.0963 9.069 11.8443 9.447 11.625C9.82967 11.4057 10.21 11.1957 10.588 10.995C10.966 10.7943 11.3137 10.5867 11.631 10.372C11.9483 10.1527 12.2027 9.90767 12.394 9.637C12.59 9.36167 12.688 9.03967 12.688 8.671C12.688 8.18567 12.5177 7.79133 12.177 7.488C11.8363 7.18467 11.3743 7.033 10.791 7.033C10.1703 7.033 9.66633 7.208 9.279 7.558C8.89167 7.908 8.66767 8.391 8.607 9.007H7.137C7.151 8.405 7.298 7.85667 7.578 7.362C7.858 6.86733 8.271 6.473 8.817 6.179C9.363 5.885 10.0397 5.738 10.847 5.738C11.547 5.738 12.1513 5.86167 12.66 6.109C13.1733 6.35167 13.57 6.69233 13.85 7.131C14.13 7.56967 14.27 8.08067 14.27 8.664C14.27 9.182 14.1743 9.62767 13.983 10.001C13.7917 10.3743 13.5397 10.6963 13.227 10.967C12.919 11.2377 12.5783 11.478 12.205 11.688C11.8317 11.8933 11.4583 12.0917 11.085 12.283C10.7117 12.4697 10.3687 12.668 10.056 12.878C9.74333 13.0833 9.49133 13.3167 9.3 13.578C9.10867 13.8393 9.013 14.1543 9.013 14.523V14.698H14.305V16H7.347Z" fill="white"/>
</svg>
