<svg width="22" height="22" viewBox="0 0 22 22" fill="none" xmlns="http://www.w3.org/2000/svg">
<rect width="22" height="22" rx="11" fill="#919EAB"/>
<path d="M10.812 16.154C10.084 16.1493 9.44933 16.021 8.908 15.769C8.36667 15.5123 7.94433 15.1507 7.641 14.684C7.33767 14.2173 7.17667 13.6667 7.158 13.032H8.635C8.733 13.6433 8.98033 14.1077 9.377 14.425C9.77833 14.7377 10.2707 14.894 10.854 14.894C11.33 14.894 11.7407 14.8217 12.086 14.677C12.436 14.5277 12.7067 14.3247 12.898 14.068C13.0893 13.8067 13.185 13.5033 13.185 13.158C13.185 12.7847 13.08 12.4673 12.87 12.206C12.6647 11.9447 12.38 11.7463 12.016 11.611C11.6567 11.471 11.253 11.3963 10.805 11.387L9.874 11.366V10.12L10.742 10.092C11.1667 10.0827 11.5423 10.0033 11.869 9.854C12.2003 9.7 12.4593 9.49933 12.646 9.252C12.8327 9.00467 12.926 8.73167 12.926 8.433C12.926 8.16233 12.842 7.915 12.674 7.691C12.5107 7.467 12.2727 7.28967 11.96 7.159C11.652 7.02367 11.281 6.956 10.847 6.956C10.497 6.956 10.1633 7.02133 9.846 7.152C9.53333 7.28267 9.27433 7.49033 9.069 7.775C8.86833 8.055 8.75867 8.42133 8.74 8.874H7.27C7.27 8.19733 7.431 7.628 7.753 7.166C8.07967 6.69933 8.51367 6.34467 9.055 6.102C9.601 5.85933 10.2053 5.738 10.868 5.738C11.582 5.738 12.2143 5.83833 12.765 6.039C13.3157 6.23967 13.7473 6.536 14.06 6.928C14.3773 7.32 14.536 7.803 14.536 8.377C14.536 8.87633 14.3797 9.32667 14.067 9.728C13.759 10.1247 13.2783 10.435 12.625 10.659C13.0497 10.7757 13.4253 10.9483 13.752 11.177C14.0787 11.401 14.333 11.681 14.515 12.017C14.7017 12.353 14.795 12.7427 14.795 13.186C14.795 13.6573 14.6947 14.0773 14.494 14.446C14.2933 14.8147 14.0133 15.1273 13.654 15.384C13.2947 15.6407 12.8723 15.8343 12.387 15.965C11.9017 16.0957 11.3767 16.1587 10.812 16.154Z" fill="white"/>
</svg>
