<svg width="22" height="22" viewBox="0 0 22 22" fill="none" xmlns="http://www.w3.org/2000/svg">
<rect width="22" height="22" rx="11" fill="#919EAB"/>
<path d="M10.683 16.154C10.0483 16.154 9.46033 16.0467 8.919 15.832C8.37767 15.6127 7.911 15.314 7.519 14.936C7.13167 14.5533 6.84467 14.1123 6.658 13.613L7.911 13.018C8.079 13.382 8.28667 13.7087 8.534 13.998C8.78133 14.2827 9.073 14.5067 9.409 14.67C9.745 14.8287 10.13 14.908 10.564 14.908C11.25 14.908 11.803 14.7143 12.223 14.327C12.643 13.935 12.853 13.4053 12.853 12.738C12.853 12.3227 12.755 11.9587 12.559 11.646C12.363 11.3333 12.0993 11.0907 11.768 10.918C11.4367 10.7407 11.0657 10.652 10.655 10.652C10.3983 10.652 10.158 10.6753 9.934 10.722C9.71 10.764 9.486 10.8503 9.262 10.981C9.04267 11.107 8.80933 11.296 8.562 11.548C8.52467 11.5667 8.49667 11.576 8.478 11.576C8.464 11.576 8.43367 11.5643 8.387 11.541L7.19 11.107L7.652 5.878H13.819L13.77 7.145H8.891L8.653 10.19C8.99833 9.91 9.36233 9.70933 9.745 9.588C10.1277 9.462 10.543 9.399 10.991 9.399C11.621 9.399 12.195 9.525 12.713 9.777C13.2357 10.029 13.6533 10.4 13.966 10.89C14.2787 11.3753 14.435 11.975 14.435 12.689C14.435 13.3937 14.281 14.005 13.973 14.523C13.665 15.041 13.2287 15.4423 12.664 15.727C12.104 16.0117 11.4437 16.154 10.683 16.154Z" fill="white"/>
</svg>
