<svg width="22" height="22" viewBox="0 0 22 22" fill="none" xmlns="http://www.w3.org/2000/svg">
<rect width="22" height="22" rx="11" fill="#919EAB"/>
<path d="M11.092 16.154C10.2893 16.154 9.59167 15.951 8.999 15.545C8.411 15.1343 7.956 14.5533 7.634 13.802C7.31667 13.046 7.158 12.1477 7.158 11.107C7.158 10.015 7.31433 9.06767 7.627 8.265C7.93967 7.45767 8.397 6.83467 8.999 6.396C9.601 5.95733 10.3337 5.738 11.197 5.738C11.7757 5.738 12.31 5.84533 12.8 6.06C13.2947 6.27467 13.7007 6.585 14.018 6.991C14.34 7.39233 14.5313 7.88 14.592 8.454H13.199C13.0683 7.98733 12.8327 7.62333 12.492 7.362C12.156 7.096 11.7337 6.963 11.225 6.963C10.6603 6.963 10.1867 7.124 9.804 7.446C9.426 7.76333 9.15067 8.22767 8.978 8.839C8.81 9.45033 8.75633 10.1877 8.817 11.051C8.94767 10.743 9.139 10.4747 9.391 10.246C9.64767 10.0127 9.94167 9.833 10.273 9.707C10.6043 9.581 10.959 9.518 11.337 9.518C12.009 9.518 12.597 9.64633 13.101 9.903C13.605 10.1597 13.997 10.526 14.277 11.002C14.5617 11.478 14.704 12.0427 14.704 12.696C14.704 13.368 14.5547 13.9653 14.256 14.488C13.962 15.006 13.5443 15.4143 13.003 15.713C12.4617 16.007 11.8247 16.154 11.092 16.154ZM11.064 14.95C11.456 14.95 11.8037 14.859 12.107 14.677C12.415 14.4903 12.6577 14.2337 12.835 13.907C13.0123 13.5757 13.101 13.1953 13.101 12.766C13.101 12.332 13.0193 11.961 12.856 11.653C12.6927 11.345 12.457 11.1093 12.149 10.946C11.8457 10.7827 11.4817 10.701 11.057 10.701C10.707 10.701 10.3733 10.7827 10.056 10.946C9.73867 11.1047 9.47967 11.3147 9.279 11.576C9.07833 11.8373 8.978 12.122 8.978 12.43C8.96867 12.9293 9.05033 13.368 9.223 13.746C9.40033 14.124 9.64533 14.4203 9.958 14.635C10.2753 14.845 10.644 14.95 11.064 14.95Z" fill="white"/>
</svg>
