<svg width="22" height="22" viewBox="0 0 22 22" fill="none" xmlns="http://www.w3.org/2000/svg">
<rect width="22" height="22" rx="11" fill="#919EAB"/>
<path d="M8.964 16C9.02933 15.552 9.153 14.9943 9.335 14.327C9.517 13.6597 9.762 12.9293 10.07 12.136C10.3827 11.338 10.7607 10.512 11.204 9.658C11.6473 8.804 12.163 7.96633 12.751 7.145H7.137V5.878H14.368V7.145C14.018 7.61633 13.6703 8.153 13.325 8.755C12.9797 9.357 12.6507 9.98933 12.338 10.652C12.03 11.31 11.75 11.968 11.498 12.626C11.2507 13.2793 11.0477 13.8977 10.889 14.481C10.7303 15.0597 10.6323 15.566 10.595 16H8.964Z" fill="white"/>
</svg>
