<svg width="22" height="22" viewBox="0 0 22 22" fill="none" xmlns="http://www.w3.org/2000/svg">
<rect width="22" height="22" rx="11" fill="#919EAB"/>
<path d="M10.571 16.154C9.787 16.154 9.101 16.035 8.513 15.797C7.925 15.5543 7.46767 15.216 7.141 14.782C6.819 14.3433 6.658 13.83 6.658 13.242C6.658 12.85 6.756 12.4767 6.952 12.122C7.148 11.7627 7.4 11.4593 7.708 11.212C8.016 10.9647 8.33567 10.8083 8.667 10.743C8.219 10.547 7.84567 10.2647 7.547 9.896C7.24833 9.52267 7.099 9.06533 7.099 8.524C7.099 7.92667 7.25067 7.42267 7.554 7.012C7.862 6.59667 8.27733 6.28167 8.8 6.067C9.32733 5.84767 9.91767 5.738 10.571 5.738C11.2337 5.738 11.8263 5.84767 12.349 6.067C12.8717 6.28167 13.2847 6.59667 13.588 7.012C13.8913 7.42267 14.043 7.92667 14.043 8.524C14.043 9.06533 13.896 9.52267 13.602 9.896C13.3127 10.2647 12.9393 10.547 12.482 10.743C12.818 10.8083 13.1377 10.9647 13.441 11.212C13.749 11.4593 14.001 11.7627 14.197 12.122C14.3977 12.4767 14.498 12.85 14.498 13.242C14.498 13.83 14.3347 14.3433 14.008 14.782C13.686 15.216 13.231 15.5543 12.643 15.797C12.055 16.035 11.3643 16.154 10.571 16.154ZM10.571 14.971C11.2803 14.971 11.8427 14.8123 12.258 14.495C12.678 14.173 12.888 13.7483 12.888 13.221C12.888 12.871 12.7923 12.5607 12.601 12.29C12.4143 12.0147 12.1483 11.8 11.803 11.646C11.4577 11.4873 11.047 11.408 10.571 11.408C10.1043 11.408 9.69833 11.4873 9.353 11.646C9.00767 11.8 8.73933 12.0147 8.548 12.29C8.36133 12.5607 8.268 12.871 8.268 13.221C8.268 13.7483 8.47567 14.173 8.891 14.495C9.311 14.8123 9.871 14.971 10.571 14.971ZM10.571 10.127C11.1497 10.127 11.6187 9.98233 11.978 9.693C12.342 9.40367 12.524 9.00233 12.524 8.489C12.524 7.971 12.342 7.56267 11.978 7.264C11.614 6.96533 11.145 6.816 10.571 6.816C10.0017 6.816 9.535 6.96767 9.171 7.271C8.807 7.56967 8.625 7.97567 8.625 8.489C8.625 9.00233 8.807 9.40367 9.171 9.693C9.535 9.98233 10.0017 10.127 10.571 10.127Z" fill="white"/>
</svg>
