<svg width="22" height="22" viewBox="0 0 22 22" fill="none" xmlns="http://www.w3.org/2000/svg">
<rect width="22" height="22" rx="11" fill="#919EAB"/>
<path d="M10.637 16.154C10.0583 16.154 9.51933 16.0443 9.02 15.825C8.52067 15.601 8.10533 15.2883 7.774 14.887C7.44733 14.481 7.25133 13.998 7.186 13.438H8.628C8.73533 13.8813 8.96167 14.2407 9.307 14.516C9.657 14.7913 10.084 14.929 10.588 14.929C11.1527 14.929 11.6403 14.7843 12.051 14.495C12.4617 14.2057 12.7673 13.7553 12.968 13.144C13.1733 12.5327 13.2503 11.744 13.199 10.778C13.0777 11.1047 12.8933 11.3917 12.646 11.639C12.3987 11.8817 12.1047 12.073 11.764 12.213C11.4233 12.353 11.0453 12.423 10.63 12.423C9.958 12.423 9.36533 12.2923 8.852 12.031C8.33867 11.7697 7.93733 11.3987 7.648 10.918C7.35867 10.4327 7.214 9.854 7.214 9.182C7.214 8.51 7.35867 7.915 7.648 7.397C7.942 6.879 8.355 6.473 8.887 6.179C9.42367 5.885 10.0583 5.738 10.791 5.738C11.5937 5.738 12.289 5.941 12.877 6.347C13.465 6.753 13.9177 7.33167 14.235 8.083C14.5523 8.83433 14.711 9.73033 14.711 10.771C14.711 11.9283 14.5523 12.9083 14.235 13.711C13.9177 14.509 13.4533 15.1157 12.842 15.531C12.2353 15.9463 11.5003 16.154 10.637 16.154ZM10.826 11.177C11.176 11.177 11.5097 11.0977 11.827 10.939C12.1443 10.7803 12.4033 10.5703 12.604 10.309C12.8093 10.043 12.912 9.75833 12.912 9.455C12.9167 8.951 12.8303 8.51 12.653 8.132C12.4803 7.754 12.2353 7.46 11.918 7.25C11.6053 7.03533 11.2367 6.928 10.812 6.928C10.4293 6.928 10.0887 7.02133 9.79 7.208C9.49133 7.39 9.25567 7.64667 9.083 7.978C8.915 8.30467 8.831 8.68267 8.831 9.112C8.831 9.75133 9.00367 10.2553 9.349 10.624C9.69433 10.9927 10.1867 11.177 10.826 11.177Z" fill="white"/>
</svg>
