<svg width="118" height="36" viewBox="0 0 118 36" fill="none" xmlns="http://www.w3.org/2000/svg">
<path d="M116.755 17.7538C116.755 27.0285 109.458 34.5473 100.456 34.5473H17.5903C8.58841 34.5473 1.29102 27.0285 1.29102 17.7538C1.29102 8.47927 8.58841 0.960938 17.5903 0.960938H100.456C109.458 0.960938 116.755 8.47927 116.755 17.7538Z" fill="url(#paint0_linear_4756_5211)"/>
<path d="M44.8438 23.7248L44.0845 21.9232H40.6227L39.8634 23.7248H38.0488L41.768 14.9609H43.0292L46.6454 23.7248H44.8438ZM41.1503 20.559H43.5955L42.3857 17.4704L41.1503 20.559Z" fill="#666666"/>
<path d="M48.988 23.0045V26.7108H47.418V18.1528H48.988V18.8735C49.4169 18.2731 50.0217 17.9727 50.8026 17.9727C51.6175 17.9727 52.2781 18.2515 52.7844 18.8091C53.2905 19.367 53.5437 20.0748 53.5437 20.9325C53.5437 21.7905 53.2841 22.5006 52.7651 23.0624C52.2459 23.6244 51.5789 23.9053 50.7639 23.9053C50.0175 23.9053 49.4255 23.6051 48.988 23.0045ZM51.4846 19.8129C51.1928 19.5127 50.8239 19.3625 50.3779 19.3625C49.9317 19.3625 49.5627 19.5127 49.2711 19.8129C48.9794 20.1133 48.8336 20.4865 48.8336 20.9325C48.8336 21.3788 48.9794 21.7542 49.2711 22.0586C49.5627 22.3632 49.9317 22.5154 50.3779 22.5154C50.8239 22.5154 51.1928 22.3632 51.4846 22.0586C51.7762 21.7542 51.9222 21.3788 51.9222 20.9325C51.9222 20.4865 51.7762 20.1133 51.4846 19.8129Z" fill="#666666"/>
<path d="M56.3239 23.0025V26.7088H54.7539V18.1509H56.3239V18.8715C56.7528 18.2711 57.3577 17.9707 58.1385 17.9707C58.9535 17.9707 59.614 18.2496 60.1203 18.8072C60.6265 19.365 60.8796 20.0728 60.8796 20.9306C60.8796 21.7886 60.62 22.4986 60.1011 23.0604C59.5819 23.6224 58.9149 23.9034 58.0999 23.9034C57.3535 23.9034 56.7615 23.6032 56.3239 23.0025ZM58.8205 19.811C58.5288 19.5108 58.1598 19.3605 57.7138 19.3605C57.2676 19.3605 56.8986 19.5108 56.607 19.811C56.3153 20.1114 56.1695 20.4846 56.1695 20.9306C56.1695 21.3768 56.3153 21.7522 56.607 22.0567C56.8986 22.3613 57.2676 22.5135 57.7138 22.5135C58.1598 22.5135 58.5288 22.3613 58.8205 22.0567C59.1121 21.7522 59.2581 21.3768 59.2581 20.9306C59.2581 20.4846 59.1121 20.1114 58.8205 19.811Z" fill="#666666"/>
<path d="M70.414 15.951L69.5389 17.0964C69.1699 16.6074 68.7024 16.3629 68.1362 16.3629C67.7244 16.3629 67.424 16.4638 67.2354 16.6653C67.0465 16.867 66.9522 17.1008 66.9522 17.3667C66.9522 17.5983 67.0423 17.7914 67.2225 17.9458C67.3596 18.0745 67.7029 18.2375 68.252 18.4348C69.1014 18.7266 69.6805 19.0139 69.9893 19.297C70.4784 19.7346 70.7229 20.3352 70.7229 21.0987C70.7229 21.9397 70.4462 22.6195 69.8928 23.1385C69.3395 23.6577 68.6208 23.9171 67.7372 23.9171C66.5018 23.9171 65.5151 23.3766 64.7773 22.2956L65.8712 21.2532C66.0599 21.6392 66.3216 21.9268 66.6562 22.1154C66.9909 22.3042 67.3297 22.3985 67.6729 22.3985C68.059 22.3985 68.3763 22.2891 68.6252 22.0704C68.874 21.8516 68.9984 21.5664 68.9984 21.2145C68.9984 20.9143 68.8868 20.6569 68.6638 20.4424C68.4579 20.2538 68.016 20.0435 67.3383 19.8118C66.7033 19.5974 66.2271 19.3485 65.9098 19.0654C65.455 18.6709 65.2278 18.1388 65.2278 17.4696C65.2278 16.7747 65.4636 16.1807 65.9356 15.6872C66.4073 15.194 67.0894 14.9473 67.9818 14.9473C68.9512 14.9473 69.7619 15.2819 70.414 15.951Z" fill="#666666"/>
<path d="M74.6106 19.4891H73.5296V23.7231H71.9595V19.4891H71.3418V18.1507H71.9595V16.2461H73.5296V18.1507H74.6106V19.4891Z" fill="#666666"/>
<path d="M78.3439 17.9727C79.2789 17.9727 80.0297 18.2345 80.596 18.7577C81.2222 19.3239 81.5354 20.0532 81.5354 20.9454C81.5354 21.8292 81.2222 22.5541 80.596 23.1203C80.0297 23.6437 79.2789 23.9053 78.3439 23.9053C77.4087 23.9053 76.658 23.6437 76.0918 23.1203C75.4654 22.5541 75.1523 21.8292 75.1523 20.9454C75.1523 20.0532 75.4654 19.3239 76.0918 18.7577C76.658 18.2345 77.4087 17.9727 78.3439 17.9727ZM77.2243 22.0522C77.5245 22.361 77.8977 22.5154 78.3439 22.5154C78.7899 22.5154 79.1631 22.361 79.4635 22.0522C79.7637 21.7433 79.9139 21.3745 79.9139 20.9454C79.9139 20.5079 79.7637 20.1346 79.4635 19.8258C79.1631 19.5169 78.7899 19.3625 78.3439 19.3625C77.8977 19.3625 77.5245 19.5169 77.2243 19.8258C76.9239 20.1346 76.7738 20.5079 76.7738 20.9454C76.7738 21.3745 76.9239 21.7433 77.2243 22.0522Z" fill="#666666"/>
<path d="M82.7441 23.7252V18.1528H84.3142V18.9893C84.5028 18.629 84.7344 18.3716 85.0091 18.2172C85.2665 18.0543 85.5754 17.9727 85.9357 17.9727C86.1416 17.9727 86.3646 18.0157 86.6049 18.1013L86.399 19.5684C86.2015 19.4313 85.957 19.3625 85.6654 19.3625C85.2106 19.3625 84.8631 19.5127 84.623 19.8129C84.4171 20.0703 84.3142 20.4821 84.3142 21.0484V23.7252H82.7441Z" fill="#666666"/>
<path d="M91.4049 21.9363L92.8463 22.168C92.7861 22.3224 92.7067 22.4748 92.6082 22.6248C92.5094 22.775 92.3572 22.9594 92.1513 23.1782C91.9454 23.397 91.6665 23.5729 91.3148 23.7058C90.9629 23.8388 90.5597 23.9053 90.1051 23.9053C89.23 23.9053 88.5178 23.6437 87.9688 23.1203C87.3853 22.5714 87.0938 21.8463 87.0938 20.9454C87.0938 20.0532 87.3769 19.3239 87.9431 18.7577C88.475 18.2345 89.1741 17.9727 90.0408 17.9727C90.9844 17.9727 91.7093 18.2773 92.2156 18.8863C92.6617 19.4184 92.8849 20.1475 92.8849 21.0741V21.2028H88.7153C88.7153 21.5804 88.8053 21.8935 88.9855 22.1422C89.2429 22.4941 89.6161 22.6699 90.1051 22.6699C90.6884 22.6699 91.1218 22.4254 91.4049 21.9363ZM88.7667 20.199H91.4049C91.3448 19.8387 91.1881 19.562 90.9352 19.369C90.682 19.1759 90.3967 19.0794 90.0794 19.0794C89.7705 19.0794 89.4894 19.1781 89.2365 19.3754C88.9833 19.5728 88.8266 19.8473 88.7667 20.199Z" fill="#666666"/>
<path d="M38.0488 12.4577V9.25977H38.7009C39.1931 9.25977 39.5862 9.38442 39.8803 9.63374C40.2447 9.93743 40.4269 10.3465 40.4269 10.8611C40.4269 11.3597 40.2399 11.7689 39.8659 12.0885C39.7125 12.2196 39.5478 12.3138 39.3721 12.3714C39.1963 12.4289 38.9709 12.4577 38.6961 12.4577H38.0488ZM38.4036 9.59538V12.1221H38.7153C39.0956 12.1221 39.4008 12.0262 39.631 11.8344C39.9187 11.5915 40.0625 11.2671 40.0625 10.8611C40.0625 10.4775 39.9394 10.1707 39.6933 9.94058C39.4472 9.71044 39.1211 9.59538 38.7153 9.59538H38.4036Z" fill="#666666"/>
<path d="M43.7518 12.0406C43.4305 12.357 43.0365 12.5152 42.5699 12.5152C42.1032 12.5152 41.7093 12.357 41.3881 12.0406C41.0669 11.7241 40.9062 11.331 40.9062 10.8611C40.9062 10.3881 41.0676 9.99414 41.3905 9.67928C41.7133 9.3645 42.1064 9.20703 42.5699 9.20703C43.0333 9.20703 43.4265 9.3645 43.7494 9.67928C44.0722 9.99414 44.2336 10.3881 44.2336 10.8611C44.2336 11.331 44.073 11.7241 43.7518 12.0406ZM43.4904 9.9262C43.2379 9.67051 42.9311 9.54264 42.5699 9.54264C42.2087 9.54264 41.9018 9.67051 41.6494 9.9262C41.3969 10.182 41.2706 10.4936 41.2706 10.8611C41.2706 11.2287 41.3969 11.5404 41.6494 11.796C41.9018 12.0518 42.2087 12.1796 42.5699 12.1796C42.9311 12.1796 43.2379 12.0518 43.4904 11.796C43.7429 11.5404 43.8692 11.2287 43.8692 10.8611C43.8692 10.4936 43.7429 10.182 43.4904 9.9262Z" fill="#666666"/>
<path d="M44.4121 9.26068H44.8053L45.6491 11.6579L46.6511 9.09766L47.6004 11.6579L48.5353 9.26068H48.9285L47.586 12.6264L46.6463 10.0661L45.6395 12.6264L44.4121 9.26068Z" fill="#666666"/>
<path d="M49.7337 12.4571H49.3789V9.125L51.872 11.738V9.25924H52.2268V12.601L49.7337 9.988V12.4571Z" fill="#666666"/>
<path d="M53.0508 9.25977H53.4056V12.1221H54.2878V12.4577H53.0508V9.25977Z" fill="#666666"/>
<path d="M57.2791 12.0406C56.9579 12.357 56.5639 12.5152 56.0973 12.5152C55.6306 12.5152 55.2367 12.357 54.9154 12.0406C54.5942 11.7241 54.4336 11.331 54.4336 10.8611C54.4336 10.3881 54.595 9.99414 54.9178 9.67928C55.2406 9.3645 55.6338 9.20703 56.0973 9.20703C56.5607 9.20703 56.9538 9.3645 57.2767 9.67928C57.5995 9.99414 57.7609 10.3881 57.7609 10.8611C57.7609 11.331 57.6003 11.7241 57.2791 12.0406ZM57.0178 9.9262C56.7653 9.67051 56.4584 9.54264 56.0973 9.54264C55.736 9.54264 55.4292 9.67051 55.1767 9.9262C54.9242 10.182 54.798 10.4936 54.798 10.8611C54.798 11.2287 54.9242 11.5404 55.1767 11.796C55.4292 12.0518 55.736 12.1796 56.0973 12.1796C56.4584 12.1796 56.7653 12.0518 57.0178 11.796C57.2703 11.5404 57.3966 11.2287 57.3966 10.8611C57.3966 10.4936 57.2703 10.182 57.0178 9.9262Z" fill="#666666"/>
<path d="M60.4557 12.4607L60.0817 11.5593H58.7201L58.3365 12.4607H57.9434L59.4153 9.10938L60.8488 12.4607H60.4557ZM58.8591 11.2237H59.9426L59.4057 9.94361L58.8591 11.2237Z" fill="#666666"/>
<path d="M61.2969 12.4577V9.25977H61.9489C62.4411 9.25977 62.8342 9.38442 63.1283 9.63374C63.4927 9.93743 63.6749 10.3465 63.6749 10.8611C63.6749 11.3597 63.4879 11.7689 63.114 12.0885C62.9605 12.2196 62.7959 12.3138 62.6201 12.3714C62.4443 12.4289 62.219 12.4577 61.9441 12.4577H61.2969ZM61.6517 9.59538V12.1221H61.9633C62.3436 12.1221 62.6489 12.0262 62.8791 11.8344C63.1667 11.5915 63.3106 11.2671 63.3106 10.8611C63.3106 10.4775 63.1875 10.1707 62.9414 9.94058C62.6952 9.71044 62.3692 9.59538 61.9633 9.59538H61.6517Z" fill="#666666"/>
<path d="M68.117 12.0406C67.7958 12.357 67.4018 12.5152 66.9352 12.5152C66.4685 12.5152 66.0745 12.357 65.7533 12.0406C65.4321 11.7241 65.2715 11.331 65.2715 10.8611C65.2715 10.3881 65.4329 9.99414 65.7557 9.67928C66.0785 9.3645 66.4717 9.20703 66.9352 9.20703C67.3986 9.20703 67.7917 9.3645 68.1146 9.67928C68.4374 9.99414 68.5988 10.3881 68.5988 10.8611C68.5988 11.331 68.4382 11.7241 68.117 12.0406ZM67.8557 9.9262C67.6032 9.67051 67.2963 9.54264 66.9352 9.54264C66.5739 9.54264 66.2671 9.67051 66.0146 9.9262C65.7621 10.182 65.6359 10.4936 65.6359 10.8611C65.6359 11.2287 65.7621 11.5404 66.0146 11.796C66.2671 12.0518 66.5739 12.1796 66.9352 12.1796C67.2963 12.1796 67.6032 12.0518 67.8557 11.796C68.1081 11.5404 68.2344 11.2287 68.2344 10.8611C68.2344 10.4936 68.1081 10.182 67.8557 9.9262Z" fill="#666666"/>
<path d="M69.6067 12.4571H69.252V9.125L71.7451 11.738V9.25924H72.0998V12.601L69.6067 9.988V12.4571Z" fill="#666666"/>
<path d="M75.6035 9.59538H74.8268V12.4577H74.472V9.59538H73.6953V9.25977H75.6035V9.59538Z" fill="#666666"/>
<path d="M76.4388 9.25977V10.5591H78.0785V9.25977H78.4333V12.4577H78.0785V10.8947H76.4388V12.4577H76.084V9.25977H76.4388Z" fill="#666666"/>
<path d="M80.9167 9.25977V9.59538H79.6126V10.5447H80.8783V10.8803H79.6126V12.1221H80.9167V12.4577H79.2578V9.25977H80.9167Z" fill="#666666"/>
<path d="M31.4441 13.2241C28.5464 15.3159 28.7568 19.1296 31.9498 20.8547C31.3647 22.5581 30.4931 24.0914 29.1395 25.3073C28.3963 25.975 27.471 26.0569 26.5975 25.6404C25.1827 24.9658 23.8323 25.0026 22.4265 25.6562C21.5705 26.0542 20.6952 25.978 19.955 25.3204C17.4393 23.0859 15.6762 18.4442 16.6523 15.0858C17.3136 12.8101 19.1912 11.324 21.3641 11.4642C21.9791 11.5039 22.6044 11.713 23.1798 11.9529C23.94 12.27 24.6406 12.2819 25.3918 11.9414C26.6374 11.3769 27.9232 11.1266 29.2711 11.6023C30.1486 11.912 30.873 12.4135 31.4441 13.2241Z" fill="#2A333A"/>
<path d="M27.9214 6.78516C28.292 8.87527 26.3381 11.1594 24.2293 11.1013C23.7142 9.25469 25.8113 6.80322 27.9214 6.78516Z" fill="#2A333A"/>
<defs>
<linearGradient id="paint0_linear_4756_5211" x1="1.29102" y1="17.7541" x2="116.755" y2="17.7541" gradientUnits="userSpaceOnUse">
<stop stop-color="white"/>
<stop offset="0.65098" stop-color="#E6E6E6"/>
<stop offset="1" stop-color="#CCCCCC"/>
</linearGradient>
</defs>
</svg>
