<svg width="31" height="41" viewBox="0 0 31 41" fill="none" xmlns="http://www.w3.org/2000/svg">
<path d="M29.6695 13.4996C23.9628 17.8848 24.3771 25.8793 30.6655 29.4958C29.5133 33.0665 27.7966 36.2809 25.1309 38.8298C23.6671 40.2294 21.8449 40.4011 20.1246 39.528C17.3382 38.1138 14.6787 38.1911 11.9101 39.5612C10.2244 40.3954 8.50056 40.2357 7.04274 38.8573C2.08843 34.173 -1.38397 24.4426 0.538331 17.4023C1.84087 12.6318 5.53859 9.51649 9.81796 9.81038C11.029 9.89356 12.2606 10.3319 13.3937 10.8349C14.8909 11.4995 16.2707 11.5245 17.7501 10.8108C20.2031 9.62729 22.7355 9.10269 25.3899 10.0999C27.1182 10.7491 28.5448 11.8004 29.6695 13.4996Z" fill="#2A333A"/>
<path d="M22.7333 0C23.4631 4.38152 19.6151 9.16981 15.462 9.04793C14.4476 5.17691 18.5776 0.037866 22.7333 0Z" fill="#2A333A"/>
</svg>
