<svg width="79" height="79" viewBox="0 0 79 79" fill="none" xmlns="http://www.w3.org/2000/svg">
<g opacity="0.98">
<path d="M0 12C0 5.37258 5.37258 0 12 0H67C73.6274 0 79 5.37258 79 12V67C79 73.6274 73.6274 79 67 79H12C5.37258 79 0 73.6274 0 67V12Z" fill="#174D87"/>
<path fill-rule="evenodd" clip-rule="evenodd" d="M38.7779 8.93621L38.2151 10.0737L37.1308 10.1826C36.5344 10.2424 36.0154 10.3417 35.9773 10.4033C35.9394 10.4646 36.2757 10.8776 36.7246 11.321L37.5407 12.1271L37.3225 13.2824C37.2026 13.9178 37.1302 14.4634 37.1617 14.4948C37.1931 14.5263 37.6941 14.2998 38.2748 13.9914L39.3307 13.4306L40.4061 13.9885C40.9976 14.2953 41.5059 14.5218 41.5358 14.4919C41.5657 14.4621 41.4919 13.9178 41.372 13.2824L41.1538 12.1271L41.97 11.321C42.4189 10.8776 42.7551 10.4646 42.7172 10.4033C42.6792 10.3417 42.1616 10.2426 41.5669 10.1829L40.4857 10.0744L39.9133 8.93652L39.3408 7.79883L38.7779 8.93621ZM52.5916 12.7706L52.0301 13.9055L50.995 14.0163C50.4258 14.0774 49.8778 14.1587 49.7771 14.1974C49.6726 14.2375 49.9725 14.6287 50.4751 15.1081L51.3562 15.9485L51.1365 17.1115C51.0158 17.751 50.9458 18.3032 50.9809 18.3384C51.0161 18.3735 51.5228 18.1462 52.1071 17.833L53.1693 17.2638L54.2287 17.8262C54.8114 18.1356 55.3139 18.3631 55.3454 18.3316C55.3768 18.3002 55.3044 17.7546 55.1845 17.1192L54.9663 15.9639L55.7825 15.1578C56.2314 14.7144 56.5676 14.3014 56.5297 14.2401C56.4917 14.1785 55.9742 14.0794 55.3794 14.0197L54.2982 13.9112L53.7258 12.7733L53.1533 11.6356L52.5916 12.7706ZM23.5841 12.9265L23.0213 14.064L21.9371 14.1728C21.3407 14.2327 20.8216 14.332 20.7836 14.3935C20.7457 14.4549 21.0813 14.8675 21.5296 15.3101L22.3447 16.115L22.2168 16.8327C22.1466 17.2272 22.0494 17.7758 22.0012 18.0514L21.9133 18.5525L23.049 17.9906L24.1847 17.4286L25.2333 17.9856C25.8101 18.2917 26.3076 18.5166 26.3391 18.4851C26.3706 18.4536 26.2975 17.9045 26.1767 17.265L25.9571 16.102L26.8382 15.2616C27.3408 14.7821 27.6407 14.3909 27.5362 14.3509C27.4355 14.3122 26.8888 14.231 26.3213 14.1701L25.2895 14.0596L24.7183 12.9243L24.1471 11.7891L23.5841 12.9265ZM62.8743 23.0532L62.3127 24.1881L61.2777 24.2989C59.7219 24.4656 59.7179 24.4737 60.7332 25.3926L61.6419 26.2149L61.4207 27.3859C61.299 28.03 61.2298 28.5873 61.2666 28.6242C61.3036 28.6611 61.7993 28.4353 62.3684 28.1225L63.4031 27.5538L64.5428 28.1178L65.6827 28.6816L65.5947 28.1806C65.5465 27.9049 65.4494 27.3564 65.3791 26.9618L65.2512 26.2442L66.0663 25.4392C66.5146 24.9966 66.8503 24.5841 66.8124 24.5227C66.7743 24.4612 66.2568 24.362 65.6621 24.3023L64.5809 24.1938L64.0084 23.056L63.436 21.9183L62.8743 23.0532ZM14.3758 24.5904L13.813 25.7279L12.7287 25.8367C12.1323 25.8966 11.6133 25.9959 11.5752 26.0574C11.5373 26.1188 11.873 26.5313 12.3213 26.974L13.1364 27.7789L13.0085 28.4966C12.9382 28.8911 12.8411 29.4396 12.7929 29.7153L12.7049 30.2164L13.8406 29.6545L14.9763 29.0925L16.025 29.6494C16.6018 29.9556 17.0993 30.1805 17.1308 30.149C17.1622 30.1175 17.0886 29.5647 16.9669 28.9206L16.7457 27.7496L17.6544 26.9273C18.6695 26.0088 18.6652 26.0003 17.113 25.834L16.0812 25.7235L15.51 24.5882L14.9387 23.453L14.3758 24.5904ZM20.9228 36.1149C18.3306 36.414 15.4823 37.1674 15.4823 37.554C15.4823 37.8292 15.9771 37.8852 18.4109 37.8852C19.7545 37.8852 20.8539 37.9377 20.8539 38.0017C20.8539 38.0657 20.4039 38.2797 19.8538 38.4769C18.7772 38.863 18.361 39.2995 18.7286 39.6569C19.0845 40.003 21.1375 40.3162 23.7698 40.4263C25.1626 40.4844 26.5784 40.582 26.916 40.6431L27.5299 40.7542L27.0695 40.8537C24.0505 41.5058 22.3886 42.0279 22.3886 42.3241C22.3886 42.8834 24.9844 43.3844 28.5658 43.5167C29.9798 43.5689 31.1365 43.6527 31.1365 43.7029C31.1365 43.7532 30.231 43.9821 29.1243 44.2115C26.7064 44.7129 26.2202 44.9905 27.0764 45.3807C27.4716 45.5607 31.9953 46.1727 32.9311 46.1727C33.8255 46.1727 33.4747 46.4137 32.2908 46.6127C30.3555 46.9379 30.5524 47.3179 32.7337 47.4673C35.6081 47.664 35.9241 47.7168 35.718 47.9651C35.3733 48.3804 35.8963 48.4658 38.5799 48.4321C40.9196 48.4028 41.3131 48.4363 42.392 48.756C43.0538 48.952 43.629 49.0787 43.6703 49.0373C43.7931 48.9147 42.405 48.1604 41.1842 47.6863C40.5588 47.4433 38.8123 46.8733 37.3033 46.4197C35.7942 45.9659 34.3963 45.5073 34.1966 45.4003L33.8336 45.2062L34.2116 45.0622C34.671 44.8872 39.377 44.8533 40.9204 45.0139C42.2525 45.1524 42.438 44.8928 41.3808 44.3697C40.1056 43.739 38.4533 43.4188 33.2722 42.7991C31.1971 42.5508 29.2979 42.2675 29.0517 42.1696L28.6042 41.9914L29.0646 41.7868C29.7169 41.4972 33.8608 41.5092 36.2253 41.8077C37.2671 41.939 39.1168 42.2483 40.3356 42.4948C41.5545 42.7411 42.5771 42.9173 42.6081 42.8863C42.7152 42.7792 39.4981 41.2963 38.2791 40.8907C35.0425 39.8141 30.7801 39.1222 25.796 38.8648C24.6735 38.8068 23.8102 38.7057 23.8776 38.6403C23.9449 38.5748 24.8288 38.4423 25.8417 38.3461C32.3374 37.7287 41.7351 40.3176 48.9463 44.7108C50.5495 45.6875 52.2891 46.9401 52.0425 46.9401C51.9427 46.9401 51.187 46.5602 50.3629 46.096C49.5389 45.6317 48.7504 45.2519 48.6105 45.2519C48.3366 45.2519 47.5531 46.4418 47.654 46.7047C47.6877 46.7925 48.3039 47.2338 49.0235 47.6854C50.056 48.3335 50.296 48.5497 50.162 48.711C49.8296 49.1116 46.975 50.9397 45.5454 51.6677C42.1159 53.4136 37.1147 54.7383 33.8026 54.7779C33.3069 54.7839 32.7633 54.8537 32.5945 54.9331C32.1996 55.1189 39.1301 54.967 41.0355 54.748C44.8684 54.3077 48.4947 53.0455 51.3011 51.1749C52.77 50.1957 54.9738 48.0041 54.8986 47.5974C54.8707 47.4469 54.2955 46.959 53.6202 46.5131C52.9449 46.0673 52.3749 45.652 52.3534 45.5903C52.2847 45.3928 53.6668 44.0559 54.5791 43.4379C56.1998 42.3395 58.3933 41.4067 60.9377 40.7337L62.3681 40.3554L60.1428 40.3492C57.7127 40.3425 56.4538 40.4915 54.9247 40.9668C53.3716 41.4496 51.1098 42.6453 50.2314 43.4483C49.7924 43.8495 49.336 44.1776 49.2171 44.1776C49.0981 44.1776 48.5729 43.8664 48.0501 43.4859C43.3334 40.0538 35.7281 37.1245 29.2994 36.2635C26.8379 35.9338 23.0714 35.8671 20.9228 36.1149ZM10.3855 37.3286L9.82273 38.4661L8.73845 38.5749C8.14206 38.6348 7.62301 38.7341 7.58495 38.7956C7.54704 38.857 7.88269 39.2695 8.33098 39.7122L9.14607 40.5171L9.01823 41.2348C8.94794 41.6293 8.85079 42.1778 8.8026 42.4535L8.71466 42.9546L9.85036 42.3927L10.9861 41.8307L12.0347 42.3876C12.6115 42.6938 13.1038 42.9239 13.1288 42.8989C13.1538 42.8738 13.082 42.3221 12.9691 41.6729L12.7637 40.4924L13.654 39.6624C14.2028 39.1508 14.4696 38.8036 14.3494 38.7576C14.2423 38.7164 13.6902 38.6331 13.1227 38.5722L12.0909 38.4617L11.5197 37.3264L10.9485 36.1912L10.3855 37.3286ZM67.4784 37.3261L66.9169 38.4611L65.8819 38.5719C64.3261 38.7385 64.3221 38.7467 65.3373 39.6655L66.2461 40.4878L66.0249 41.6588C65.9032 42.3029 65.8295 42.8557 65.861 42.8872C65.8924 42.9187 66.39 42.6938 66.9668 42.3876L68.0154 41.8307L69.1511 42.3927L70.2868 42.9546L70.1989 42.4535C70.1507 42.1778 70.0535 41.6293 69.9832 41.2348L69.8554 40.5171L70.6705 39.7122C71.1188 39.2695 71.4544 38.857 71.4165 38.7956C71.3785 38.7341 70.861 38.6349 70.2663 38.5752L69.185 38.4667L68.6126 37.3289L68.0401 36.1912L67.4784 37.3261ZM14.3758 51.2946L13.813 52.4321L12.7287 52.5409C12.1323 52.6008 11.6133 52.7001 11.5752 52.7616C11.5373 52.823 11.873 53.2355 12.3213 53.6781L13.1364 54.4831L13.0085 55.2007C12.9382 55.5953 12.8408 56.1454 12.7921 56.423L12.7037 56.9278L13.8178 56.3667L14.932 55.8056L16.0586 56.3631L17.1854 56.9206L17.0975 56.4195C17.0493 56.1438 16.9509 55.5883 16.8789 55.1849L16.7482 54.4516L17.6555 53.6304C18.6693 52.713 18.6652 52.7045 17.113 52.5382L16.0812 52.4277L15.51 51.2924L14.9387 50.1572L14.3758 51.2946ZM62.8743 51.2921L62.3127 52.427L61.2777 52.5378C59.7222 52.7045 59.7181 52.7128 60.7299 53.6286L61.6354 54.4478L61.4292 55.6337C61.3158 56.2858 61.2435 56.8398 61.2685 56.8648C61.2935 56.8899 61.7858 56.6598 62.3626 56.3536L63.4113 55.7967L64.547 56.3587L65.6827 56.9206L65.5947 56.4195C65.5465 56.1438 65.4494 55.5953 65.3791 55.2007L65.2512 54.4831L66.0663 53.6781C66.5146 53.2355 66.8503 52.823 66.8124 52.7616C66.7743 52.7001 66.2568 52.6009 65.6621 52.5412L64.5809 52.4327L64.0084 51.2949L63.436 50.1572L62.8743 51.2921ZM24.6584 61.8841L24.0957 63.0217L23.0114 63.1305C22.415 63.1903 21.8959 63.2896 21.8579 63.3512C21.82 63.4126 22.1556 63.8251 22.6039 64.2677L23.419 65.0727L23.2912 65.7903C23.2209 66.1849 23.1234 66.735 23.0748 67.0126L22.9864 67.5173L24.1004 66.9563L25.2146 66.3952L26.3413 66.9527L27.4681 67.5101L27.3801 67.009C27.3319 66.7334 27.2342 66.1815 27.1631 65.7827L27.0337 65.0573L27.9137 64.2182C28.4157 63.7393 28.715 63.3486 28.6105 63.3085C28.5098 63.2699 27.9632 63.1887 27.3956 63.1277L26.3638 63.0172L25.7926 61.882L25.2214 60.7468L24.6584 61.8841ZM52.5916 61.8817L52.0301 63.0166L50.995 63.1274C49.4394 63.2941 49.4353 63.3022 50.4495 64.22L51.3568 65.0412L51.226 65.7745C51.154 66.1778 51.0554 66.735 51.0067 67.0126L50.9183 67.5173L52.0324 66.9563L53.1466 66.3952L54.2732 66.9527L55.4 67.5101L55.3121 67.009C55.2639 66.7334 55.1661 66.1815 55.0951 65.7827L54.9657 65.0573L55.8457 64.2182C56.3477 63.7393 56.647 63.3486 56.5425 63.3085C56.4418 63.2699 55.8951 63.1887 55.3276 63.1277L54.2958 63.0172L53.7246 61.882L53.1533 60.7468L52.5916 61.8817ZM38.7791 65.565L38.2176 66.7L37.1825 66.8108C36.6133 66.8718 36.0653 66.9532 35.9646 66.9919C35.8601 67.0319 36.1593 67.4227 36.6613 67.9015L37.5414 68.7407L37.412 69.466C37.3409 69.8649 37.2429 70.4183 37.1942 70.6959L37.1058 71.2007L38.2199 70.6396L39.3341 70.0785L40.4607 70.6361L41.5875 71.1935L41.4996 70.6924C41.4514 70.4167 41.3536 69.8649 41.2826 69.466L41.1532 68.7407L42.0332 67.9015C42.5352 67.4227 42.8345 67.0319 42.7299 66.9919C42.6293 66.9532 42.0826 66.872 41.5151 66.8111L40.4833 66.7006L39.912 65.5653L39.3408 64.4301L38.7791 65.565Z" fill="white"/>
</g>
</svg>
