<svg width="15" height="15" viewBox="0 0 15 15" fill="none" xmlns="http://www.w3.org/2000/svg">
<path d="M1.42562 12.2859C1.48104 12.8226 1.83288 13.2473 2.36055 13.3597C3.19344 13.537 4.7635 13.75 7.5 13.75C10.2365 13.75 11.8066 13.537 12.6395 13.3597C13.1671 13.2473 13.519 12.8226 13.5744 12.2859C13.6566 11.4902 13.75 10.0293 13.75 7.5C13.75 4.97066 13.6566 3.50975 13.5744 2.71407C13.519 2.17743 13.1671 1.75265 12.6394 1.64032C11.8066 1.46301 10.2365 1.25 7.5 1.25C4.7635 1.25 3.19344 1.46301 2.36055 1.64032C1.83288 1.75265 1.48104 2.17743 1.42562 2.71407C1.34345 3.50975 1.25 4.97066 1.25 7.5C1.25 10.0293 1.34345 11.4902 1.42562 12.2859Z" fill="white"/>
<path d="M8.71135 8.65991C9.53935 8.22391 10.1039 7.35497 10.1039 6.35416C10.1039 4.91594 8.93797 3.75 7.49972 3.75C6.06151 3.75 4.89557 4.91594 4.89557 6.35416C4.89557 7.355 5.46016 8.224 6.28822 8.65997C5.17932 9.08247 4.3326 10.0683 4.07032 11.2831C4.03404 11.4512 4.12654 11.6238 4.29588 11.6544C4.90363 11.7644 5.9101 11.875 7.50038 11.875C9.09063 11.875 10.0971 11.7644 10.7048 11.6544C10.8736 11.6239 10.9658 11.452 10.9297 11.2844C10.6678 10.0689 9.82079 9.08253 8.71135 8.65991Z" fill="#174D87"/>
</svg>
