<svg width="18" height="18" viewBox="0 0 18 18" fill="none" xmlns="http://www.w3.org/2000/svg">
<path opacity="0.32" d="M1.71074 14.7431C1.77724 15.3871 2.19945 15.8968 2.83266 16.0316C3.83212 16.2444 5.7162 16.5 9 16.5C12.2838 16.5 14.1679 16.2444 15.1674 16.0316C15.8006 15.8968 16.2228 15.3871 16.2892 14.7431C16.3879 13.7883 16.5 12.0352 16.5 9C16.5 5.96479 16.3879 4.2117 16.2892 3.25688C16.2228 2.61291 15.8006 2.10318 15.1673 1.96838C14.1679 1.75561 12.2838 1.5 9 1.5C5.7162 1.5 3.83212 1.75561 2.83266 1.96838C2.19945 2.10318 1.77724 2.61291 1.71074 3.25688C1.61214 4.2117 1.5 5.96479 1.5 9C1.5 12.0352 1.61214 13.7883 1.71074 14.7431Z" fill="#174D87"/>
<path d="M10.4536 10.3919C11.4472 9.86869 12.1247 8.82596 12.1247 7.62499C12.1247 5.89912 10.7256 4.5 8.99967 4.5C7.27381 4.5 5.87468 5.89912 5.87468 7.62499C5.87468 8.826 6.55219 9.8688 7.54587 10.392C6.21518 10.899 5.19912 12.0819 4.88438 13.5397C4.84084 13.7414 4.95184 13.9485 5.15506 13.9853C5.88436 14.1173 7.09212 14.25 9.00046 14.25C10.9088 14.25 12.1165 14.1173 12.8458 13.9853C13.0483 13.9487 13.159 13.7424 13.1157 13.5413C12.8013 12.0827 11.7849 10.899 10.4536 10.3919Z" fill="#174D87"/>
</svg>
