<svg width="34" height="36" viewBox="0 0 34 36" fill="none" xmlns="http://www.w3.org/2000/svg">
<path opacity="0.32" fill-rule="evenodd" clip-rule="evenodd" d="M29.5325 12.117C27.4991 12.6503 25.0984 12.6858 23.0248 12.0251C22.1481 11.7458 21.4646 11.0336 21.1687 10.1289C20.4316 7.87498 20.2495 5.11618 20.7913 2.99264C19.6697 2.96326 18.3943 2.9458 16.9469 2.9458C12.0262 2.9458 9.09383 3.14732 7.43213 3.33432C6.20106 3.47285 5.25179 4.34242 5.02129 5.61112C4.66249 7.58599 4.23633 11.2779 4.23633 17.674C4.23633 24.0701 4.66249 27.762 5.02129 29.7369C5.25179 31.0056 6.20106 31.8751 7.43213 32.0136C9.09383 32.2006 12.0262 32.4022 16.9469 32.4022C21.8677 32.4022 24.8001 32.2006 26.4618 32.0136C27.6929 31.8751 28.6421 31.0056 28.8726 29.7369C29.2314 27.762 29.6576 24.0701 29.6576 17.674C29.6576 15.5303 29.6097 13.6903 29.5325 12.117ZM11.2978 19.1468C10.5178 19.1468 9.88549 18.4874 9.88549 17.674C9.88549 16.8605 10.5178 16.2012 11.2978 16.2012H16.9469C17.727 16.2012 18.3592 16.8605 18.3592 17.674C18.3592 18.4874 17.727 19.1468 16.9469 19.1468H11.2978ZM11.2978 25.7745C10.5178 25.7745 9.88549 25.1151 9.88549 24.3017C9.88549 23.4882 10.5178 22.8288 11.2978 22.8288H21.1838C21.9638 22.8288 22.5961 23.4882 22.5961 24.3017C22.5961 25.1151 21.9638 25.7745 21.1838 25.7745H11.2978Z" fill="black"/>
<path d="M9.88672 24.3013C9.88672 25.1147 10.519 25.7741 11.299 25.7741H21.185C21.9651 25.7741 22.5973 25.1147 22.5973 24.3013C22.5973 23.4879 21.9651 22.8285 21.185 22.8285H11.299C10.519 22.8285 9.88672 23.4879 9.88672 24.3013Z" fill="black"/>
<path d="M9.88672 17.6736C9.88672 18.4871 10.519 19.1464 11.299 19.1464H16.9482C17.7282 19.1464 18.3605 18.4871 18.3605 17.6736C18.3605 16.8602 17.7282 16.2008 16.9482 16.2008H11.299C10.519 16.2008 9.88672 16.8602 9.88672 17.6736Z" fill="black"/>
<path d="M29.5337 12.1166C27.5004 12.65 25.0996 12.6854 23.026 12.0248C22.1494 11.7455 21.4658 11.0333 21.1699 10.1285C20.4329 7.87459 20.2507 5.11574 20.7925 2.99219C20.7925 2.99219 22.5213 3.68176 25.6989 6.9956C28.8766 10.3095 29.5337 12.1166 29.5337 12.1166Z" fill="black"/>
</svg>
