<svg width="52" height="65" viewBox="0 0 52 65" fill="none" xmlns="http://www.w3.org/2000/svg">
<path d="M46.0387 0H5.87528C4.31725 0.000615237 2.82321 0.612259 1.72152 1.70051C0.619824 2.78875 0.000622838 4.26456 0 5.80357V59.1964C0.000622838 60.7354 0.619824 62.2112 1.72152 63.2995C2.82321 64.3877 4.31725 64.9994 5.87528 65H46.0387C47.5967 64.9994 49.0907 64.3877 50.1924 63.2995C51.2941 62.2112 51.9133 60.7354 51.9139 59.1964V5.80357C51.9133 4.26456 51.2941 2.78875 50.1924 1.70051C49.0907 0.612259 47.5967 0.000615237 46.0387 0ZM31.2682 48.4714H7.66136C7.34972 48.4714 7.05084 48.3491 6.83047 48.1315C6.61011 47.9138 6.48631 47.6186 6.48631 47.3107C6.48631 47.0029 6.61011 46.7076 6.83047 46.49C7.05084 46.2723 7.34972 46.15 7.66136 46.15H31.2682C31.5799 46.15 31.8787 46.2723 32.0991 46.49C32.3195 46.7076 32.4433 47.0029 32.4433 47.3107C32.4433 47.6186 32.3195 47.9138 32.0991 48.1315C31.8787 48.3491 31.5799 48.4714 31.2682 48.4714ZM37.7898 54.8554C38.1014 54.8554 38.4003 54.9776 38.6207 55.1953C38.841 55.413 38.9648 55.7082 38.9648 56.0161C38.9648 56.3239 38.841 56.6191 38.6207 56.8368C38.4003 57.0545 38.1014 57.1768 37.7898 57.1768H7.66136C7.34972 57.1768 7.05084 57.0545 6.83047 56.8368C6.61011 56.6191 6.48631 56.3239 6.48631 56.0161C6.48631 55.7082 6.61011 55.413 6.83047 55.1953C7.05084 54.9776 7.34972 54.8554 7.66136 54.8554H37.7898ZM27.6726 39.7661H7.66136C7.34972 39.7661 7.05084 39.6438 6.83047 39.4261C6.61011 39.2084 6.48631 38.9132 6.48631 38.6054C6.48631 38.2975 6.61011 38.0023 6.83047 37.7846C7.05084 37.5669 7.34972 37.4446 7.66136 37.4446H27.6726C27.9842 37.4446 28.2831 37.5669 28.5034 37.7846C28.7238 38.0023 28.8476 38.2975 28.8476 38.6054C28.8476 38.9132 28.7238 39.2084 28.5034 39.4261C28.2831 39.6438 27.9842 39.7661 27.6726 39.7661ZM6.4628 24.3634C6.18571 23.8529 6.04041 23.2828 6.03978 22.7036V8.87946C6.04041 7.95613 6.41201 7.07079 7.07297 6.4179C7.73393 5.765 8.63021 5.39794 9.56495 5.39732H23.5481C24.4829 5.39794 25.3791 5.765 26.0401 6.4179C26.7011 7.07079 27.0727 7.95613 27.0733 8.87946V22.7036C27.0629 23.6239 26.6882 24.5037 26.0293 25.1545C25.3704 25.8053 24.4798 26.1755 23.5481 26.1857H9.56495C8.92962 26.1863 8.30594 26.0172 7.75987 25.6965C7.2138 25.3757 6.76565 24.9151 6.4628 24.3634ZM43.6886 31.7455H7.66136C7.34972 31.7455 7.05084 31.6232 6.83047 31.4056C6.61011 31.1879 6.48631 30.8927 6.48631 30.5848C6.48631 30.277 6.61011 29.9817 6.83047 29.7641C7.05084 29.5464 7.34972 29.4241 7.66136 29.4241H43.6886C44.0002 29.4241 44.2991 29.5464 44.5195 29.7641C44.7398 29.9817 44.8636 30.277 44.8636 30.5848C44.8636 30.8927 44.7398 31.1879 44.5195 31.4056C44.2991 31.6232 44.0002 31.7455 43.6886 31.7455ZM23.9359 23.7946C23.8184 23.8411 9.29469 23.8411 9.17718 23.7946C10.1354 22.8184 11.2823 22.0423 12.5499 21.5122C13.8175 20.9822 15.18 20.7091 16.5565 20.7091C17.933 20.7091 19.2955 20.9822 20.5632 21.5122C21.8308 22.0423 22.9777 22.8184 23.9359 23.7946ZM24.7232 21.3339V8.87946C24.7222 8.57191 24.5981 8.27721 24.378 8.05973C24.1578 7.84225 23.8595 7.71967 23.5481 7.71875H9.56495C9.25359 7.71967 8.95525 7.84225 8.73509 8.05973C8.51492 8.27721 8.39082 8.57191 8.38989 8.87946V21.3455C10.6706 19.4345 13.5636 18.3845 16.5544 18.3824C19.5451 18.3803 22.4397 19.4261 24.7232 21.3339ZM12.3968 12.8375C12.3968 11.7477 12.8351 10.7026 13.6152 9.93205C14.3953 9.16148 15.4533 8.72857 16.5565 8.72857C17.6597 8.72857 18.7178 9.16148 19.4979 9.93205C20.278 10.7026 20.7162 11.7477 20.7162 12.8375C20.7162 13.9273 20.278 14.9724 19.4979 15.743C18.7178 16.5135 17.6597 16.9464 16.5565 16.9464C15.4533 16.9464 14.3953 16.5135 13.6152 15.743C12.8351 14.9724 12.3968 13.9273 12.3968 12.8375ZM14.7469 12.8375C14.7469 12.3634 14.9376 11.9088 15.277 11.5735C15.6163 11.2383 16.0766 11.05 16.5565 11.05C17.0365 11.05 17.4967 11.2383 17.8361 11.5735C18.1755 11.9088 18.3661 12.3634 18.3661 12.8375C18.3661 13.3116 18.1755 13.7662 17.8361 14.1015C17.4967 14.4367 17.0365 14.625 16.5565 14.625C16.0766 14.625 15.6163 14.4367 15.277 14.1015C14.9376 13.7662 14.7469 13.3116 14.7469 12.8375Z" fill="#6FAAEA"/>
</svg>
