<svg width="15" height="15" viewBox="0 0 15 15" fill="none" xmlns="http://www.w3.org/2000/svg">
<path opacity="0.32" d="M1.35125 5.3125C1.25 6.00188 1.25 6.90625 1.25 8.125C1.25 10.4819 1.25 11.6606 1.9825 12.3925C2.71438 13.125 3.89313 13.125 6.25 13.125H8.75C11.1069 13.125 12.2856 13.125 13.0175 12.3925C13.75 11.6606 13.75 10.4819 13.75 8.125C13.75 6.90625 13.75 6.00188 13.6487 5.3125C12.2256 6.2375 11.3138 6.82688 10.4688 7.19063V7.5C10.4694 7.56156 10.4579 7.62264 10.435 7.67976C10.412 7.73689 10.3781 7.78893 10.335 7.83292C10.248 7.92177 10.1293 7.97242 10.005 7.97375C9.88068 7.97508 9.76092 7.92696 9.67208 7.83999C9.58323 7.75302 9.53258 7.63432 9.53125 7.51C8.19983 7.86098 6.80017 7.86098 5.46875 7.51C5.46742 7.63432 5.41677 7.75302 5.32792 7.83999C5.23908 7.92696 5.11932 7.97508 4.995 7.97375C4.87068 7.97242 4.75198 7.92177 4.66501 7.83292C4.57804 7.74408 4.52992 7.62432 4.53125 7.5V7.19C3.68625 6.8275 2.775 6.2375 1.35125 5.3125Z" fill="white"/>
<path fill-rule="evenodd" clip-rule="evenodd" d="M6.61328 1.40623H6.60078C6.52953 1.40623 6.47453 1.40623 6.42203 1.40936C6.0973 1.4291 5.78484 1.54059 5.52097 1.73089C5.2571 1.92119 5.05266 2.18246 4.93141 2.48436C4.90477 2.55523 4.87976 2.62671 4.85641 2.69873L4.85391 2.70623C4.78943 2.87664 4.68044 3.02664 4.53828 3.14061C4.39641 3.14561 4.26078 3.15123 4.13078 3.15936C3.10328 3.21936 2.45141 3.38811 1.98203 3.85748C1.82953 4.00998 1.70828 4.18248 1.61328 4.38123C1.64982 4.39377 1.68467 4.41077 1.71703 4.43186C3.02953 5.28498 3.85453 5.81936 4.53953 6.16123C4.5612 6.04633 4.62504 5.94367 4.7185 5.87341C4.81197 5.80315 4.92832 5.77037 5.04472 5.78148C5.16112 5.7926 5.26916 5.84681 5.34764 5.93349C5.42612 6.02017 5.46937 6.13305 5.46891 6.24998V6.53623C6.79391 6.93623 8.20641 6.93623 9.53141 6.53623V6.24998C9.53175 6.13362 9.57536 6.02155 9.65376 5.93556C9.73215 5.84957 9.83973 5.79581 9.95556 5.78474C10.0714 5.77367 10.1872 5.80608 10.2805 5.87567C10.3737 5.94525 10.4378 6.04704 10.4602 6.16123C11.1458 5.81873 11.9708 5.28498 13.2833 4.43186C13.3159 4.41075 13.3509 4.39374 13.3877 4.38123C13.2951 4.18683 13.1699 4.0097 13.0177 3.85748C12.5489 3.38873 11.897 3.21998 10.8695 3.15873C10.7464 3.15186 10.6177 3.14623 10.4833 3.14123C10.326 3.01309 10.2046 2.84644 10.1308 2.65748L10.1283 2.65186C10.1058 2.58498 10.0883 2.53248 10.0689 2.48373C9.94756 2.18196 9.74308 1.92081 9.47922 1.73063C9.21535 1.54045 8.90294 1.42904 8.57828 1.40936C8.51874 1.40654 8.45913 1.4055 8.39953 1.40623H6.61328ZM9.26141 3.00998L9.25828 3.00311L9.25516 2.99561L9.25203 2.98811L9.25016 2.98186L9.24891 2.97873L9.24641 2.97123L9.24391 2.96373L9.24266 2.95998L9.24078 2.95498L9.23953 2.95061L9.23828 2.94686C9.22611 2.90882 9.21298 2.8711 9.19891 2.83373C9.14381 2.69649 9.0509 2.57771 8.93097 2.4912C8.81104 2.40468 8.66901 2.35397 8.52141 2.34498C8.47663 2.34342 8.43183 2.343 8.38703 2.34373H6.61328C6.52391 2.34373 6.49891 2.34373 6.47891 2.34498C6.3313 2.35397 6.18927 2.40468 6.06934 2.4912C5.94941 2.57771 5.8565 2.69649 5.80141 2.83373L5.79953 2.83811L5.79453 2.85123C5.77723 2.89878 5.76097 2.94671 5.74578 2.99498L5.74516 2.99873L5.74328 3.00311L5.74203 3.00811L5.74078 3.01186L5.73828 3.01936L5.73516 3.02686L5.73453 3.02998L5.73203 3.03623L5.72891 3.04373L5.72641 3.05123L5.72328 3.05748C5.71457 3.08017 5.70541 3.10329 5.69578 3.12561L6.25016 3.12498H9.31016C9.29243 3.0872 9.27659 3.04885 9.26141 3.00998Z" fill="white"/>
</svg>
