<svg width="18" height="18" viewBox="0 0 18 18" fill="none" xmlns="http://www.w3.org/2000/svg">
<path opacity="0.32" d="M3 7.46621V3.75C3 2.50736 4.00736 1.5 5.25 1.5H12.75C13.9926 1.5 15 2.50736 15 3.75V7.46621C15 7.95724 14.7614 8.41635 14.3507 8.68545C13.0812 9.5172 10.2825 11.25 9 11.25C7.7175 11.25 4.91876 9.5172 3.64928 8.68545C3.23856 8.41635 3 7.95724 3 7.46621Z" fill="#174D87"/>
<path d="M2.99902 4.68825C2.6169 4.97189 2.27919 5.23131 2.00823 5.4432C1.55673 5.79626 1.27371 6.31695 1.23552 6.88882C1.18355 7.66702 1.12402 8.97338 1.12402 10.875C1.12402 12.6734 1.23049 13.9393 1.32997 14.7297C1.41199 15.3814 1.84829 15.8982 2.49156 16.0309C3.52299 16.2438 5.49255 16.5 8.99902 16.5C12.5055 16.5 14.4751 16.2438 15.5065 16.0309C16.1497 15.8982 16.5861 15.3814 16.6681 14.7297C16.7676 13.9393 16.874 12.6734 16.874 10.875C16.874 8.97338 16.8145 7.66702 16.7625 6.88882C16.7243 6.31695 16.4413 5.79626 15.9898 5.4432C15.7188 5.23131 15.3811 4.9719 14.999 4.68825V7.46621C14.999 7.95724 14.7604 8.41635 14.3497 8.68545C13.0803 9.5172 10.2815 11.25 8.99902 11.25C7.71652 11.25 4.91779 9.5172 3.6483 8.68545C3.23758 8.41635 2.99902 7.95724 2.99902 7.46621V4.68825Z" fill="#174D87"/>
<path d="M5.24902 4.3125C5.24902 4.00185 5.50087 3.75 5.81152 3.75H9.18652C9.49717 3.75 9.74902 4.00185 9.74902 4.3125C9.74902 4.62315 9.49717 4.875 9.18652 4.875H5.81152C5.50087 4.875 5.24902 4.62315 5.24902 4.3125Z" fill="#174D87"/>
<path d="M5.24902 6.9375C5.24902 6.62685 5.50087 6.375 5.81152 6.375H11.4365C11.7472 6.375 11.999 6.62685 11.999 6.9375C11.999 7.24815 11.7472 7.5 11.4365 7.5H5.81152C5.50087 7.5 5.24902 7.24815 5.24902 6.9375Z" fill="#174D87"/>
</svg>
