<svg width="15" height="15" viewBox="0 0 15 15" fill="none" xmlns="http://www.w3.org/2000/svg">
<path fill-rule="evenodd" clip-rule="evenodd" d="M13.0696 5.14184C12.1698 5.36819 11.1074 5.38322 10.1897 5.10287C9.80174 4.98434 9.49924 4.68212 9.3683 4.29819C9.04212 3.34173 8.96154 2.17101 9.20128 1.26988C8.70494 1.25741 8.14052 1.25 7.5 1.25C5.32234 1.25 4.02466 1.33552 3.28928 1.41487C2.74448 1.47366 2.32438 1.84267 2.22238 2.38104C2.06359 3.21909 1.875 4.78578 1.875 7.5C1.875 10.2142 2.06359 11.7809 2.22238 12.619C2.32438 13.1573 2.74448 13.5263 3.28928 13.5851C4.02466 13.6645 5.32234 13.75 7.5 13.75C9.67766 13.75 10.9753 13.6645 11.7107 13.5851C12.2555 13.5263 12.6756 13.1573 12.7776 12.619C12.9364 11.7809 13.125 10.2142 13.125 7.5C13.125 6.59031 13.1038 5.8095 13.0696 5.14184Z" fill="white"/>
<path d="M13.0696 5.14184C12.1698 5.36819 11.1074 5.38322 10.1897 5.10287C9.80174 4.98434 9.49924 4.68212 9.3683 4.29819C9.04212 3.34172 8.96152 2.17098 9.20127 1.26984C9.20127 1.26984 9.96634 1.56246 11.3726 2.96871C12.7788 4.37497 13.0696 5.14184 13.0696 5.14184Z" fill="#C4C4C4"/>
</svg>
