<svg width="46" height="36" viewBox="0 0 46 36" fill="none" xmlns="http://www.w3.org/2000/svg">
<g opacity="0.8">
<path d="M4.14448 12.7502C3.83398 14.4047 3.83398 16.5752 3.83398 19.5002C3.83398 25.1567 3.83398 27.9857 6.08032 29.7422C8.32473 31.5002 11.9396 31.5002 19.1673 31.5002H26.834C34.0617 31.5002 37.6766 31.5002 39.921 29.7422C42.1673 27.9857 42.1673 25.1567 42.1673 19.5002C42.1673 16.5752 42.1673 14.4062 41.8568 12.7502C37.4926 14.9702 34.6962 16.3862 32.1048 17.2577V18.0002C32.1091 18.2985 31.9618 18.586 31.6953 18.7994C31.4288 19.0128 31.0649 19.1345 30.6836 19.1379C30.3024 19.1413 29.935 19.026 29.6624 18.8174C29.3897 18.6088 29.2341 18.324 29.2298 18.0257C25.1468 18.868 20.8545 18.868 16.7715 18.0257C16.7672 18.324 16.6116 18.6088 16.3389 18.8174C16.0663 19.026 15.6989 19.1413 15.3177 19.1379C14.9364 19.1345 14.5725 19.0128 14.306 18.7994C14.0395 18.586 13.8922 18.2985 13.8965 18.0002V17.2577C11.3052 16.3847 8.51065 14.9702 4.14448 12.7502Z" fill="#174D87"/>
<path fill-rule="evenodd" clip-rule="evenodd" d="M20.2809 3.37516H20.2426C20.0241 3.37516 19.8554 3.37516 19.6944 3.38266C18.6986 3.43003 17.7403 3.69763 16.9311 4.15434C16.1219 4.61105 15.495 5.23812 15.1232 5.96266C15.0415 6.13276 14.9648 6.3043 14.8932 6.47716L14.8855 6.49516C14.6883 6.90397 14.3547 7.26396 13.9195 7.53766C13.4825 7.54966 13.0666 7.56316 12.6679 7.58266C9.5169 7.72666 7.51782 8.13166 6.08032 9.25816C5.61267 9.62306 5.22883 10.0483 4.94565 10.5152C5.05682 10.5452 5.16415 10.5842 5.26573 10.6367C9.29073 12.6842 11.8207 13.9667 13.9233 14.7872C13.9919 14.5131 14.1883 14.2688 14.4744 14.1018C14.7604 13.9348 15.1155 13.857 15.4707 13.8836C15.826 13.9102 16.1559 14.0392 16.3963 14.2455C16.6367 14.4519 16.7704 14.7209 16.7715 15.0002V15.6872C20.8348 16.6472 25.1665 16.6472 29.2298 15.6872V15.0002C29.2284 14.7195 29.361 14.4486 29.6017 14.2406C29.8424 14.0326 30.1737 13.9024 30.5307 13.8758C30.8876 13.8491 31.2444 13.9278 31.5311 14.0964C31.8177 14.265 32.0134 14.5114 32.0799 14.7872C34.1806 13.9652 36.7106 12.6842 40.7356 10.6367C40.8355 10.586 40.943 10.5452 41.0557 10.5152C40.7717 10.0486 40.3879 9.62352 39.921 9.25816C38.4835 8.13316 36.4844 7.72816 33.3334 7.58116C32.9558 7.56466 32.561 7.55116 32.1489 7.53916C31.6659 7.23181 31.2928 6.83183 31.066 6.37816L31.0602 6.36466C30.9912 6.20416 30.9395 6.07816 30.8782 5.96116C30.506 5.2369 29.8789 4.61015 29.0698 4.15371C28.2606 3.69728 27.3025 3.42991 26.3069 3.38266C26.125 3.37594 25.9428 3.37344 25.7606 3.37516H20.279H20.2809ZM28.4018 7.22416L28.3922 7.20766L28.3826 7.18966L28.375 7.17166L28.3635 7.14916L28.3443 7.10416L28.3386 7.09216L28.3347 7.08166L28.3309 7.07266C28.2938 6.98132 28.2535 6.89079 28.2102 6.80116C28.0412 6.47179 27.7563 6.18672 27.3885 5.97907C27.0207 5.77143 26.5851 5.64974 26.1325 5.62816C25.9952 5.6244 25.8578 5.6234 25.7204 5.62516H20.2809C20.0068 5.62516 19.9302 5.62516 19.8688 5.62816C19.4162 5.64974 18.9806 5.77143 18.6128 5.97907C18.245 6.18672 17.9601 6.47179 17.7911 6.80116L17.7854 6.81166L17.7701 6.84316C17.7178 6.95733 17.6686 7.07235 17.6225 7.18816L17.6187 7.19716L17.6129 7.20766L17.6091 7.21966L17.5899 7.26466L17.5784 7.28716L17.5707 7.30516L17.5612 7.32316L17.5535 7.33816L17.5516 7.33966C17.5249 7.3941 17.4967 7.44811 17.4672 7.50166L19.1673 7.50016H28.5513C28.4976 7.40947 28.4478 7.31742 28.4018 7.22416Z" fill="#174D87"/>
</g>
</svg>
