<svg width="56" height="56" viewBox="0 0 56 56" fill="none" xmlns="http://www.w3.org/2000/svg">
<path d="M0 12C0 5.37258 5.37258 0 12 0H44C50.6274 0 56 5.37258 56 12V44C56 50.6274 50.6274 56 44 56H12C5.37258 56 0 50.6274 0 44V12Z" fill="#174D87"/>
<g opacity="0.32">
<path d="M28.584 23.7696C28.8506 23.2337 29.0006 22.6295 29.0006 21.9902C29.0006 21.351 28.8506 20.7468 28.584 20.2109C29.1303 19.4705 30.0088 18.9902 30.9996 18.9902C32.6564 18.9902 33.9996 20.3334 33.9996 21.9902C33.9996 23.6471 32.6564 24.9902 30.9996 24.9902C30.0088 24.9902 29.1303 24.51 28.584 23.7696Z" fill="white"/>
<path d="M30.0593 35.756C30.6559 35.9068 31.3115 35.9902 31.9996 35.9902C34.761 35.9902 36.9996 34.6471 36.9996 32.9902C36.9996 31.3334 34.761 29.9902 31.9996 29.9902C31.3106 29.9902 30.6542 30.0738 30.0569 30.2251C31.2609 30.9435 32.0006 31.918 32.0006 32.9912C32.0006 34.0638 31.2618 35.0377 30.0593 35.756Z" fill="white"/>
</g>
<path d="M25.002 25.9902C27.2111 25.9902 29.002 24.1994 29.002 21.9902C29.002 19.7811 27.2111 17.9902 25.002 17.9902C22.7928 17.9902 21.002 19.7811 21.002 21.9902C21.002 24.1994 22.7928 25.9902 25.002 25.9902Z" fill="white"/>
<path d="M25.002 36.9912C28.8679 36.9912 32.002 35.2004 32.002 32.9912C32.002 30.7821 28.8679 28.9912 25.002 28.9912C21.136 28.9912 18.002 30.7821 18.002 32.9912C18.002 35.2004 21.136 36.9912 25.002 36.9912Z" fill="white"/>
</svg>
