<svg xmlns="http://www.w3.org/2000/svg" viewBox="0 0 24 24" id="whatsapp">
  <path d="M20.52 3.48A11.78 11.78 0 0 0 12 0C5.37 0 .04 5.33.04 11.92A11.84 11.84 0 0 0 1.8 18L0 24l6.16-1.75a11.88 11.88 0 0 0 5.84 1.56h.01c6.59 0 11.95-5.33 11.95-11.92 0-3.19-1.25-6.19-3.44-8.41zM12 21.45h-.01a9.5 9.5 0 0 1-4.84-1.33l-.35-.2-3.65 1.04 1.05-3.55-.23-.36a9.45 9.45 0 0 1-1.46-5.03C2.5 6.22 6.73 2 12 2c2.53 0 4.91.98 6.7 2.76a9.38 9.38 0 0 1 2.8 6.67c0 5.22-4.27 9.47-9.5 9.47zm5.47-7.07c-.3-.15-1.76-.87-2.03-.97-.27-.1-.46-.15-.66.15-.19.3-.76.97-.94 1.17-.17.2-.34.23-.64.08-.3-.16-1.23-.45-2.3-1.38-.84-.74-1.38-1.65-1.54-1.93-.16-.29-.02-.44.12-.59.12-.12.3-.32.44-.49.15-.17.2-.29.29-.48.1-.2.05-.37 0-.52-.05-.15-.61-1.49-.84-2.03-.22-.53-.45-.45-.63-.46-.16-.01-.35-.02-.54-.02-.19 0-.5.07-.76.35-.26.29-1 .98-1 2.39s1.03 2.77 1.18 2.96c.15.19 2.04 3.11 4.94 4.36.69.3 1.23.48 1.66.62.7.22 1.34.2 1.84.12.56-.09 1.72-.7 1.95-1.38.23-.68.23-1.25.16-1.37-.07-.12-.27-.19-.57-.35z" fill="#25D366"/>
</svg>
