<?xml version="1.0" encoding="UTF-8"?>
<!DOCTYPE svg PUBLIC "-//W3C//DTD SVG 1.1//EN" "http://www.w3.org/Graphics/SVG/1.1/DTD/svg11.dtd">
<!-- Creator: CorelDRAW Standard 2021 (64-Bit) -->
<svg xmlns="http://www.w3.org/2000/svg" xml:space="preserve" width="707mm" height="1000mm" version="1.1" style="shape-rendering:geometricPrecision; text-rendering:geometricPrecision; image-rendering:optimizeQuality; fill-rule:evenodd; clip-rule:evenodd"
viewBox="0 0 70700 100000"
 xmlns:xlink="http://www.w3.org/1999/xlink"
 xmlns:xodm="http://www.corel.com/coreldraw/odm/2003">
 <defs>
  <style type="text/css">
   <![CDATA[
    .fil7 {fill:black;fill-rule:nonzero}
    .fil5 {fill:#00297C;fill-rule:nonzero}
    .fil4 {fill:#002F9B;fill-rule:nonzero}
    .fil6 {fill:#301D0A;fill-rule:nonzero}
    .fil9 {fill:#F2C300;fill-rule:nonzero}
    .fil2 {fill:url(#id0)}
    .fil0 {fill:url(#id1)}
    .fil3 {fill:url(#id2)}
    .fil1 {fill:url(#id3)}
    .fil8 {fill:url(#id4)}
   ]]>
  </style>
  <linearGradient id="id0" gradientUnits="userSpaceOnUse" x1="36641.09" y1="13908.14" x2="36316.63" y2="64036.42">
   <stop offset="0" style="stop-opacity:1; stop-color:#D49400"/>
   <stop offset="1" style="stop-opacity:1; stop-color:#6A3800"/>
  </linearGradient>
  <linearGradient id="id1" gradientUnits="userSpaceOnUse" x1="5479.1" y1="26608.26" x2="101586.55" y2="80929.86">
   <stop offset="0" style="stop-opacity:1; stop-color:#FBC95B"/>
   <stop offset="0.419608" style="stop-opacity:1; stop-color:#914804"/>
   <stop offset="0.690196" style="stop-opacity:1; stop-color:#FBC95B"/>
   <stop offset="0.85098" style="stop-opacity:1; stop-color:#FFC10E"/>
   <stop offset="1" style="stop-opacity:1; stop-color:#A04B26"/>
  </linearGradient>
  <linearGradient id="id2" gradientUnits="userSpaceOnUse" x1="26303.88" y1="35384.57" x2="52840.18" y2="58129.98">
   <stop offset="0" style="stop-opacity:1; stop-color:#FBC95B"/>
   <stop offset="0.121569" style="stop-opacity:1; stop-color:#FFF8AD"/>
   <stop offset="0.419608" style="stop-opacity:1; stop-color:#914804"/>
   <stop offset="0.690196" style="stop-opacity:1; stop-color:#FBC95B"/>
   <stop offset="0.85098" style="stop-opacity:1; stop-color:#FFC10E"/>
   <stop offset="1" style="stop-opacity:1; stop-color:#A04B26"/>
  </linearGradient>
  <linearGradient id="id3" gradientUnits="userSpaceOnUse" xlink:href="#id2" x1="21002.28" y1="33899.45" x2="81465.29" y2="73879.89">
  </linearGradient>
  <linearGradient id="id4" gradientUnits="userSpaceOnUse" x1="19205.37" y1="43147.33" x2="48546.16" y2="42937.75">
   <stop offset="0" style="stop-opacity:1; stop-color:#7B8992"/>
   <stop offset="0.45098" style="stop-opacity:1; stop-color:white"/>
   <stop offset="0.588235" style="stop-opacity:1; stop-color:#C7D3D9"/>
   <stop offset="0.701961" style="stop-opacity:1; stop-color:white"/>
   <stop offset="0.839216" style="stop-opacity:1; stop-color:#CEDAE1"/>
   <stop offset="1" style="stop-opacity:1; stop-color:#98ABB6"/>
  </linearGradient>
 </defs>
 <g id="Layer_x0020_1">
  <metadata id="CorelCorpID_0Corel-Layer"/>
  <path class="fil0" d="M66461.51 45602.52l0.29 0c823.38,-823.81 823.38,-2159.38 0,-2983.19l-292.8 -292.37c-704.42,-704.56 -819.73,-1805.7 -277.18,-2641.19l225.51 -346.81c634.64,-976.79 357.61,-2283.3 -619.18,-2917.95l0 -0.15c-848.92,-551.59 -1186.24,-1628.51 -803.52,-2565.73 440.22,-1078.67 -77.51,-2309.87 -1156.04,-2750.09l-187.55 -76.49c-929.79,-379.65 -1463.43,-1362.27 -1274.7,-2348.84l37.95 -198.95c218.8,-1144.35 -531.6,-2249.14 -1675.95,-2467.79 -994.45,-190.05 -1713.6,-1059.55 -1713.6,-2071.8l0 -0.15c0,-1164.93 -944.39,-2109.32 -2109.17,-2109.32l-413.96 0c-996.19,0 -1856.5,-696.97 -2063.18,-1671.56l-85.97 -404.61c-242.01,-1139.69 -1361.84,-1867.45 -2501.37,-1625.6 -990.5,210.19 -1990.21,-312.79 -2382.56,-1246.08 -451.31,-1074 -1687.92,-1578.59 -2762.06,-1127.13l-186.54 78.38c-925.99,389.29 -1997.8,71.53 -2562.23,-759.44l-113.71 -167.57c-654.65,-963.64 -1966.71,-1214.41 -2930.21,-559.91l0 0.15c-837.53,568.67 -1960.87,462.4 -2676.53,-253.54 -823.81,-823.67 -2159.37,-823.67 -2983.19,0l-292.8 292.51c-704.41,704.56 -1805.42,820.01 -2640.77,277.18l-346.94 -225.37c-976.93,-634.94 -2283.45,-357.61 -2918.25,619.18 -551.44,848.77 -1628.36,1186.1 -2565.59,803.53l-0.15 0c-1078.67,-440.08 -2309.72,77.36 -2749.94,1155.88l-76.63 187.7c-379.51,929.94 -1362.13,1463.29 -2348.84,1274.7l-198.95 -37.95c-1144.2,-218.66 -2249.14,531.74 -2467.65,1675.95 -190.05,994.45 -1059.69,1713.6 -2071.94,1713.6 -1164.94,0 -2109.32,944.39 -2109.32,2109.32l0 413.66c0,996.2 -696.97,1856.65 -1671.57,2063.48l-404.76 85.83c-1139.64,241.86 -1867.34,1361.68 -1625.54,2501.37 210.12,990.36 -312.85,1990.2 -1246.05,2382.41l-0.05 0c-1073.97,451.46 -1578.62,1688.06 -1127.23,2761.91l78.51 186.83c389.26,925.99 71.51,1997.94 -759.45,2562.23l-167.47 113.86c-963.7,654.64 -1214.4,1966.26 -559.9,2930.2l0.06 0c568.75,837.25 462.35,1960.73 -253.44,2676.53 -823.79,823.81 -823.79,2159.38 -0.06,2983.19l292.55 292.37c704.45,704.56 820.01,1805.71 277.16,2641.2l-225.44 346.81c-634.82,976.79 -357.55,2283.16 619.26,2917.94 848.81,551.89 1186.06,1628.66 803.54,2565.89 -440.24,1078.67 77.31,2309.87 1155.84,2749.95l187.7 76.92c929.94,379.21 1463.28,1362.12 1274.78,2348.55l-38.02 199.23c-218.61,1144.06 531.73,2248.85 1675.97,2467.66l0.15 0c994.3,189.9 1713.46,1059.54 1713.46,2071.8 0,1164.93 944.38,2109.46 2109.32,2109.46l413.65 0c996.2,0 1856.51,696.82 2063.34,1671.45l85.83 404.69c241.85,1139.5 1361.83,1867.49 2501.37,1625.51 990.35,-210.11 1990.2,312.96 2382.4,1245.93l0.15 0.33c451.32,1073.69 1687.91,1578.4 2761.92,1126.88l186.68 -78.28c925.99,-389.42 1998.09,-71.61 2562.24,759.24l114.14 167.63c654.2,963.87 1966.27,1214.39 2929.77,560.07 837.54,-568.96 1960.87,-462.52 2676.96,253.33 823.82,823.78 2159.38,823.78 2983.19,0l292.37 -292.44c704.42,-704.5 1805.71,-820.13 2640.76,-277.16l347.25 225.45c976.79,634.71 2283.16,357.61 2917.95,-619.44 551.45,-848.86 1628.51,-1185.94 2565.88,-803.59 1078.52,440.45 2309.72,-77.09 2749.95,-1155.67l76.48 -187.53c379.65,-930.23 1362.13,-1463.39 2348.99,-1274.96l198.8 37.92c1144.35,218.72 2249,-531.68 2467.66,-1676.01 190.03,-994.2 1059.68,-1713.35 2071.94,-1713.35l0.29 0c1164.78,0 2109.17,-944.53 2109.17,-2109.46l0 -413.51c0,-996.35 697.11,-1856.81 1671.42,-2063.63l404.6 -85.97c1139.84,-241.72 1867.46,-1361.55 1625.6,-2500.94l0 -0.28c-210.19,-990.22 312.94,-1990.21 1246.23,-2382.41 1074,-451.47 1578.74,-1687.92 1127.28,-2761.92l-78.68 -186.69c-389.14,-926.14 -71.23,-1998.08 759.44,-2562.53l167.72 -113.7c963.5,-654.64 1214.41,-1966.27 559.76,-2930.21 -568.66,-837.25 -462.4,-1960.73 253.4,-2676.53z"/>
  <path class="fil1" d="M62787.33 44110.93c0,14548.14 -11793.53,26341.69 -26341.67,26341.69 -14548.28,0 -26341.93,-11793.55 -26341.93,-26341.69 0,-14548.14 11793.65,-26341.67 26341.93,-26341.67 14548.14,0 26341.67,11793.53 26341.67,26341.67z"/>
  <path class="fil2" d="M36445.66 18341.87c-14209.36,0 -25769.3,11559.84 -25769.3,25769.06 0,14209.21 11559.94,25769.08 25769.3,25769.08 14208.77,0 25769.06,-11559.87 25769.06,-25769.08 0,-14209.22 -11560.29,-25769.06 -25769.06,-25769.06zm0 52683.38c-14840.8,0 -26914.55,-12073.67 -26914.55,-26914.32 0,-14840.65 12073.75,-26914.28 26914.55,-26914.28 14840.51,0 26914.28,12073.63 26914.28,26914.28 0,14840.65 -12073.77,26914.32 -26914.28,26914.32z"/>
  <path class="fil3" d="M54554.72 44110.93c0,9979.93 -8090.15,18069.94 -18069.95,18069.94 -9979.63,0 -18069.93,-8090.01 -18069.93,-18069.94 0,-9979.65 8090.3,-18069.94 18069.93,-18069.94 9979.8,0 18069.95,8090.29 18069.95,18069.94z"/>
  <path class="fil4" d="M51682.9 36444.66c-214.72,-433.37 -445.92,-860.9 -700.48,-1278.79 -582.98,-956.2 -1269.74,-1868.47 -2061.44,-2720.6 -65.39,-70.36 -134,-135.75 -199.97,-204.64 -230.47,-239.83 -466.21,-470.88 -707.33,-694.21 -737.85,-684.12 -1520.94,-1294.98 -2343.15,-1823.8 -233.69,-150.2 -470.44,-294.26 -709.96,-431.91 -693.48,-398.77 -1410.59,-742.66 -2143.47,-1035.46 -235.44,-94 -473.22,-181.73 -712.16,-264.78 -749.08,-260.54 -1513.49,-466.35 -2286.8,-618.73 -237.05,-46.71 -475.11,-87.58 -713.77,-124.08 -612.31,-93.84 -1229,-156.32 -1847.16,-182.74 -238.06,-10.07 -476.27,-13.72 -714.92,-13.87 -720.04,-0.29 -1440.22,46.42 -2156.31,137.8 -239.53,30.5 -478.18,65.68 -716.39,106.55 -775.8,132.82 -1544.44,319.36 -2300.09,561.52 -240.4,77.06 -479.93,158.8 -717.55,247.11 -822.65,305.07 -1625.88,679.02 -2403.43,1117.64 -242.88,136.77 -482.7,280.11 -719.74,430.01 -756.24,477.59 -1482.7,1022.03 -2173.25,1632.3 -106.7,94.3 -215.29,185.23 -320.24,282.73 -138.09,128.31 -269.31,261.28 -402.13,393.08 -893,885.86 -1671.28,1845.85 -2325.78,2865.26 -263.6,410.45 -504.3,831.4 -728.94,1258.78 -2512.46,4779.71 -2592.15,10533 -171.07,15394 215.01,431.61 446.36,857.39 700.92,1273.53 580.05,948.76 1262.29,1854.61 2048.59,2701.05 69.48,74.59 142.31,144.35 212.82,217.77 230.33,239.24 466.35,469.85 707.19,692.89 675.52,624.87 1389.71,1185.65 2136.31,1680.47 233.69,154.87 470.3,303.17 710.11,445.48 766.89,454.82 1561.37,846.73 2378.03,1170.34 235.59,93.26 473.21,180.11 712.16,262.44 749.51,258.5 1513.64,461.97 2286.8,612.45 237.19,46.13 475.11,86.27 713.76,122.03 713.61,107.43 1432.48,169.47 2152.81,185.37 238.36,5.12 476.72,6.72 714.93,1.75 618.59,-12.11 1236.16,-60.13 1850.96,-139.97 239.23,-31.24 477.88,-67.29 716.09,-108.6 776.09,-135.02 1544.58,-323.75 2300.09,-568.09 240.69,-77.65 480.21,-160.27 717.99,-249.3 738.72,-276.31 1462.69,-604.44 2165.65,-988.76 242.59,-132.39 482.41,-270.9 719.75,-416.13 832.14,-509.71 1628.36,-1102.32 2382.99,-1770.68 102.18,-90.5 206.54,-177.64 307.11,-271.05 142.6,-132.69 278.35,-269.74 415.41,-405.79 893.59,-888.62 1671.71,-1851.68 2325.78,-2873.72 263.46,-411.62 504.45,-833.73 728.93,-1262.43 2495.54,-4766.13 2574.79,-10497.08 170.35,-15344.22z"/>
  <path class="fil5" d="M36469.75 27782.33c-4133.53,0 -8053.95,1537.43 -11098.75,4366.2 -3195.42,2968.59 -5043.31,7003.74 -5203.58,11362.2 -160.41,4358.75 1386.21,8518.55 4354.96,11713.97 2968.59,3195.43 7003.74,5043.46 11362.2,5203.73 4358.46,162.02 8518.55,-1386.07 11714.12,-4354.81l389.58 419.35 -389.58 -419.35c3195.28,-2968.74 5043.17,-7003.74 5203.58,-11362.49 160.27,-4358.46 -1386.35,-8518.7 -4355.1,-11713.98 -2968.45,-3195.42 -7003.89,-5043.31 -11362.2,-5203.58 -205.66,-7.45 -410.59,-11.24 -615.23,-11.24zm56.33 33400.44c-216.02,0 -431.9,-4.38 -648.8,-12.26 -4597.4,-168.88 -8853.53,-2118.07 -11984.74,-5488.5 -3131.35,-3370.29 -4762.49,-7758.38 -4593.46,-12355.78 169.03,-4597.25 2118.22,-8853.39 5488.65,-11984.59 3370.14,-3131.2 7758.96,-4762.48 12355.63,-4593.61 4597.25,169.18 8853.54,2118.22 11984.74,5488.65 3131.2,3370.3 4762.48,7758.38 4593.31,12355.78 -168.88,4597.25 -2118.36,8853.53 -5488.35,11984.74 -3211.34,2983.34 -7347.35,4605.57 -11706.98,4605.57z"/>
  <path class="fil6" d="M14911.58 42916.07l38.68 -1006.12 537 20.58c218.21,8.46 407.23,58.68 567.06,150.78 159.69,92.11 281.57,217.48 365.35,376 83.93,158.38 121.88,342.28 113.85,551.16 -8.03,210.19 -57.36,392.5 -147.86,546.04 -90.64,153.85 -214.42,271.35 -371.48,352.65 -157.05,81.45 -338.05,118.09 -543.12,110.06l-856.37 -32.99c-218.21,-8.17 -406.94,-58.68 -565.9,-151.36 -159.1,-92.98 -280.68,-218.07 -364.61,-376 -83.79,-157.79 -121.73,-341.41 -113.71,-550.29 6.57,-172.81 48.61,-328.85 125.82,-467.95 77.36,-138.96 182.45,-254.27 315.14,-345.78 132.82,-91.38 286.52,-150.49 460.66,-177.35l-19.71 515.1c-123.63,28.76 -220.4,90.5 -290.03,185.96 -69.62,95.17 -106.55,198.36 -110.78,308.71 -6.28,164.94 43.78,299.08 150.48,402.57 106.7,103.34 250.48,158.51 431.47,165.52l856.51 32.7c163.63,6.41 296.74,-39.41 399.06,-137.35 102.47,-98.24 156.91,-230.92 163.34,-398.93 6.27,-164.79 -41.16,-298.79 -142.6,-402.27 -101.16,-103.05 -245.81,-158.37 -433.52,-165.37l-87.72 -3.37 -19.85 515.11 -457.16 -17.81z"/>
  <path class="fil6" d="M16780.79 40555.85c-46.57,290.61 -162.32,503.43 -347.11,638.3 -184.79,135.01 -423.88,178.95 -717.12,131.94l-230.91 -37.06c-305.06,-48.9 -528.82,-163.63 -671.13,-344.19 -142.32,-180.7 -191.07,-411.17 -146.26,-691.28 42.33,-264.34 172.09,-453.36 389.28,-566.77 217.2,-113.56 501.97,-142.32 854.32,-85.68l134.29 21.3 -222.89 1391.04 -345.19 -55.47 152.67 -952.85 -22.04 -1.46c-144.07,-9.48 -261.42,12.85 -351.63,67 -90.35,54.44 -144.65,138.22 -162.74,251.2 -22.48,141 4.37,257.48 80.57,349.88 76.19,92.39 195.88,151.65 359.07,178.07l260.25 41.45c155.15,24.82 281.27,1.9 378.33,-68.74 96.93,-70.94 157.64,-182.61 182.16,-334.99 12.41,-77.65 9.93,-156.62 -7.58,-237.04 -17.52,-80.43 -47.73,-155.16 -90.64,-223.91l337.31 -261.57c80.72,119.4 137.35,248.14 169.9,386.37 32.41,137.94 38.1,272.81 17.09,404.46z"/>
  <path class="fil6" d="M17318.95 38071.85l-1210.76 -336.74c-120.57,-33.27 -222.31,-27.29 -304.92,18.98 -82.61,46.27 -140.41,128.16 -173.11,246.24 -31.53,112.83 -24.97,208.87 19.56,287.55 44.37,78.53 121.87,133.4 232.22,164.35l-425.19 -74.73c-104.22,-92.69 -176.33,-193.7 -216.46,-303.17 -40.14,-109.18 -42.47,-227.26 -7.16,-354.25 59.7,-214.42 176.62,-360.23 350.9,-437.74 174.29,-77.07 390.89,-79.85 650.12,-7.59l1212.66 337.03 -127.86 460.07zm-329.3 1183.91l-1997.94 -555.53 127.87 -460.08 1998.09 555.54 -128.02 460.07z"/>
  <path class="fil6" d="M17987.6 36277.38c-110.2,272.66 -270.47,454.38 -480.8,544.59 -210.33,90.35 -453.07,79.84 -728.49,-31.38l-216.76 -87.58c-286.53,-115.6 -478.91,-277.47 -577.43,-485.33 -98.53,-207.85 -94.59,-443.29 11.67,-706.46 100.28,-248.14 269.01,-403.44 506.05,-465.62 237.06,-62.18 521.09,-26.42 851.99,107.13l125.97 50.94 -527.66 1306.09 -324.18 -131.08 361.4 -894.76 -21.01 -6.41c-138.37,-41.46 -257.63,-45.84 -357.76,-13 -100.27,32.7 -171.8,102.18 -214.71,208.44 -53.28,132.09 -53.13,251.79 0.44,358.92 53.71,107.14 157.2,191.65 310.31,253.54l244.49 98.82c145.67,58.82 273.69,64.66 384.03,17.37 110.35,-47.44 194.57,-142.76 252.37,-285.94 29.49,-72.84 44.66,-150.35 45.54,-232.67 0.87,-82.18 -11.82,-161.73 -38.39,-238.5l387.24 -179.69c51.96,134.43 78.38,272.67 79.26,414.54 0.87,141.73 -23.65,274.41 -73.57,398.04z"/>
  <path class="fil6" d="M17666.93 33315.35c-44.96,10.95 -86.27,33.28 -124.22,66.71 -37.8,33.57 -71.08,77.36 -99.55,131.65 -55.75,106.12 -67.29,204.93 -34.88,296.46 32.4,91.51 104.65,166.68 216.61,225.51l-435.12 -181.14c-80.57,-110.06 -129.18,-223.91 -145.52,-341.56 -16.49,-117.64 2.18,-227.84 56.05,-330.45 42.18,-80.14 92.39,-146.41 150.48,-198.52 58.24,-52.1 123.64,-90.06 196.33,-113.56l219.82 444.9zm827.02 1738.42l-1836.07 -964.08 231.21 -440.37 1836.07 964.08 -231.21 440.37z"/>
  <path class="fil6" d="M19685.59 33019.48c-130.34,197.93 -272.22,317.91 -425.62,359.66 -153.41,41.75 -320.97,2.92 -502.26,-116.48 -172.38,-113.41 -268.28,-248.28 -287.55,-404.47 -19.12,-156.17 37.08,-334.25 168.88,-534.66l305.36 -463.87 325.78 180.85 -319.51 485.76c-51.96,78.97 -74.3,149.18 -67,210.63 7.44,61.45 45.69,114.88 114.58,160.27 72.4,47.58 142.9,57.36 211.65,29.19 68.6,-28.03 137.06,-93.85 205.08,-197.34 82.9,-125.68 130.78,-228.87 143.92,-309.59 13.28,-80.57 -9.63,-140.27 -68.6,-179.1l270.03 127.57c44.37,56.2 68.6,120.43 72.83,192.68 4.38,72.1 -6.56,147.42 -32.69,225.95 -25.99,78.38 -64.37,156.03 -114.88,232.95zm273.68 -470.44l-1098.22 -722.8c-96.78,-63.64 -190.77,-84.37 -281.85,-62.18 -91.08,22.19 -171.07,85.53 -239.97,190.04 -43.79,66.85 -76.78,139.25 -98.67,217.34 -21.9,78.09 -30.21,155.45 -24.96,232.22l-398.18 118.23c-34.31,-119.83 -37.23,-249.3 -8.76,-388.4 28.6,-138.95 87.13,-275.87 175.73,-410.45 146.41,-222.59 316.01,-357.76 508.54,-405.63 192.52,-47.87 391.18,-4.53 595.82,130.2l1113.11 732.59 -242.59 368.84z"/>
  <path class="fil6" d="M18551.75 29570.96l1819.29 1399.64c39.11,30.22 77.36,43.64 115.02,40.58 37.51,-2.92 70.64,-22.92 99.1,-59.85l86.42 -112.38 362.57 278.93 -158.23 205.81c-97.5,126.69 -211.2,195.88 -341.26,207.56 -130.05,11.82 -264.19,-35.48 -402.42,-141.88l-1871.68 -1440.07 291.19 -378.34z"/>
  <path class="fil6" d="M22285.05 29721.15l-312.65 -333.95 494.52 -462.86c143.77,-134.72 221.42,-275.43 232.96,-421.98 11.38,-146.69 -44.37,-285.64 -167.28,-416.87l-584.28 -624.28c-123.78,-132.24 -258.95,-197.19 -405.64,-195.01 -146.55,2.2 -291.78,70.65 -435.7,205.38l-494.52 462.84 -312.66 -333.96 485.78 -454.67c261.56,-244.79 525.9,-367.83 793.01,-368.85 267.26,-1.03 513.64,118.95 739.45,360.09l562.54 600.92c145.67,155.61 240.25,319.52 284.04,492.04 43.79,172.53 33.43,346.96 -31.38,523.44 -64.66,176.46 -185.95,347.97 -364.03,514.51l-484.16 453.21zm-201.28 188.45l-1985.25 -2120.7 348.71 -326.38 1985.1 2120.85 -348.56 326.23z"/>
  <path class="fil6" d="M24551.28 27812.39c-191.51,139.84 -366.37,202.31 -524.74,187.57 -158.37,-14.59 -301.42,-109.77 -429.43,-285.06 -121.73,-166.7 -164.2,-326.67 -127.57,-479.64 36.78,-152.97 151.94,-300.1 345.64,-441.39l448.55 -327.54 241.71 283.75 -469.56 342.72c-76.48,55.76 -121.88,113.7 -136.48,173.84 -14.74,60.14 2.33,123.63 51.09,190.33 50.94,69.92 113.56,103.79 187.85,101.45 74.15,-2.19 161.29,-39.85 261.43,-112.98 121.58,-88.59 202.59,-168.43 243.32,-239.22 40.42,-70.94 39.99,-134.87 -1.62,-191.95l208.3 214.13c21.75,68.31 21.9,136.91 0.73,206.1 -21.31,69.04 -57.95,135.75 -109.91,200.11 -51.96,64.23 -115.17,123.63 -189.31,177.78zm421.24 -344.61l-775.06 -1061.73c-68.31,-93.71 -149.18,-146.11 -242.16,-157.21 -93.11,-11.24 -190.33,20.14 -291.34,93.86 -64.51,47.14 -120.71,103.48 -168.58,168.87 -47.88,65.39 -82.76,135.02 -104.81,208.88l-414.53 -29.05c9.92,-124.21 52.7,-246.53 128.15,-366.65 75.47,-120.28 178.23,-228 308.43,-323.03 215.14,-157.05 421.25,-224.19 618.44,-201.57 197.05,22.77 367.97,133.12 512.34,330.9l785.71 1076.33 -356.59 260.4z"/>
  <path class="fil6" d="M24838.82 25562.09l-215.15 -357.91 835.5 -502.26 215.15 357.76 -835.5 502.41zm1474.95 1057.2c-151.79,91.38 -286.23,117.21 -403.44,77.22 -117.2,-39.85 -221.42,-135.6 -312.79,-287.55l-1101.58 -1831.83 409.12 -246.1 1067.73 1775.5c25.4,42.18 53.86,70.21 85.38,83.78 31.53,13.72 63.8,10.66 96.93,-9.34l142.16 -85.39 235.73 392.05 -219.24 131.66z"/>
  <path class="fil6" d="M27549.07 25973.12c-213.26,103.78 -396.44,134.29 -549.71,91.66 -153.26,-42.47 -277.18,-161.28 -372.19,-356.58 -90.21,-185.67 -103.79,-350.61 -40.44,-494.67 63.34,-144.07 202.74,-268.43 418.33,-373.23l499.63 -242.74 187.56 321.99 -522.99 254.13c-84.95,41.3 -140.12,90.35 -165.08,146.98 -25.1,56.64 -19.56,122.03 16.5,196.17 37.95,77.95 93.56,122.33 166.98,133.27 73.41,10.95 165.96,-10.66 277.19,-64.66 135.45,-65.83 229.45,-130.06 282,-192.52 52.54,-62.63 63.34,-125.68 32.4,-189.17l166.98 247.7c9.49,70.93 -2.48,138.52 -35.76,202.88 -32.99,64.23 -81.01,123.49 -143.78,177.49 -62.32,54.01 -135.01,101.16 -217.62,141.3zm475.54 -264.34l-574.51 -1182.45c-50.65,-104.21 -120.85,-170.04 -210.48,-197.64 -89.62,-27.43 -190.77,-13.86 -303.31,40.88 -71.96,34.88 -137.21,80.28 -195.88,136.33 -58.83,55.9 -105.53,118.23 -140.13,186.97l-402.71 -102.02c31.68,-120.57 95.31,-233.26 190.92,-338.35 95.61,-104.8 215.88,-192.52 360.82,-263.02 239.52,-116.48 454.39,-146.11 644.43,-88.75 189.9,57.22 338.34,196.03 445.48,416.43l582.69 1198.51 -397.32 193.11z"/>
  <path class="fil6" d="M29953.51 23738.86l-125.38 -439.94 893.29 -254.7c111.52,-31.82 190.49,-95.6 237.34,-191.36 46.71,-95.6 52.84,-205.08 17.66,-327.97 -36.05,-126.85 -99.11,-218.37 -188.44,-274.56 -89.33,-56.2 -190.47,-68.31 -303.02,-36.2l-893.58 254.71 -125.38 -439.94 880.01 -250.91c172.82,-49.33 333.38,-56.64 481.83,-22.04 148.29,34.59 276.74,105.68 384.75,213.4 108.3,107.57 187.27,247.84 236.46,420.81 49.04,171.65 55.76,331.63 20.59,480.22 -35.18,148.59 -107.14,276.3 -215.74,383.44 -108.6,107.14 -248.72,185.23 -420.67,234.13l-879.72 250.91zm87.87 1146.54l-796.23 -2793.59 459.06 -130.92 796.23 2793.73 -459.06 130.78z"/>
  <path class="fil6" d="M33235.2 22551.89c-36.34,-28.75 -79.25,-47.88 -128.74,-57.37 -49.92,-9.34 -104.94,-8.76 -165.23,1.9 -118.08,21.02 -203.18,72.26 -255.72,153.99 -52.26,81.6 -67.59,184.79 -45.54,309.3l-123.34 -454.83c37.66,-131.22 97.94,-239.22 180.84,-324.32 83.2,-85.1 181.73,-137.79 295.72,-157.94 89.04,-15.91 172.24,-16.64 249.02,-2.62 76.77,14.16 146.83,42.62 209.89,85.54l-216.9 446.35zm-868.04 1718.27l-362.28 -2041.88 490 -86.84 362.28 2041.87 -490 86.85z"/>
  <path class="fil6" d="M34831.31 23497.14c126.11,-9.92 220.7,-56.05 283.6,-138.52 63.06,-82.46 89.04,-192.67 78.39,-330.89l-27.01 -342.57c-10.94,-138.09 -53.71,-242.31 -128.74,-312.52 -74.87,-70.2 -175.59,-100.42 -301.55,-90.49 -124.81,9.78 -219.39,55.32 -283.03,136.47 -63.93,81.16 -90.2,190.78 -79.55,328.86l27 342.57c10.96,138.08 54.15,242.89 129.91,314.41 75.9,71.67 175.89,102.47 300.98,92.68zm35.91 455.99c-277.77,21.9 -498.62,-39.99 -662.97,-185.37 -164.5,-145.38 -257.91,-360.82 -280.1,-646.33l-26.71 -336.58c-21.9,-282.73 36.78,-507.96 176.61,-675.23 139.69,-167.27 348.27,-261.86 626.19,-283.6 277.32,-21.75 498.17,38.96 662.52,182.44 164.2,143.35 257.18,356.59 279.52,639.32l27 342.58c22.33,284.19 -36.48,510.29 -176.18,678.29 -139.83,167.85 -348.56,262.73 -625.88,284.48z"/>
  <path class="fil6" d="M36844.57 23875.19c-177.19,-2.04 -305.06,-50.65 -384.02,-146.11 -78.97,-95.46 -117.51,-231.79 -115.31,-408.84l23.35 -2137.63 477.45 5.26 -22.62 2071.65c-0.59,49.33 8.9,88.01 28.75,116.19 19.55,28.17 48.6,42.47 87.13,42.91l166.12 1.9 -5.12 457.44 -255.73 -2.77zm-700.91 -1674.05l4.68 -417.6 974.88 10.8 -4.67 417.45 -974.89 -10.65z"/>
  <path class="fil6" d="M38489.29 23997.8c-292.94,-29.34 -512.33,-132.25 -658,-308.71 -145.67,-176.48 -203.77,-412.5 -173.99,-708.07l23.21 -232.67c30.65,-307.4 131.8,-537.58 303.75,-690.4 171.94,-152.83 398.91,-215.15 681.21,-186.98 266.52,26.71 462.84,144.94 588.81,354.98 126.41,210.19 171.95,492.77 136.47,847.91l-13.42 135.15 -1401.54 -139.98 34.45 -347.97 960.29 96.04 0.29 -22.04c0.88,-144.5 -28.17,-260.1 -87.87,-347.24 -59.55,-86.85 -146.54,-136.04 -260.25,-147.43 -142.02,-14.16 -256.75,19.57 -344.47,101.15 -87.73,81.6 -139.83,204.5 -156.33,368.85l-26.27 262.44c-15.63,156.48 14.89,280.84 91.08,373.53 76.48,92.68 191.5,146.69 345.49,162.02 78.24,7.73 156.91,0.58 236.02,-21.61 79.26,-22.18 151.81,-56.78 218.22,-103.78l281.12 321.27c-114.43,87.72 -239.81,151.8 -375.71,192.37 -135.74,40.73 -270.17,54.3 -402.56,41.17z"/>
  <path class="fil6" d="M40635.39 24339.06c-284.05,-59.41 -488.39,-184.93 -612.32,-376.73 -123.92,-191.79 -155.74,-432.49 -95.17,-721.94l57.51 -275.72c59.7,-286.96 184.21,-492.62 373.52,-617.13 189.31,-124.36 426.8,-156.91 712.15,-97.36 163.05,34.01 304.05,92.83 423.73,176.18 119.26,83.35 206.98,185.37 263.61,306.09l-379.06 231.06c-40.29,-66.86 -93.27,-122.91 -158.67,-167.72 -65.53,-44.95 -137.93,-75.75 -217.48,-92.39 -144.65,-30.22 -265.21,-13.73 -361.26,49.19 -96.19,62.91 -159.1,166.11 -189.17,309.59l-57.36 275.72c-30.94,147.28 -15.03,269.59 47.58,367.1 62.77,97.5 166.4,161.28 311.2,191.5 79.55,16.49 158.81,16.06 237.04,-1.6 78.67,-17.67 150.2,-51.09 214.71,-100.14l250.91 382.87c-99.4,85.38 -220.84,142.16 -364.03,170.04 -143.19,27.88 -295.87,25.11 -457.44,-8.61z"/>
  <path class="fil6" d="M42120.27 22960.44l119.98 -399.94 933.87 279.81 -119.84 400.08 -934.01 -279.95zm210.77 1802.49c-169.76,-50.79 -279.23,-132.97 -328.85,-246.52 -49.2,-113.56 -48.61,-255.15 2.18,-424.76l613.92 -2047.86 457.31 137.2 -594.95 1984.52c-14.01,47.29 -15.62,86.99 -4.53,119.69 11.24,32.4 35.18,54.3 72.11,65.39l159.1 47.59 -131.52 438.17 -244.77 -73.42z"/>
  <path class="fil6" d="M43919.26 22723.25l164.94 -448.25 446.21 164.06 -164.79 448.25 -446.36 -164.06zm-837.24 2278.34l715.21 -1946.42 446.65 163.92 -715.51 1946.56 -446.35 -164.06z"/>
  <path class="fil6" d="M44989.9 25321.39c114.73,53.28 219.67,59.55 315.13,18.68 95.32,-40.86 172.25,-124.06 230.63,-249.74l144.94 -311.63c58.53,-125.53 72.25,-237.34 41.31,-335.43 -30.95,-97.94 -103.64,-173.69 -218.37,-226.96 -113.56,-52.84 -217.77,-59.56 -313.23,-20.15 -95.46,39.27 -172.53,121.88 -230.62,247.41l-145.09 311.63c-58.39,125.53 -72.1,238.21 -41.3,337.76 30.93,99.55 103.19,175.59 216.6,228.43zm-192.96 414.83c-252.37,-117.35 -414.54,-279.67 -486.06,-487.08 -71.96,-207.41 -47.44,-440.95 73.42,-700.63l142.16 -306.22c119.55,-257.19 281.42,-424.46 485.48,-501.38 204.06,-77.07 432.2,-56.93 684.57,60.42 252.37,117.36 414.82,278.79 487.66,484.45 72.4,205.66 48.9,437.02 -70.64,694.2l-144.65 311.78c-120.28,258.35 -282.44,426.5 -486.79,504.16 -204.35,77.5 -432.49,57.66 -685.15,-59.7z"/>
  <path class="fil6" d="M47119.5 26971.36l655.37 -1072.24c65.11,-106.85 86.85,-206.4 65.11,-298.5 -21.75,-92.1 -84.66,-170.19 -189.32,-233.98 -100.13,-61.16 -193.98,-81.15 -282.15,-59.85 -87.71,21.17 -161.43,80.72 -221.13,178.37l188.15 -388.41c117.5,-74.87 234.26,-116.62 350.31,-125.38 116.18,-8.46 230.63,21.46 343.16,90.21 189.6,115.89 297.91,268.28 324.47,457.15 26.72,188.74 -29.91,397.9 -170.33,627.5l-656.11 1074.15 -407.53 -249.02zm-1048.31 -640.48l1081.15 -1769.66 407.39 248.86 -1081 1769.66 -407.54 -248.86z"/>
  <path class="fil6" d="M50112.77 29296.84l343.6 -1418.47 431.61 260.26 -346.37 1539.03 -428.84 -380.82zm-240.4 -1817.09l304.03 -341.99 748.22 664.86c76.77,68.02 162.16,95.31 256.01,81.74 94,-13.57 181.44,-64.66 261.86,-153.41 78.97,-88.6 119.11,-180.7 121.15,-276.01 1.75,-95.46 -35.47,-177.21 -112.25,-245.37l-748.2 -664.72 303.75 -342.13 758.86 674.2c123.34,109.62 207.71,231.79 252.95,366.36 45.25,134.59 50.8,272.52 17.52,413.67 -33.71,141.15 -107.72,275.87 -221.87,404.31 -113.99,128.45 -239.37,217.49 -376.14,267.12 -136.77,49.62 -274.42,60.28 -413.66,32.25 -138.81,-28.17 -270.03,-97.06 -393.37,-206.68l-758.86 -674.2zm-944.09 764.85l1930.8 -2173.25 357.02 317.18 -1930.8 2173.1 -357.02 -317.03z"/>
  <path class="fil6" d="M51350.68 30629.92c-195.73,-219.97 -287.54,-444.16 -275.28,-672.6 12.55,-228.57 129.47,-441.53 351.47,-639.02l174.43 -155.45c230.91,-205.51 461.24,-306.23 691.28,-302.29 229.75,3.94 439.21,111.8 627.79,323.74 177.93,199.83 242.44,419.94 192.96,659.91 -49.19,240.1 -207.12,478.75 -473.8,716.09l-101.29 90.35 -936.64 -1051.96 261.26 -232.51 641.51 720.76 14.89 -16.05c98.82,-105.69 155.45,-210.63 170.63,-314.99 15.03,-104.22 -15.47,-199.1 -91.66,-284.78 -94.87,-106.41 -202.31,-159.39 -322.14,-158.66 -119.99,0.44 -241.43,55.76 -364.62,165.52l-197.05 175.45c-117.5,104.51 -179.53,216.61 -185.96,336.59 -6.42,119.83 41.61,237.48 144.36,352.94 52.4,58.68 115.02,106.7 188.44,143.92 73.42,37.22 150.19,61.01 230.63,71.37l-10.38 426.8c-143.76,-13.13 -279.22,-50.65 -406.79,-112.82 -127.57,-62.05 -235.59,-142.9 -324.04,-242.31z"/>
  <path class="fil6" d="M52571.22 32162.68c-130.19,-183.62 -169.02,-369.57 -116.48,-557.87 52.55,-188.29 192.1,-362.72 417.9,-522.84l322.57 -228.73c227.42,-161.14 438.19,-236.01 632.9,-224.78 195.3,11.24 356.44,107 484.31,287.26 67,94.58 102.18,200.41 105.24,317.47 2.77,117.07 -26.86,233.83 -89.91,350.16l-384.18 221.14c65.1,-46.27 112.24,-96.92 141.88,-152.1 29.33,-55.17 40.72,-112.97 33.71,-173.4 -6.71,-60.42 -32.25,-121.59 -76.19,-183.48 -68.61,-96.63 -152.97,-149.46 -253.4,-158.36 -99.97,-9.06 -207.26,27 -321.11,107.86l-319.66 226.54c-111.96,79.25 -179.54,167.27 -203.18,264.04 -23.79,96.78 -1.17,193.55 67.43,290.33 43.65,61.88 93.28,105.82 148.6,131.94 55.31,26.13 113.85,34.45 175.59,24.97 61.74,-9.64 124.8,-37.08 189.02,-82.47l-355.42 286.23c-106.12,27.88 -212.96,24.96 -320.97,-8.76 -107.87,-33.72 -200.85,-105.39 -278.65,-215.15zm-620.92 523.43c-92.4,-130.35 -151.8,-264.19 -178.07,-401.41 -26.28,-137.35 -16.51,-264.63 29.33,-381.97l425.63 92.53c-21.46,75.61 -25.98,151.8 -13.28,228.43 12.84,76.63 41.01,145.97 85.09,208 77.07,108.6 168.88,174.13 275.29,196.62 106.41,22.32 214.71,-5.26 324.33,-83.06l1682.08 -1192.52 276.16 389.43 -1641.36 1163.62c-234.71,166.4 -462.26,230.62 -682.52,192.67 -220.55,-38.1 -414.68,-175.45 -582.68,-412.34z"/>
  <path class="fil6" d="M54059.18 34494.73l1816.06 -1001.45 229.75 416.43 -1816.07 1001.31 -229.74 -416.29zm1457.29 -1652.3l-1103.92 608.82c-107.43,59.25 -174.72,133.55 -202.31,223.17 -27.15,89.63 -12.26,186.4 44.96,290.18 57.22,103.78 129.47,168.29 216.03,193.4 86.85,25.1 181.72,9.34 284.48,-47.29l-374.98 238.64c-103.78,16.06 -211.5,3.65 -323.17,-37.51 -111.65,-41.01 -202.44,-125.23 -272.5,-252.37 -108.6,-197.05 -128.74,-384.75 -60.58,-563.13 68.16,-178.21 217.77,-331.04 448.69,-458.32l1112.67 -613.62 230.63 418.03z"/>
  <path class="fil6" d="M57377.79 34711.2l-2099.68 928.32c-44.95,19.86 -75.17,47 -90.49,81.45 -15.34,34.59 -13.44,73.13 5.25,115.75l57.36 129.61 -418.33 185.09 -104.95 -237.49c-64.95,-146.11 -71.23,-279.22 -19.26,-399.06 51.95,-119.69 157.49,-214.86 317.18,-285.5l2159.96 -954.89 192.96 436.72z"/>
  <path class="fil6" d="M55377.51 37620.68l1242.59 -428.84c109.61,-37.66 183.32,-99.4 221.42,-185.08 38.1,-85.97 36.79,-187.86 -4.24,-306.23 -25.98,-75.46 -63.34,-145.82 -111.65,-210.78 -48.61,-64.94 -104.95,-118.81 -168.88,-161.43l149.31 -387.67c115.9,45.97 220.27,122.75 312.95,230.18 92.98,107.43 165.52,237.34 218.07,389.58 86.85,251.78 90.49,468.68 11.09,650.41 -79.55,181.72 -235.29,312.65 -466.94,392.49l-1259.66 434.97 -144.06 -417.6zm-205.52 -503.87c-77.35,-224.05 -85.97,-409.86 -25.39,-556.7 60.57,-146.98 193.69,-255.87 398.91,-326.66 195.16,-67.44 360.38,-61.01 495.84,19.11 135.16,80 242.3,233.26 320.25,459.94l181.43 525.17 -342.29 147.43 -189.6 -549.26c-30.95,-89.63 -72.84,-149.91 -126.12,-181.73 -53.27,-31.52 -118.66,-34.01 -196.9,-7.15 -81.74,28.17 -132.54,78.09 -152.09,149.61 -19.86,71.96 -9.49,166.11 30.94,283.31 49.19,142.32 101.45,243.18 157.49,302.88 55.62,59.7 116.92,77.94 183.91,54.74l-265.94 136.03c-71.81,1.02 -137.35,-18.83 -197.2,-59.55 -59.69,-40.72 -112.97,-95.46 -159.09,-164.06 -46.27,-68.46 -84.08,-146.11 -114.15,-233.11z"/>
  <path class="fil6" d="M57238.39 38052l405.2 -100.86 235.58 946.14 -405.34 100.56 -235.44 -945.84zm-1442.99 1100.27c-42.77,-171.79 -28.17,-307.98 44.38,-408.26 72.54,-100.42 194.57,-171.94 366.51,-214.71l2074.58 -516.71 115.3 463.44 -2010.64 500.79c-47.73,11.54 -82.61,30.8 -104.95,56.78 -22.33,26.42 -29.05,57.8 -19.55,95.46l39.99 160.85 -444.17 110.5 -61.45 -248.14z"/>
  <path class="fil6" d="M58359.97 39477.77l469.71 -87.14 86.85 467.37 -469.56 87.14 -87 -467.37zm-2386.49 443.29l2039.1 -378.78 86.85 467.52 -2039.1 378.63 -86.85 -467.37z"/>
  <path class="fil6" d="M56673.66 41724.57c12.85,126.12 61.45,219.39 145.23,280.55 83.79,60.86 194.57,84.37 332.51,70.36l341.99 -34.9c137.65,-14.01 240.84,-59.69 309.3,-136.18 68.6,-76.63 96.33,-177.93 83.48,-303.6 -12.84,-124.65 -60.42,-217.92 -143.03,-279.67 -82.62,-61.73 -192.82,-85.67 -330.75,-71.51l-341.71 34.73c-137.94,14.16 -241.71,60 -311.34,137.35 -69.77,77.51 -98.23,178.38 -85.68,302.87zm-454.82 46.57c-28.46,-276.9 28.18,-499.34 169.76,-666.9 141.29,-167.86 354.54,-266.39 639.32,-295.44l335.85 -34.3c282.3,-28.75 508.69,24.82 679.32,160.56 170.49,135.9 269.88,342.29 298.34,619.18 28.18,276.89 -27.58,499.19 -166.98,666.61 -139.53,167.57 -350.31,265.8 -632.6,294.85l-341.7 34.88c-283.6,29.05 -511.16,-24.52 -682.23,-160.26 -171.21,-135.9 -270.9,-341.99 -299.08,-619.18z"/>
  <path class="fil6" d="M56360.13 43169.9l2073.7 21.46 -4.96 477.15 -2073.7 -21.01 4.96 -477.6zm-12.84 1228.57l1256.6 13.14c125.38,1.17 221.86,-31.23 289.73,-96.92 67.87,-66.12 102.76,-160.27 103.93,-282.73 1.17,-117.06 -29.93,-208 -93.27,-272.81 -63.06,-64.51 -152.1,-97.35 -266.53,-98.52l429.86 -37.66c124.51,62.76 220.26,141.73 287.25,236.9 67.01,95.02 99.7,208.88 98.53,340.68 -2.48,222.3 -77.65,393.37 -226.09,512.91 -148.31,119.7 -357.32,178.37 -626.19,175.75l-1258.78 -13.29 4.96 -477.45z"/>
  <path class="fil7" d="M15897.85 50754.44l471.32 1254.41 -706.9 265.5c-272.08,102.18 -530.43,136.76 -774.78,103.49 -244.34,-33.14 -459.49,-126.98 -645.3,-281.56 -185.81,-154.44 -328.7,-364.62 -428.39,-630.12 -100.43,-266.97 -135.46,-520.37 -105.25,-759.74 30.36,-239.53 120.57,-450.59 270.76,-633.04 150.2,-182.16 353.09,-321.41 608.52,-417.46l1067.87 -400.96c272.07,-102.18 529.85,-136.48 773.45,-103.2 243.62,33.43 458.33,127.57 644.15,282 185.8,154.58 328.7,364.76 428.39,630.27 82.18,218.95 112.4,435.26 90.35,649.1 -21.89,213.4 -90.35,412.05 -205.21,595.24 -114.73,183.33 -271.94,336.73 -471.47,460.95l-276.6 -736.53c104.07,-80.72 167.57,-187.56 190.63,-320.24 23.06,-132.54 11.53,-260.4 -34.59,-383.01 -69.19,-184.21 -183.63,-309.88 -343.16,-376.88 -159.54,-66.7 -336.45,-63.93 -530.43,9.2l-1067.87 400.96c-170.78,64.23 -286.67,173.11 -347.24,326.37 -60.73,153.56 -55.91,324.04 14.44,511.46 69.34,184.21 180.71,310.75 334.4,379.94 153.85,69.19 331.05,66.12 531.9,-9.49l59.7 -22.33 -205.66 -547.51 656.97 -246.82z"/>
  <path class="fil7" d="M15284.22 54612.98l600.21 -363.75 480.94 793.16c124.07,204.64 269.74,333.1 437.01,385.2 167.28,51.97 340.24,23.5 519.2,-84.8l972.99 -589.69c180.41,-109.47 285.79,-249.89 316.44,-421.84 30.51,-171.94 -16.2,-360.38 -140.26,-564.73l-480.95 -793.45 600.19 -364.04 472.63 779.74c251.79,415.41 342.87,799 273.39,1151.06 -69.62,352.07 -292.36,642.1 -668.22,869.94l-936.64 567.8c-235,142.17 -470.88,218.95 -707.77,230.04 -236.91,10.95 -463.59,-50.21 -679.9,-183.19 -216.61,-133.12 -412.5,-344.47 -587.94,-633.92l-471.32 -777.53zm-190.19 -313.83l3305.78 -2003.92 377.6 623.11 -3305.77 2003.93 -377.61 -623.12z"/>
  <path class="fil7" d="M18906.44 57298.69l524.16 -466.79 822.35 922.93c87.29,97.94 190.78,148 310.61,150.78 119.69,2.48 233.11,-43.94 340.38,-139.69 109.77,-97.65 170.63,-205.95 182.46,-324.62 11.82,-118.67 -26.42,-227.56 -114.87,-326.67l-822.5 -922.92 524.15 -467.08 810.1 909.06c162.6,182.74 267.69,374.54 315.13,575.82 47.44,200.99 38.54,398.19 -26.57,591.59 -65.1,193.25 -186.97,369.43 -365.63,528.53 -177.35,158.08 -365.78,258.5 -565.32,300.98 -199.53,42.18 -396.44,27.88 -590.56,-43.36 -194.28,-71.66 -372.21,-197.92 -533.79,-379.35l-810.1 -909.21zm-1340.52 749.52l2886.13 -2571.72 484.59 543.86 -2886.13 2571.72 -484.59 -543.86z"/>
  <path class="fil7" d="M22165.22 62418.49l277.47 -1899.85 692.01 378.05 -269.88 2059.97 -699.6 -538.17zm-440.37 -2301.25l427.96 -556.12 1066.26 820.17c89.91,69.03 187.27,91.81 292.21,67.28 104.81,-24.52 199.68,-90.2 284.35,-197.33 83.2,-108.31 123.04,-215.89 119.83,-323.61 -3.35,-107.72 -50.65,-196.61 -141.88,-266.96l-1066.25 -820.17 427.96 -556.41 1112.67 855.78c169.9,131.07 289.31,283.32 358.05,456.72 68.74,173.84 85.25,356.44 49.62,548.23 -35.61,191.8 -124.21,379.51 -265.79,563.43 -141.58,184.2 -300.83,317.91 -477.73,400.81 -176.91,83.05 -357.62,114 -542.41,92.69 -184.94,-21.46 -362.28,-97.65 -532.18,-228.29l-1112.67 -856.22zm-1178.08 1056.33l2358.77 -3066.1 577.43 444.17 -2358.76 3066.1 -577.44 -444.17z"/>
  <path class="fil7" d="M27264 65328.56c-273.39,-113.56 -484.74,-261.85 -633.92,-445.77 -149.32,-183.77 -233.39,-396 -252.37,-637.13 -18.98,-241.13 29.92,-502.26 146.84,-783.97l406.5 -979.85c117.5,-283.31 267.99,-502.84 451.76,-658.87 183.77,-155.75 393.37,-246.24 629.25,-271.35 235.72,-24.81 490.58,19.26 763.82,132.83 225.95,93.56 406.81,225.36 542.99,394.83 135.74,169.9 223.61,370.16 262.73,601.51 39.41,231.21 26.85,486.94 -37.66,767.04l-697.41 -289.3c23.21,-130.35 24.81,-248.14 4.23,-353.67 -20.43,-105.53 -60.57,-196.32 -119.83,-272.8 -59.7,-76.49 -137.79,-134.87 -234.13,-174.73 -188.29,-78.23 -358.48,-81 -510.14,-8.9 -151.8,72.25 -271.34,213.26 -358.19,422.85l-406.51 979.71c-86.99,209.6 -102.17,393.37 -45.84,551.01 56.5,157.79 178.81,275.58 367.1,353.96 147.28,60.72 292.08,63.79 433.96,8.47 141.87,-55.03 268.57,-164.21 380.22,-326.96l697.42 289.3c-153.85,241.13 -326.66,430.15 -518.46,566.33 -191.8,136.34 -395.27,216.47 -610.57,240.41 -215.29,23.79 -435.84,-11.1 -661.79,-104.95z"/>
  <path class="fil7" d="M31459.85 65878.84c193.84,42.48 362.43,15.91 505.91,-79.84 143.48,-95.75 236.76,-243.18 280.1,-442.27l241.72 -1106.83c43.79,-200.56 20.29,-374.11 -70.36,-519.93 -90.49,-145.96 -232.81,-239.96 -426.79,-282.44 -193.84,-42.18 -362.43,-15.91 -505.62,78.97 -143.04,94.87 -236.75,242.59 -280.39,443.58l-241.71 1106.4c-43.51,199.09 -19.86,372.35 70.64,518.9 90.2,146.69 232.51,241.28 426.5,283.46zm-155.45 711.86c-276.89,-60.57 -506.34,-170.63 -688.36,-331.04 -181.58,-160.56 -306.67,-357.9 -375.27,-592.18 -68.75,-234.56 -72.4,-491.3 -11.53,-769.95l233.4 -1070.35c61.15,-280.54 171.8,-512.62 331.47,-696.24 159.98,-183.76 355.87,-310.75 587.95,-380.81 231.93,-69.78 486.78,-74.59 763.53,-14.02 277.18,60.28 506.64,170.63 688.65,330.9 181.58,160.27 307.11,357.32 375.56,591.01 68.9,233.68 72.55,490.72 11.39,771.12l-233.39 1070.34c-60.87,278.79 -171.37,510.58 -331.34,695.08 -159.98,184.5 -356,311.92 -588.23,381.69 -232.23,70.06 -486.64,75.03 -763.83,14.45z"/>
  <polygon class="fil7" points="36148.92,65844.83 36921.94,63250.05 37881.79,63263.47 37827.35,67129.01 37165.4,67119.53 37207.59,64118.38 37231.82,64288.86 36459.09,66679.16 35815.83,66669.96 35109.81,64312.08 35139.44,64089.33 35097.25,67090.48 34435.31,67081.29 34489.32,63216.03 35449.31,63229.46 "/>
  <path class="fil7" d="M39750.85 65390.3l-129.47 -689.82 1215.44 -227.55c128.74,-24.23 225.07,-86.85 289,-188.15 64.22,-101.16 82.91,-222.3 56.34,-363.6 -27,-144.79 -88.16,-252.8 -183.62,-324.04 -95.46,-71.23 -208.58,-94.87 -339.22,-70.35l-1215 227.85 -129.32 -689.97 1196.9 -224.34c240.4,-44.96 458.91,-35.77 655.52,27.29 196.75,63.35 360.97,172.82 492.77,328.13 132.24,155.74 220.26,351.18 264.34,586.18 43.79,233.69 32.12,446.65 -34.59,639.62 -66.71,192.66 -180.41,353.95 -342,483.28 -161.43,129.47 -361.55,216.61 -600.19,261.27l-1196.9 224.2zm-50.5 1535.39l-712.16 -3799.86 716.09 -133.99 712.16 3799.56 -716.09 134.29z"/>
  <path class="fil7" d="M44164.33 65871.83l-244.49 -657.99 2123.62 -788.65 244.05 658.01 -2123.18 788.63zm-304.04 112.83l-1346.36 -3623.68 683.11 -253.53 1345.93 3623.68 -682.68 253.53z"/>
  <polygon class="fil7" points="46282.99,60732.47 48080.96,64154.44 47412.6,64505.62 45614.63,61083.66 "/>
  <path class="fil7" d="M49355.07 62694.21l-407.82 -571.44 1655.66 -1181.42 407.68 571.15 -1655.52 1181.71zm-217.77 916.37l-1042.47 -4005.38 376.44 -268.57 3449.1 2287.82 -638.43 455.7 -2286.95 -1611.43 780.6 2686.45 -638.29 455.41z"/>
  <polygon class="fil7" points="53029.84,60623.88 50221.95,57970.56 50833.82,57323.21 53974.36,58311.82 53980.94,58405.83 51777.77,56324.1 52256.24,55817.89 55063.98,58470.92 54448.6,59122.21 51344.7,58160.75 51338.12,58066.9 53508.31,60117.53 "/>
  <path class="fil7" d="M56928.81 55920.36c-159.69,249.31 -343.01,431.33 -549.99,545.76 -207.12,114.73 -431.04,160.27 -671.88,136.77 -240.39,-23.94 -488.97,-117.8 -745.72,-282.44l-893.15 -572.32c-258.21,-165.08 -448.25,-352.07 -569.39,-560.36 -121.45,-207.99 -173.7,-430.44 -156.92,-667.19 16.94,-236.46 105.24,-479.34 264.92,-728.65 131.81,-205.81 293.39,-360.96 484.31,-464.9 190.92,-104.07 403.44,-155.15 638,-153.26 234.71,1.75 484.02,59.27 748.94,171.8l-407.52 635.82c-124.08,-45.98 -240.11,-68.02 -347.4,-66.56 -107.43,1.9 -204.06,25.55 -289.74,70.36 -85.68,45.1 -156.91,111.8 -213.25,199.81 -109.76,171.66 -142.45,338.65 -98.08,500.8 44.51,162.17 162.3,304.34 353.22,426.66l893.15 572.32c191.22,122.47 369.29,169.9 534.52,141.73 165.08,-27.88 302.73,-127.57 412.64,-299.23 85.97,-134.28 114.44,-276.15 84.81,-425.48 -29.49,-149.61 -114.44,-293.39 -255.3,-431.9l407.24 -635.96c210.48,193.98 366.22,397.31 466.5,609.97 100.56,212.82 143.77,427.24 129.33,643.27 -14.02,216.31 -87.15,427.37 -219.24,633.18z"/>
  <path class="fil7" d="M58448.72 53100.35l-647.78 -270.46 896.5 -2146.83 647.64 270.76 -896.36 2146.53zm-1447.52 -604.42l-647.78 -270.47 783.97 -1877.1 647.64 270.92 -783.83 1876.65zm-1471.89 -614.95l-647.93 -270.32 896.65 -2146.54 647.5 270.48 -896.22 2146.38zm2817.97 1462.26l-3567.2 -1489.85 280.55 -672.01 3567.33 1489.7 -280.68 672.16z"/>
  <path class="fil8" d="M40152.39 40926.89l-6999.07 0 0 -910.66c0,-1610.27 1309.73,-2920.14 2919.98,-2920.14l1159.1 0c1610.26,0 2919.99,1309.87 2919.99,2920.14l0 910.66zm1443.87 16.2l0 -926.86c0,-2406.5 -1957.66,-4364.16 -4363.86,-4364.16l-1159.1 0c-2406.49,0 -4364.14,1957.66 -4364.14,4364.16l0 926.86c-436.29,77.65 -767.91,456.43 -767.91,914.9l0 7574.02c0,514.52 417.01,931.1 931.24,931.1l9560.72 0c514.24,0 931.25,-416.58 931.25,-931.1l0 -7574.02c0,-458.47 -331.92,-837.25 -768.2,-914.9z"/>
  <polygon class="fil9" points="48194.23,35829.86 48532.28,36870.57 49626.71,36870.57 48741.44,37513.98 49079.49,38554.55 48194.23,37911.29 47308.96,38554.55 47646.86,37513.98 46761.74,36870.57 47855.89,36870.57 "/>
  <polygon class="fil9" points="43419.19,31149.55 43757.54,32190.27 44851.67,32190.27 43966.41,32833.52 44304.46,33874.25 43419.19,33231.13 42533.92,33874.25 42871.83,32833.52 41986.56,32190.27 43081.14,32190.27 "/>
  <polygon class="fil9" points="30208.36,31149.55 30546.42,32190.27 31640.85,32190.27 30755.28,32833.52 31093.63,33874.25 30208.36,33231.13 29322.81,33874.25 29661.15,32833.52 28775.88,32190.27 29870.03,32190.27 "/>
  <polygon class="fil9" points="43260.09,53910.3 43598.14,54951.31 44692.58,54951.31 43807.01,55594.57 44145.36,56635.29 43260.09,55992.03 42374.53,56635.29 42712.73,55594.57 41827.61,54951.31 42921.75,54951.31 "/>
  <polygon class="fil9" points="30048.97,53910.3 30387.32,54951.31 31481.45,54951.31 30596.33,55594.57 30934.24,56635.29 30048.97,55992.03 29163.7,56635.29 29501.76,55594.57 28616.49,54951.31 29710.92,54951.31 "/>
  <polygon class="fil9" points="25433.18,35924.59 25771.38,36965.16 26865.66,36965.16 25980.4,37608.42 26318.6,38649.43 25433.18,38006.16 24547.91,38649.43 24885.97,37608.42 24000.7,36965.16 25094.99,36965.16 "/>
  <polygon class="fil9" points="48194.23,49040.68 48532.28,50081.4 49626.71,50081.4 48741.44,50724.66 49079.49,51765.67 48194.23,51122.41 47308.96,51765.67 47646.86,50724.66 46761.74,50081.4 47855.89,50081.4 "/>
  <polygon class="fil9" points="25433.18,49135.56 25771.38,50176.28 26865.66,50176.28 25980.4,50819.53 26318.6,51860.26 25433.18,51216.85 24547.91,51860.26 24885.97,50819.53 24000.7,50176.28 25094.99,50176.28 "/>
  <polygon class="fil9" points="49785.81,42609.56 50124.01,43650.27 51218.29,43650.27 50333.02,44293.53 50671.07,45334.54 49785.81,44691.28 48900.55,45334.54 49238.89,44293.53 48353.18,43650.27 49447.76,43650.27 "/>
  <polygon class="fil9" points="36734.09,29398.58 37072.42,30439.44 38166.57,30439.44 37281.3,31082.7 37619.35,32123.41 36734.09,31480.16 35848.82,32123.41 36186.87,31082.7 35301.46,30439.44 36396.03,30439.44 "/>
  <polygon class="fil9" points="36734.09,55820.38 37072.42,56861.24 38166.57,56861.24 37281.3,57504.65 37619.35,58545.36 36734.09,57901.96 35848.82,58545.36 36186.87,57504.65 35301.46,56861.24 36396.03,56861.24 "/>
  <polygon class="fil9" points="23682.36,42609.56 24020.55,43650.27 25114.84,43650.27 24229.57,44293.53 24567.77,45334.54 23682.36,44691.28 22797.09,45334.54 23135.29,44293.53 22249.87,43650.27 23344.16,43650.27 "/>
  <path class="fil4" d="M39552.05 43322.29l0 0c-354.84,-336.16 -919.86,-320.53 -1255.73,34.01l-2117.18 2235.42 -775.95 -734.77c-354.98,-336.15 -919.86,-320.54 -1255.87,34.01 -336.15,354.83 -320.53,919.85 34.01,1256.01l1355.86 1283.45c71.22,67.73 151.07,120.57 235.44,160.12 349.28,209.46 812.13,156.91 1103.04,-150.19l2710.53 -2862.34c335.86,-354.84 320.68,-919.86 -34.15,-1255.72z"/>
 </g>
</svg>
