<svg width="409" height="48" viewBox="0 0 409 48" fill="none" xmlns="http://www.w3.org/2000/svg">
<rect width="409" height="48" rx="24" fill="#1C252E"/>
<path d="M28.0741 33L34.2781 15.648H37.9861L44.1901 33H40.6981L39.2821 28.98H33.0301L31.5901 33H28.0741ZM33.8221 25.92H38.4301L36.1381 19.02L33.8221 25.92ZM50.3116 33.216C49.3996 33.216 48.6756 33.108 48.1396 32.892C47.6036 32.676 47.2076 32.392 46.9516 32.04C46.6956 31.68 46.5316 31.284 46.4596 30.852C46.3876 30.412 46.3516 29.968 46.3516 29.52V15.168H49.7836V29.088C49.7836 29.544 49.8796 29.916 50.0716 30.204C50.2716 30.484 50.6436 30.656 51.1876 30.72L51.7756 30.756V32.916C51.5356 32.996 51.2916 33.064 51.0436 33.12C50.7956 33.184 50.5516 33.216 50.3116 33.216ZM57.8584 33.216C56.9464 33.216 56.2224 33.108 55.6864 32.892C55.1504 32.676 54.7544 32.392 54.4984 32.04C54.2424 31.68 54.0784 31.284 54.0064 30.852C53.9344 30.412 53.8984 29.968 53.8984 29.52V15.168H57.3304V29.088C57.3304 29.544 57.4264 29.916 57.6184 30.204C57.8184 30.484 58.1904 30.656 58.7344 30.72L59.3224 30.756V32.916C59.0824 32.996 58.8384 33.064 58.5904 33.12C58.3424 33.184 58.0984 33.216 57.8584 33.216ZM61.3619 28.104V25.548H67.9139V28.092L61.3619 28.104ZM70.8798 33V20.592H74.2278V33H70.8798ZM70.8438 18.816V15.66H74.2518V18.816H70.8438ZM77.3125 33V20.592H80.7565V22.344C80.9485 22.04 81.1965 21.748 81.5005 21.468C81.8125 21.18 82.2045 20.944 82.6765 20.76C83.1485 20.576 83.7085 20.484 84.3565 20.484C85.1165 20.484 85.8245 20.632 86.4805 20.928C87.1445 21.224 87.6805 21.692 88.0885 22.332C88.4965 22.964 88.7005 23.792 88.7005 24.816V33H85.1965V25.248C85.1965 24.576 84.9965 24.072 84.5965 23.736C84.1965 23.4 83.7085 23.232 83.1325 23.232C82.7485 23.232 82.3765 23.3 82.0165 23.436C81.6645 23.572 81.3765 23.776 81.1525 24.048C80.9285 24.32 80.8165 24.656 80.8165 25.056V33H77.3125ZM91.4791 28.104V25.548H98.0311V28.092L91.4791 28.104ZM108.617 33.24C106.977 33.24 105.557 32.884 104.357 32.172C103.165 31.452 102.241 30.432 101.585 29.112C100.937 27.784 100.613 26.2 100.613 24.36C100.613 22.512 100.941 20.92 101.597 19.584C102.261 18.248 103.193 17.22 104.393 16.5C105.593 15.772 107.001 15.408 108.617 15.408C110.225 15.408 111.625 15.768 112.817 16.488C114.009 17.208 114.929 18.236 115.577 19.572C116.233 20.908 116.561 22.504 116.561 24.36C116.561 26.192 116.237 27.772 115.589 29.1C114.949 30.428 114.033 31.452 112.841 32.172C111.649 32.884 110.241 33.24 108.617 33.24ZM108.617 30.36C109.465 30.36 110.197 30.16 110.813 29.76C111.437 29.352 111.917 28.712 112.253 27.84C112.589 26.96 112.757 25.816 112.757 24.408C112.757 22.96 112.585 21.788 112.241 20.892C111.905 19.996 111.425 19.34 110.801 18.924C110.185 18.5 109.457 18.288 108.617 18.288C107.777 18.288 107.045 18.5 106.421 18.924C105.797 19.34 105.313 20 104.969 20.904C104.625 21.8 104.453 22.968 104.453 24.408C104.453 25.824 104.625 26.968 104.969 27.84C105.313 28.712 105.797 29.352 106.421 29.76C107.045 30.16 107.777 30.36 108.617 30.36ZM118.891 33V20.592H122.335V22.344C122.527 22.04 122.775 21.748 123.079 21.468C123.391 21.18 123.783 20.944 124.255 20.76C124.727 20.576 125.287 20.484 125.935 20.484C126.695 20.484 127.403 20.632 128.059 20.928C128.723 21.224 129.259 21.692 129.667 22.332C130.075 22.964 130.279 23.792 130.279 24.816V33H126.775V25.248C126.775 24.576 126.575 24.072 126.175 23.736C125.775 23.4 125.287 23.232 124.711 23.232C124.327 23.232 123.955 23.3 123.595 23.436C123.243 23.572 122.955 23.776 122.731 24.048C122.507 24.32 122.395 24.656 122.395 25.056V33H118.891ZM138.817 33.24C137.585 33.24 136.501 32.984 135.565 32.472C134.637 31.952 133.913 31.22 133.393 30.276C132.873 29.332 132.613 28.22 132.613 26.94C132.613 25.7 132.849 24.584 133.321 23.592C133.801 22.592 134.489 21.804 135.385 21.228C136.281 20.644 137.365 20.352 138.637 20.352C139.901 20.352 140.961 20.62 141.817 21.156C142.673 21.684 143.321 22.424 143.761 23.376C144.201 24.32 144.421 25.412 144.421 26.652V27.6H136.081C136.081 28.232 136.185 28.784 136.393 29.256C136.601 29.72 136.901 30.08 137.293 30.336C137.693 30.584 138.173 30.708 138.733 30.708C139.333 30.708 139.857 30.58 140.305 30.324C140.753 30.068 141.069 29.648 141.253 29.064H144.409C144.265 29.944 143.913 30.696 143.353 31.32C142.793 31.944 142.113 32.42 141.313 32.748C140.513 33.076 139.681 33.24 138.817 33.24ZM136.081 25.512H141.145C141.145 25.016 141.049 24.56 140.857 24.144C140.673 23.728 140.393 23.4 140.017 23.16C139.649 22.92 139.185 22.8 138.625 22.8C138.089 22.8 137.629 22.932 137.245 23.196C136.869 23.452 136.577 23.788 136.369 24.204C136.169 24.62 136.073 25.056 136.081 25.512ZM159.753 33.24C158.161 33.24 156.777 32.88 155.601 32.16C154.433 31.432 153.529 30.404 152.889 29.076C152.257 27.748 151.941 26.18 151.941 24.372C151.941 22.532 152.273 20.944 152.937 19.608C153.609 18.264 154.545 17.228 155.745 16.5C156.945 15.772 158.345 15.408 159.945 15.408C160.977 15.408 161.917 15.572 162.765 15.9C163.613 16.228 164.349 16.676 164.973 17.244C165.605 17.812 166.097 18.456 166.449 19.176C166.809 19.888 167.005 20.628 167.037 21.396H163.341C163.237 20.844 163.029 20.34 162.717 19.884C162.413 19.428 162.021 19.064 161.541 18.792C161.061 18.512 160.501 18.372 159.861 18.372C159.093 18.372 158.397 18.572 157.773 18.972C157.149 19.364 156.657 19.992 156.297 20.856C155.937 21.72 155.757 22.86 155.757 24.276C155.757 25.42 155.873 26.372 156.105 27.132C156.345 27.892 156.665 28.496 157.065 28.944C157.465 29.384 157.921 29.696 158.433 29.88C158.945 30.064 159.469 30.156 160.005 30.156C160.517 30.156 160.973 30.072 161.373 29.904C161.781 29.728 162.129 29.504 162.417 29.232C162.705 28.96 162.933 28.664 163.101 28.344C163.269 28.016 163.377 27.696 163.425 27.384L163.557 26.328H159.969V23.904L167.229 23.94V33H164.841V30.732C164.545 31.124 164.177 31.516 163.737 31.908C163.305 32.292 162.765 32.612 162.117 32.868C161.477 33.116 160.689 33.24 159.753 33.24ZM174.46 33.216C173.548 33.216 172.824 33.108 172.288 32.892C171.752 32.676 171.356 32.392 171.1 32.04C170.844 31.68 170.68 31.284 170.608 30.852C170.536 30.412 170.5 29.968 170.5 29.52V15.168H173.932V29.088C173.932 29.544 174.028 29.916 174.22 30.204C174.42 30.484 174.792 30.656 175.336 30.72L175.924 30.756V32.916C175.684 32.996 175.44 33.064 175.192 33.12C174.944 33.184 174.7 33.216 174.46 33.216ZM183.084 33.24C181.868 33.24 180.808 32.98 179.904 32.46C179.008 31.94 178.312 31.204 177.816 30.252C177.328 29.3 177.084 28.172 177.084 26.868C177.084 25.564 177.328 24.424 177.816 23.448C178.312 22.472 179.008 21.712 179.904 21.168C180.808 20.624 181.872 20.352 183.096 20.352C184.32 20.352 185.38 20.62 186.276 21.156C187.172 21.684 187.864 22.436 188.352 23.412C188.84 24.388 189.084 25.54 189.084 26.868C189.084 28.116 188.844 29.22 188.364 30.18C187.892 31.132 187.208 31.88 186.312 32.424C185.424 32.968 184.348 33.24 183.084 33.24ZM183.096 30.636C183.712 30.636 184.208 30.456 184.584 30.096C184.96 29.736 185.232 29.264 185.4 28.68C185.568 28.088 185.652 27.444 185.652 26.748C185.652 26.092 185.576 25.472 185.424 24.888C185.272 24.304 185.008 23.832 184.632 23.472C184.256 23.112 183.744 22.932 183.096 22.932C182.48 22.932 181.98 23.104 181.596 23.448C181.22 23.784 180.944 24.244 180.768 24.828C180.592 25.404 180.504 26.044 180.504 26.748C180.504 27.396 180.584 28.02 180.744 28.62C180.904 29.212 181.172 29.696 181.548 30.072C181.924 30.448 182.44 30.636 183.096 30.636ZM198.389 33.24C197.773 33.24 197.241 33.16 196.793 33C196.345 32.84 195.965 32.628 195.653 32.364C195.341 32.092 195.085 31.792 194.885 31.464C194.685 31.136 194.529 30.8 194.417 30.456L194.021 33H191.477V15.168H194.993V22.272C195.145 22.008 195.341 21.76 195.581 21.528C195.821 21.296 196.101 21.092 196.421 20.916C196.741 20.74 197.093 20.604 197.477 20.508C197.869 20.404 198.285 20.352 198.725 20.352C200.269 20.352 201.477 20.908 202.349 22.02C203.229 23.132 203.669 24.7 203.669 26.724C203.669 28.036 203.469 29.18 203.069 30.156C202.669 31.132 202.077 31.892 201.293 32.436C200.509 32.972 199.541 33.24 198.389 33.24ZM197.621 30.72C198.373 30.72 198.997 30.412 199.493 29.796C199.997 29.172 200.249 28.132 200.249 26.676C200.249 25.388 200.009 24.436 199.529 23.82C199.057 23.204 198.413 22.896 197.597 22.896C197.013 22.896 196.529 23.036 196.145 23.316C195.761 23.588 195.473 24.004 195.281 24.564C195.097 25.124 195.001 25.828 194.993 26.676C194.993 28.14 195.209 29.18 195.641 29.796C196.081 30.412 196.741 30.72 197.621 30.72ZM209.692 33.24C208.908 33.24 208.196 33.092 207.556 32.796C206.924 32.5 206.424 32.072 206.056 31.512C205.688 30.944 205.504 30.256 205.504 29.448C205.504 28.088 206.012 27.056 207.028 26.352C208.044 25.64 209.648 25.272 211.84 25.248L213.4 25.224V24.48C213.4 23.912 213.232 23.476 212.896 23.172C212.568 22.86 212.052 22.708 211.348 22.716C210.844 22.724 210.36 22.844 209.896 23.076C209.44 23.308 209.124 23.712 208.948 24.288H206.032C206.08 23.392 206.34 22.656 206.812 22.08C207.292 21.496 207.936 21.064 208.744 20.784C209.552 20.496 210.476 20.352 211.516 20.352C212.78 20.352 213.796 20.512 214.564 20.832C215.332 21.144 215.888 21.596 216.232 22.188C216.584 22.772 216.76 23.468 216.76 24.276V33H213.832L213.544 30.864C213.12 31.76 212.588 32.38 211.948 32.724C211.316 33.068 210.564 33.24 209.692 33.24ZM210.88 30.936C211.192 30.936 211.496 30.88 211.792 30.768C212.096 30.648 212.368 30.492 212.608 30.3C212.848 30.1 213.036 29.876 213.172 29.628C213.316 29.38 213.392 29.124 213.4 28.86V27.024L212.14 27.048C211.556 27.056 211.012 27.128 210.508 27.264C210.004 27.392 209.596 27.604 209.284 27.9C208.98 28.196 208.828 28.596 208.828 29.1C208.828 29.676 209.024 30.128 209.416 30.456C209.816 30.776 210.304 30.936 210.88 30.936ZM223.562 33.216C222.65 33.216 221.926 33.108 221.39 32.892C220.854 32.676 220.458 32.392 220.202 32.04C219.946 31.68 219.782 31.284 219.71 30.852C219.638 30.412 219.602 29.968 219.602 29.52V15.168H223.034V29.088C223.034 29.544 223.13 29.916 223.322 30.204C223.522 30.484 223.894 30.656 224.438 30.72L225.026 30.756V32.916C224.786 32.996 224.542 33.064 224.294 33.12C224.046 33.184 223.802 33.216 223.562 33.216ZM237.472 33L231.472 15.648H234.82L239.464 28.932L244.084 15.648H247.444L241.444 33H237.472ZM249.427 33V20.592H252.775V33H249.427ZM249.391 18.816V15.66H252.799V18.816H249.391ZM260.781 33.24C259.917 33.24 259.085 33.1 258.285 32.82C257.493 32.532 256.817 32.084 256.257 31.476C255.705 30.86 255.357 30.064 255.213 29.088H258.237C258.349 29.528 258.541 29.876 258.813 30.132C259.093 30.388 259.409 30.572 259.761 30.684C260.113 30.788 260.449 30.84 260.769 30.84C261.441 30.84 261.981 30.736 262.389 30.528C262.805 30.312 263.013 29.984 263.013 29.544C263.013 29.208 262.889 28.94 262.641 28.74C262.401 28.54 262.001 28.388 261.441 28.284L259.257 27.828C258.161 27.596 257.277 27.204 256.605 26.652C255.941 26.092 255.605 25.3 255.597 24.276C255.589 23.532 255.781 22.864 256.173 22.272C256.573 21.68 257.161 21.212 257.937 20.868C258.721 20.524 259.677 20.352 260.805 20.352C262.333 20.352 263.553 20.688 264.465 21.36C265.385 22.032 265.853 22.98 265.869 24.204H262.941C262.853 23.724 262.613 23.356 262.221 23.1C261.837 22.836 261.349 22.704 260.757 22.704C260.157 22.704 259.661 22.812 259.269 23.028C258.877 23.244 258.681 23.572 258.681 24.012C258.681 24.34 258.841 24.6 259.161 24.792C259.481 24.976 259.977 25.136 260.649 25.272L262.665 25.728C263.361 25.896 263.925 26.128 264.357 26.424C264.797 26.712 265.137 27.028 265.377 27.372C265.617 27.716 265.781 28.064 265.869 28.416C265.965 28.76 266.013 29.072 266.013 29.352C266.013 30.176 265.793 30.88 265.353 31.464C264.913 32.04 264.301 32.48 263.517 32.784C262.733 33.088 261.821 33.24 260.781 33.24ZM272.223 33.24C271.439 33.24 270.727 33.092 270.087 32.796C269.455 32.5 268.955 32.072 268.587 31.512C268.219 30.944 268.035 30.256 268.035 29.448C268.035 28.088 268.543 27.056 269.559 26.352C270.575 25.64 272.179 25.272 274.371 25.248L275.931 25.224V24.48C275.931 23.912 275.763 23.476 275.427 23.172C275.099 22.86 274.583 22.708 273.879 22.716C273.375 22.724 272.891 22.844 272.427 23.076C271.971 23.308 271.655 23.712 271.479 24.288H268.563C268.611 23.392 268.871 22.656 269.343 22.08C269.823 21.496 270.467 21.064 271.275 20.784C272.083 20.496 273.007 20.352 274.047 20.352C275.311 20.352 276.327 20.512 277.095 20.832C277.863 21.144 278.419 21.596 278.763 22.188C279.115 22.772 279.291 23.468 279.291 24.276V33H276.363L276.075 30.864C275.651 31.76 275.119 32.38 274.479 32.724C273.847 33.068 273.095 33.24 272.223 33.24ZM273.411 30.936C273.723 30.936 274.027 30.88 274.323 30.768C274.627 30.648 274.899 30.492 275.139 30.3C275.379 30.1 275.567 29.876 275.703 29.628C275.847 29.38 275.923 29.124 275.931 28.86V27.024L274.671 27.048C274.087 27.056 273.543 27.128 273.039 27.264C272.535 27.392 272.127 27.604 271.815 27.9C271.511 28.196 271.359 28.596 271.359 29.1C271.359 29.676 271.555 30.128 271.947 30.456C272.347 30.776 272.835 30.936 273.411 30.936ZM287.991 33V15.648H294.375C295.639 15.648 296.771 15.868 297.771 16.308C298.771 16.74 299.559 17.38 300.135 18.228C300.719 19.076 301.011 20.112 301.011 21.336C301.011 22.488 300.755 23.472 300.243 24.288C299.731 25.104 299.011 25.728 298.083 26.16C297.163 26.592 296.079 26.808 294.831 26.808H291.519V33H287.991ZM291.483 24.096H294.735C295.615 24.096 296.335 23.816 296.895 23.256C297.455 22.688 297.735 21.988 297.735 21.156C297.735 20.292 297.439 19.608 296.847 19.104C296.255 18.592 295.535 18.336 294.687 18.336H291.483V24.096ZM307.163 33.216C306.251 33.216 305.527 33.108 304.991 32.892C304.455 32.676 304.059 32.392 303.803 32.04C303.547 31.68 303.383 31.284 303.311 30.852C303.239 30.412 303.203 29.968 303.203 29.52V15.168H306.635V29.088C306.635 29.544 306.731 29.916 306.923 30.204C307.123 30.484 307.495 30.656 308.039 30.72L308.627 30.756V32.916C308.387 32.996 308.143 33.064 307.895 33.12C307.647 33.184 307.403 33.216 307.163 33.216ZM314.668 33.24C313.884 33.24 313.172 33.092 312.532 32.796C311.9 32.5 311.4 32.072 311.032 31.512C310.664 30.944 310.48 30.256 310.48 29.448C310.48 28.088 310.988 27.056 312.004 26.352C313.02 25.64 314.624 25.272 316.816 25.248L318.376 25.224V24.48C318.376 23.912 318.208 23.476 317.872 23.172C317.544 22.86 317.028 22.708 316.324 22.716C315.82 22.724 315.336 22.844 314.872 23.076C314.416 23.308 314.1 23.712 313.924 24.288H311.008C311.056 23.392 311.316 22.656 311.788 22.08C312.268 21.496 312.912 21.064 313.72 20.784C314.528 20.496 315.452 20.352 316.492 20.352C317.756 20.352 318.772 20.512 319.54 20.832C320.308 21.144 320.864 21.596 321.208 22.188C321.56 22.772 321.736 23.468 321.736 24.276V33H318.808L318.52 30.864C318.096 31.76 317.564 32.38 316.924 32.724C316.292 33.068 315.54 33.24 314.668 33.24ZM315.856 30.936C316.168 30.936 316.472 30.88 316.768 30.768C317.072 30.648 317.344 30.492 317.584 30.3C317.824 30.1 318.012 29.876 318.148 29.628C318.292 29.38 318.368 29.124 318.376 28.86V27.024L317.116 27.048C316.532 27.056 315.988 27.128 315.484 27.264C314.98 27.392 314.572 27.604 314.26 27.9C313.956 28.196 313.804 28.596 313.804 29.1C313.804 29.676 314 30.128 314.392 30.456C314.792 30.776 315.28 30.936 315.856 30.936ZM329.485 33.132C328.389 33.132 327.541 32.992 326.941 32.712C326.349 32.432 325.937 32.04 325.705 31.536C325.481 31.032 325.369 30.448 325.369 29.784V23.028H323.353V20.592H325.477L326.365 16.848H328.861V20.58H331.621V23.028H328.861L328.885 29.64C328.885 29.944 328.921 30.172 328.993 30.324C329.073 30.468 329.193 30.564 329.353 30.612C329.521 30.652 329.733 30.672 329.989 30.672H331.657V32.832C331.489 32.904 331.237 32.972 330.901 33.036C330.565 33.1 330.093 33.132 329.485 33.132ZM334.806 33V23.028H332.514V20.592H334.806V18.804C334.806 17.804 335.102 17.028 335.694 16.476C336.286 15.924 337.118 15.648 338.19 15.648H341.034L341.058 17.976H339.414C338.974 17.976 338.67 18.088 338.502 18.312C338.334 18.528 338.25 18.888 338.25 19.392V20.592H340.938V23.028H338.322V33H334.806ZM348.271 33.24C347.055 33.24 345.995 32.98 345.091 32.46C344.195 31.94 343.499 31.204 343.003 30.252C342.515 29.3 342.271 28.172 342.271 26.868C342.271 25.564 342.515 24.424 343.003 23.448C343.499 22.472 344.195 21.712 345.091 21.168C345.995 20.624 347.059 20.352 348.283 20.352C349.507 20.352 350.567 20.62 351.463 21.156C352.359 21.684 353.051 22.436 353.539 23.412C354.027 24.388 354.271 25.54 354.271 26.868C354.271 28.116 354.031 29.22 353.551 30.18C353.079 31.132 352.395 31.88 351.499 32.424C350.611 32.968 349.535 33.24 348.271 33.24ZM348.283 30.636C348.899 30.636 349.395 30.456 349.771 30.096C350.147 29.736 350.419 29.264 350.587 28.68C350.755 28.088 350.839 27.444 350.839 26.748C350.839 26.092 350.763 25.472 350.611 24.888C350.459 24.304 350.195 23.832 349.819 23.472C349.443 23.112 348.931 22.932 348.283 22.932C347.667 22.932 347.167 23.104 346.783 23.448C346.407 23.784 346.131 24.244 345.955 24.828C345.779 25.404 345.691 26.044 345.691 26.748C345.691 27.396 345.771 28.02 345.931 28.62C346.091 29.212 346.359 29.696 346.735 30.072C347.111 30.448 347.627 30.636 348.283 30.636ZM356.664 33V20.592H360.036V23.532C360.236 22.9 360.516 22.348 360.876 21.876C361.244 21.396 361.688 21.024 362.208 20.76C362.728 20.488 363.316 20.352 363.972 20.352C364.084 20.352 364.188 20.36 364.284 20.376C364.388 20.384 364.464 20.4 364.512 20.424V23.76C364.44 23.728 364.352 23.708 364.248 23.7C364.152 23.692 364.064 23.684 363.984 23.676C363.296 23.62 362.708 23.64 362.22 23.736C361.732 23.832 361.336 23.996 361.032 24.228C360.728 24.46 360.508 24.744 360.372 25.08C360.236 25.416 360.168 25.792 360.168 26.208V33H356.664ZM366.555 33V20.592H369.987V22.344C370.363 21.8 370.867 21.332 371.499 20.94C372.139 20.548 372.943 20.352 373.911 20.352C374.335 20.352 374.767 20.428 375.207 20.58C375.647 20.732 376.059 20.956 376.443 21.252C376.835 21.54 377.151 21.904 377.391 22.344C377.791 21.776 378.315 21.304 378.963 20.928C379.619 20.544 380.347 20.352 381.147 20.352C381.611 20.352 382.079 20.428 382.551 20.58C383.031 20.732 383.471 20.98 383.871 21.324C384.271 21.668 384.591 22.128 384.831 22.704C385.079 23.272 385.203 23.976 385.203 24.816V33H381.699V25.248C381.699 24.752 381.599 24.356 381.399 24.06C381.207 23.756 380.959 23.54 380.655 23.412C380.359 23.276 380.043 23.208 379.707 23.208C379.395 23.208 379.079 23.272 378.759 23.4C378.439 23.52 378.167 23.716 377.943 23.988C377.719 24.26 377.607 24.616 377.607 25.056V33H374.115V24.936C374.115 24.56 374.015 24.244 373.815 23.988C373.615 23.732 373.363 23.54 373.059 23.412C372.763 23.276 372.459 23.208 372.147 23.208C371.827 23.208 371.507 23.276 371.187 23.412C370.867 23.54 370.599 23.744 370.383 24.024C370.167 24.296 370.059 24.64 370.059 25.056V33H366.555Z" fill="white"/>
</svg>
