<svg width="15" height="15" viewBox="0 0 15 15" fill="none" xmlns="http://www.w3.org/2000/svg">
<path d="M1.64063 12.6562C1.45414 12.6562 1.2753 12.7303 1.14344 12.8622C1.01158 12.9941 0.9375 13.1729 0.9375 13.3594C0.9375 13.5459 1.01158 13.7247 1.14344 13.8566C1.2753 13.9884 1.45414 14.0625 1.64063 14.0625H13.3594C13.5459 14.0625 13.7247 13.9884 13.8566 13.8566C13.9884 13.7247 14.0625 13.5459 14.0625 13.3594C14.0625 13.1729 13.9884 12.9941 13.8566 12.8622C13.7247 12.7303 13.5459 12.6562 13.3594 12.6562H1.64063Z" fill="white"/>
<path d="M7.78313 3.89066C7.86281 3.76878 7.95375 3.64035 8.055 3.50816L8.07 3.48753C8.31875 3.15763 8.60505 2.8578 8.92313 2.5941C9.29156 2.2941 9.73781 2.03722 10.2497 1.92847C10.4203 1.89285 10.5994 1.8741 10.7841 1.87503C12.0506 1.88347 13.0078 2.74691 13.5947 3.47253C13.6688 3.56347 13.7353 3.6516 13.7972 3.73597L13.8234 3.77253C13.8863 3.85878 13.9359 3.94878 13.9734 4.03972L13.9809 4.05753C14.2284 4.68753 13.8919 5.36816 13.3125 5.65597C13.2677 5.6785 13.2217 5.69853 13.1747 5.71597L11.0822 6.48285L8.17031 10.6828C7.29094 11.9513 5.30719 11.0841 5.64188 9.5766L5.93438 8.25753L3.02344 9.07785C2.77959 9.14662 2.52313 9.15797 2.27415 9.11103C2.02518 9.06409 1.79046 8.96012 1.58839 8.80728C1.38633 8.65444 1.22241 8.45687 1.10948 8.23007C0.996554 8.00327 0.937689 7.75339 0.9375 7.50003V4.83753C0.9375 3.70316 2.47312 3.34972 2.96813 4.3716L3.53531 5.54253L6.75281 4.69503C7.15781 4.5891 7.51781 4.29378 7.78406 3.89066H7.78313ZM4.0725 4.28722L4.16625 4.40722L6.51469 3.78847C6.63844 3.7566 6.825 3.64035 7.00125 3.3741C7.09476 3.23153 7.19294 3.09208 7.29563 2.95597L6.10125 2.13753C5.85205 1.96654 5.55691 1.87503 5.25469 1.87503C4.0125 1.87503 3.31031 3.30472 4.0725 4.28722Z" fill="white"/>
</svg>
