<svg width="56" height="56" viewBox="0 0 56 56" fill="none" xmlns="http://www.w3.org/2000/svg">
<path d="M0 12C0 5.37258 5.37258 0 12 0H44C50.6274 0 56 5.37258 56 12V44C56 50.6274 50.6274 56 44 56H12C5.37258 56 0 50.6274 0 44V12Z" fill="#174D87"/>
<path d="M18.162 24.5003C18 25.6033 18 27.0503 18 29.0003C18 32.7713 18 34.6573 19.172 35.8283C20.343 37.0003 22.229 37.0003 26 37.0003H30C33.771 37.0003 35.657 37.0003 36.828 35.8283C38 34.6573 38 32.7713 38 29.0003C38 27.0503 38 25.6043 37.838 24.5003C35.561 25.9803 34.102 26.9243 32.75 27.5053V28.0003C32.7523 28.1993 32.6754 28.3909 32.5363 28.5332C32.3973 28.6754 32.2074 28.7566 32.0085 28.7588C31.8096 28.7611 31.6179 28.6842 31.4757 28.5452C31.3334 28.4061 31.2523 28.2163 31.25 28.0173C29.1197 28.5789 26.8803 28.5789 24.75 28.0173C24.7477 28.2163 24.6666 28.4061 24.5243 28.5452C24.3821 28.6842 24.1904 28.7611 23.9915 28.7588C23.7926 28.7566 23.6027 28.6754 23.4637 28.5332C23.3246 28.3909 23.2477 28.1993 23.25 28.0003V27.5053C21.898 26.9233 20.44 25.9803 18.162 24.5003Z" fill="white"/>
<path fill-rule="evenodd" clip-rule="evenodd" d="M26.581 18.2503H26.561C26.447 18.2503 26.359 18.2503 26.275 18.2553C25.7554 18.2869 25.2555 18.4653 24.8333 18.7698C24.4111 19.0743 24.084 19.4923 23.89 19.9753C23.8474 20.0887 23.8074 20.2031 23.77 20.3183L23.766 20.3303C23.6631 20.6029 23.4891 20.8429 23.262 21.0253C23.034 21.0333 22.817 21.0423 22.609 21.0553C20.965 21.1513 19.922 21.4213 19.172 22.1723C18.928 22.4156 18.7277 22.6991 18.58 23.0103C18.638 23.0303 18.694 23.0563 18.747 23.0913C20.847 24.4563 22.167 25.3113 23.264 25.8583C23.2998 25.6756 23.4023 25.5128 23.5515 25.4015C23.7007 25.2901 23.886 25.2383 24.0713 25.256C24.2567 25.2737 24.4288 25.3597 24.5542 25.4973C24.6797 25.6349 24.7494 25.8142 24.75 26.0003V26.4583C26.87 27.0983 29.13 27.0983 31.25 26.4583V26.0003C31.2493 25.8133 31.3185 25.6327 31.444 25.494C31.5696 25.3553 31.7425 25.2685 31.9287 25.2507C32.1149 25.233 32.3011 25.2854 32.4506 25.3978C32.6002 25.5103 32.7023 25.6745 32.737 25.8583C33.833 25.3103 35.153 24.4563 37.253 23.0913C37.3051 23.0576 37.3612 23.0304 37.42 23.0103C37.2718 22.6993 37.0716 22.4159 36.828 22.1723C36.078 21.4223 35.035 21.1523 33.391 21.0543C33.194 21.0433 32.988 21.0343 32.773 21.0263C32.521 20.8215 32.3264 20.5548 32.208 20.2523L32.205 20.2433C32.169 20.1363 32.142 20.0523 32.11 19.9743C31.9158 19.4915 31.5887 19.0737 31.1665 18.7694C30.7443 18.4651 30.2445 18.2868 29.725 18.2553C29.6301 18.2509 29.535 18.2492 29.44 18.2503H26.58H26.581ZM30.818 20.8163L30.813 20.8053L30.808 20.7933L30.804 20.7813L30.798 20.7663L30.788 20.7363L30.785 20.7283L30.783 20.7213L30.781 20.7153C30.7616 20.6545 30.7406 20.5941 30.718 20.5343C30.6299 20.3148 30.4812 20.1247 30.2893 19.9863C30.0974 19.8479 29.8702 19.7667 29.634 19.7523C29.5624 19.7498 29.4907 19.7492 29.419 19.7503H26.581C26.438 19.7503 26.398 19.7503 26.366 19.7523C26.1298 19.7667 25.9026 19.8479 25.7107 19.9863C25.5188 20.1247 25.3701 20.3148 25.282 20.5343L25.279 20.5413L25.271 20.5623C25.2437 20.6385 25.218 20.7151 25.194 20.7923L25.192 20.7983L25.189 20.8053L25.187 20.8133L25.177 20.8433L25.171 20.8583L25.167 20.8703L25.162 20.8823L25.158 20.8923L25.157 20.8933C25.1431 20.9296 25.1284 20.9657 25.113 21.0013L26 21.0003H30.896C30.868 20.9399 30.842 20.8785 30.818 20.8163Z" fill="white"/>
</svg>
