<svg xmlns="http://www.w3.org/2000/svg" viewBox="0 0 128 128" id="Iphone">
  <path d="M26.35 98.71a10.7 10.7 0 0 0-3.37-.5c-3.1 0-6.22 1.09-7.12 2.65-2.06 3.58-4.59 7.81-4.59 7.81a8.13 8.13 0 0 0 14 8.19s4.58-8 7.28-12.51c.52-.79-2.13-4.35-6.2-5.64zm-4.5 16.13a4.14 4.14 0 0 1-3.57 2 4.12 4.12 0 0 1-3.58-6.17s2.48-4.13 4.51-7.66a7.75 7.75 0 0 1 3.77-.85 6.8 6.8 0 0 1 2.13.3 8 8 0 0 1 2.9 1.72c-2.67 4.58-6.13 10.61-6.16 10.66zM68 78H49l33-59a7.68 7.68 0 0 0-2.73-10.78A8.38 8.38 0 0 0 75 7.07 8.07 8.07 0 0 0 68 11l-4 7-4-7a8.06 8.06 0 0 0-7-3.93 8.39 8.39 0 0 0-4.26 1.15A7.68 7.68 0 0 0 46 19l9 15-26 44H8a8.21 8.21 0 0 0-8 8.35C0 90.84 3.51 94 8 94h71c3.47-7.11-3.77-16-11-16zM8 90c-2 0-4-1.13-4-3.65A4.24 4.24 0 0 1 8 82h23.28l1.16-2 26-44 1.22-2-1.23-2-9-15a4 4 0 0 1-.52-3 3.71 3.71 0 0 1 1.8-2.3 4.51 4.51 0 0 1 2.25-.6 4 4 0 0 1 3.57 1.9l4 7L64 26.06 67.47 20l4-7A4 4 0 0 1 75 11.07a4.44 4.44 0 0 1 2.23.6A3.69 3.69 0 0 1 79.06 14a4 4 0 0 1-.52 3l-33 59-3.33 6H68c2.36 0 5.11 1.76 6.69 4.29A7.59 7.59 0 0 1 75.9 90z" fill="#1c252e" class="color000000 svgShape"></path>
  <path d="M120 78H99L76.66 40.22C72 45.51 66.2 53.75 75 69c6.91 12 27.69 47.86 27.69 47.86a8.13 8.13 0 0 0 14-8.19L108 94h12c4.49 0 8-3.16 8-7.65a8.21 8.21 0 0 0-8-8.35Zm0 12h-19l3.6 6 8.72 14.63a4.12 4.12 0 0 1-1.49 5.65 4.07 4.07 0 0 1-2.07.56 4.15 4.15 0 0 1-3.56-2c-.21-.36-20.87-36-27.7-47.85-5.28-9.15-4.6-15-2.15-19.52L95.56 80l1.16 2H120a4.24 4.24 0 0 1 4 4.35c0 2.52-2 3.65-4 3.65Z" fill="#1c252e" class="color000000 svgShape"></path>
</svg>
