<svg xmlns="http://www.w3.org/2000/svg" viewBox="0 0 512 512" id="location">
  <g>
    <path fill="#dd4247" d="M256.23,0h-.46c-117.06,0-212,94.9-212,212,0,130.89,136.84,269.21,203.46,298.2a22.21,22.21,0,0,0,17.69,0c66.6-29,203.23-167.32,203.23-298.2C468.19,94.9,373.29,0,256.23,0Z"></path>
    <path fill="#e55353" d="M43.81,212c0,66.06,34.87,134,78,188.85C275,400.33,399.05,276,399.05,122.66a278.16,278.16,0,0,0-10.63-76.38A211.06,211.06,0,0,0,256.23,0h-.46C138.71,0,43.81,94.9,43.81,212Z"></path>
    <path fill="#fff" d="M256,283a75,75,0,1,1,75-75A75,75,0,0,1,256,283Z"></path>
  </g>
</svg>
