<svg width="109" height="35" viewBox="0 0 109 35" fill="none" xmlns="http://www.w3.org/2000/svg">
<path d="M53.6856 18.7919L53.6789 21.861H54.8481L54.8552 20.2534L54.8624 18.6823L56.439 20.3264C57.3061 21.2308 58.0591 21.861 58.1124 21.861C58.1658 21.861 58.2095 20.6553 58.2095 19.0477V16.1247H57.6249H57.0403L57.0368 17.6958L57.0333 19.2669L55.3627 17.5131L53.6922 15.7594L53.6856 18.7919Z" fill="#267DDE"/>
<path d="M48.8879 20.0341L48.9291 21.9503L52.7692 21.9096C52.809 21.5171 52.7692 20.7238 52.7692 20.7238C52.7692 20.7238 50.5507 20.7041 50.0983 20.7238V19.5592L51.4502 19.5171L52.802 19.4751V18.896V18.3169H50.8244H48.8469L48.8879 20.0341Z" fill="#267DDE"/>
<path d="M48.8469 17.335C50.1657 17.3489 52.802 17.2772 52.802 17.2772V16.701V16.1247H50.8291H48.8469V17.335Z" fill="#267DDE"/>
<path d="M43.4487 16.6931C43.4487 17.0235 43.4979 17.2959 43.5583 17.2984C43.6186 17.3008 44.2299 17.3173 44.917 17.335C46.3538 17.3718 46.8577 17.6069 47.1864 18.3937C47.355 18.7973 47.3594 18.9838 47.2106 19.4279C46.9654 20.1606 46.449 20.5072 45.4495 20.6103L44.6178 20.6962V19.5066V18.3169H44.0332H43.4487V20.084V21.8958H44.9467C46.7251 21.8366 47.3798 21.4719 48.0523 20.5201C48.4252 19.9921 48.4906 19.7648 48.49 18.9986C48.4891 17.9013 48.1607 17.2676 47.2682 16.6402C46.684 16.2297 46.5429 16.1982 45.0465 16.1471L43.4487 16.0924V16.6931Z" fill="#267DDE"/>
<path d="M31.6108 16.2661C31.6108 16.487 34.0833 21.861 34.0833 21.861C34.0833 21.861 34.3621 21.4972 34.5989 20.9198L35.0296 19.8699L35.4281 20.7376C35.4896 20.8713 35.9686 21.861 35.9686 21.861C35.9686 21.861 38.4797 16.5437 38.4797 16.2709C38.4797 16.1905 38.2143 16.1247 37.8898 16.1247C37.3362 16.1247 37.2835 16.1627 37.0274 16.7458C36.8775 17.0875 36.5896 17.7287 36.3879 18.1708L36.021 18.9746L35.5683 17.9881C35.3191 17.4455 35.0838 17.0016 35.0452 17.0016C35.0066 17.0016 34.7694 17.4455 34.5182 17.9881L34.0615 18.9746L33.696 18.1708C33.4949 17.7287 33.2089 17.0875 33.0604 16.7458C32.8067 16.1623 32.7547 16.1247 32.2006 16.1247C31.8762 16.1247 31.6108 16.1883 31.6108 16.2661Z" fill="#267DDE"/>
<path d="M38.6174 16.7093L38.6216 17.2939H40.6719H42.7179V16.7093V16.1247H40.6719H38.6216L38.6174 16.7093Z" fill="#267DDE"/>
<path d="M38.6216 18.3981V21.9096L42.6448 21.9503V21.1726V20.6368H39.9411V20.0891V19.4985L42.6448 19.5421V18.9661V18.3981C41.8848 18.3819 38.6216 18.3981 38.6216 18.3981Z" fill="#267DDE"/>
<path fill-rule="evenodd" clip-rule="evenodd" d="M17.5091 0.774656L17.2421 1.65621H16.2934H15.3447L15.9877 2.11336C16.3414 2.36473 16.6839 2.61859 16.749 2.67719C16.8139 2.73594 16.7325 3.16678 16.5681 3.63474C16.4036 4.10256 16.2908 4.50709 16.3174 4.53369C16.344 4.56029 16.668 4.35116 17.0375 4.06909C17.4069 3.78688 17.7663 3.55612 17.8359 3.55612C17.9054 3.55612 18.1888 3.72536 18.4658 3.93201C19.4774 4.68773 19.4958 4.68101 19.1576 3.67932L18.8536 2.7795L19.2289 2.5062C19.4353 2.35596 19.7571 2.10532 19.9442 1.94938L20.2844 1.666L19.3827 1.66104L18.4811 1.65621L18.2321 0.888943C18.0953 0.467017 17.9366 0.0702294 17.8796 0.00738634C17.8226 -0.0554567 17.6558 0.289742 17.5091 0.774656ZM8.93628 2.60617C8.88922 2.68655 8.7381 3.09751 8.60043 3.51958L8.34994 4.28685H7.39078H6.43147L7.14671 4.82306C7.54014 5.11799 7.89016 5.38178 7.92465 5.4094C7.95914 5.43703 7.87686 5.80984 7.74197 6.23791C7.60693 6.66597 7.49659 7.06597 7.49659 7.12677C7.49659 7.18742 7.8298 6.99787 8.23697 6.70529L8.97749 6.17331L9.69887 6.69155C10.0955 6.97653 10.4486 7.20978 10.4834 7.20978C10.518 7.20978 10.4121 6.81153 10.2477 6.32472C10.0832 5.8379 9.97246 5.42183 10.0014 5.40005C10.0305 5.37842 10.3745 5.13538 10.7662 4.86018L11.4782 4.35992L10.5211 4.31696L9.56413 4.27399L9.29288 3.367C9.14366 2.86821 8.98319 2.52578 8.93628 2.60617ZM26.4008 3.65126L26.1303 4.50607L25.2053 4.54991L24.2805 4.59376L24.9861 5.12266C25.3743 5.4135 25.7085 5.66253 25.7288 5.67597C25.7491 5.68942 25.634 6.08314 25.4731 6.55095C25.312 7.01892 25.1803 7.42988 25.1803 7.46437C25.1803 7.49872 25.5016 7.29119 25.8941 7.00299C26.2867 6.71478 26.657 6.47905 26.7171 6.47905C26.777 6.47905 27.1463 6.70908 27.5378 6.99027C28.3203 7.5525 28.3497 7.53072 28.0302 6.6252C27.9096 6.28351 27.811 5.92457 27.811 5.82782C27.811 5.73093 28.1233 5.42679 28.5052 5.15204L29.1994 4.65222L28.264 4.57914L27.3285 4.50607L27.119 3.77534C27.0037 3.37343 26.8559 2.98878 26.7904 2.92053C26.725 2.85228 26.5496 3.18111 26.4008 3.65126ZM32.8533 10.1318L32.5875 11.0096L31.6242 11.0143L30.6608 11.0188L31.0288 11.3431C31.2312 11.5214 31.5783 11.7994 31.8003 11.9609L32.2038 12.2545L31.9073 13.1163C31.7442 13.5904 31.6108 14.0038 31.6108 14.0351C31.6108 14.0664 31.9162 13.8589 32.2895 13.5739C32.6627 13.2889 33.0474 13.0556 33.1444 13.0556C33.2413 13.0556 33.5997 13.2578 33.9408 13.5049C34.2819 13.7519 34.5878 13.9271 34.6207 13.8944C34.6535 13.8615 34.5824 13.5113 34.4625 13.1163C34.3427 12.7213 34.2439 12.3499 34.243 12.2912C34.2421 12.2325 34.5743 11.9366 34.9812 11.6335L35.721 11.0827L34.7386 11.0096L33.7564 10.9365L33.4883 10.1459C33.3409 9.71093 33.1975 9.33242 33.1697 9.3045C33.1418 9.27673 32.9995 9.64897 32.8533 10.1318ZM2.50334 10.7933C2.45775 10.8721 2.30868 11.2789 2.17203 11.6974L1.92387 12.4582L0.961937 12.5012L0 12.5441L0.75207 13.0556C1.16566 13.337 1.50414 13.6338 1.50429 13.7154C1.50443 13.7969 1.37875 14.2079 1.22485 14.6288C1.07111 15.0497 0.972313 15.394 1.00534 15.394C1.03837 15.394 1.39438 15.1577 1.79658 14.8687L2.52761 14.3435L3.25863 14.8687C3.66083 15.1577 4.01815 15.394 4.05294 15.394C4.08757 15.394 3.98162 14.9957 3.8172 14.5089C3.65279 14.0221 3.54201 13.606 3.57095 13.5843C3.60003 13.5626 3.94406 13.3196 4.33573 13.0444L5.04776 12.5441L4.08319 12.501L3.11877 12.4579L2.85263 11.554C2.7062 11.0568 2.54909 10.7145 2.50334 10.7933ZM8.19985 13.0419C7.50156 13.1946 6.86041 13.3626 6.77492 13.4153C6.36921 13.6661 6.72859 13.787 7.89849 13.7928L9.17728 13.7992L8.61081 14.0981C8.1316 14.3508 8.07533 14.4274 8.24544 14.5953C8.45224 14.7995 10.3554 15.0902 11.658 15.1166L12.3925 15.1315L11.881 15.2775C10.4308 15.6913 10.2168 15.773 10.1652 15.9327C10.0824 16.1886 11.0133 16.3983 12.7552 16.5161L14.2924 16.6202L13.2328 16.8287C12.5876 16.9557 12.1733 17.1093 12.1733 17.2216C12.1733 17.4541 12.5642 17.5603 13.854 17.678C14.9232 17.7756 15.6606 18.0118 14.9222 18.0202C14.7059 18.0226 14.4894 18.0885 14.4412 18.1665C14.3434 18.3247 14.679 18.4141 15.7355 18.5116C16.1271 18.5478 16.4888 18.6411 16.5393 18.7188C16.5895 18.7967 17.3542 18.8958 18.2384 18.9394C19.1226 18.9828 19.9775 19.0614 20.1383 19.1142C20.299 19.1671 20.1346 19.0493 19.7729 18.8526C19.4112 18.6558 18.5233 18.3174 17.7999 18.1002C17.0765 17.883 16.2948 17.634 16.0628 17.5467L15.641 17.3882L15.9898 17.253C16.1815 17.1786 17.1605 17.1526 18.1653 17.1952L19.9921 17.2729L19.4806 17.008C18.8304 16.6713 17.2064 16.3369 15.1623 16.1189C13.3679 15.9274 12.879 15.7715 13.5472 15.6039C14.1324 15.457 16.4761 15.6281 18.3567 15.9552C19.2256 16.1062 19.8832 16.1773 19.8182 16.1133C19.5604 15.8595 17.3479 15.0698 16.1476 14.8031C15.4487 14.6478 13.9626 14.4392 12.845 14.3395C10.7733 14.1548 10.6116 13.9752 12.4916 13.9471C14.492 13.9172 16.9749 14.4189 19.3516 15.3333C21.0287 15.9786 23.0552 17.0129 23.6458 17.5251L24.0842 17.9054L23.5048 17.586L22.9251 17.2666L22.6644 17.5888C22.5209 17.766 22.4035 17.9615 22.4035 18.0235C22.4035 18.0854 22.7021 18.3305 23.0672 18.5679L23.7308 18.9996L23.1768 19.3736C20.9687 20.864 18.852 21.6675 16.3754 21.9555C15.3169 22.0786 15.3178 22.0789 17.0275 22.0977C20.6501 22.1379 23.7972 21.0912 25.394 19.3153C26.1332 18.493 26.1244 18.4167 25.2262 17.8617L24.7206 17.5491L25.2062 17.0431C25.7841 16.441 26.7309 15.932 28.3225 15.3678L29.4917 14.9535L28.0302 15.0137C26.2342 15.0877 25.3281 15.3583 24.0836 16.1928L23.1224 16.8375L22.1874 16.1838C20.3879 14.9257 17.1782 13.625 14.6408 13.1254C12.7089 12.7449 9.73497 12.7064 8.19985 13.0419ZM86.7918 18.6428C86.1658 20.1113 85.6193 21.3993 85.5772 21.505C85.5194 21.6495 85.6553 21.6856 86.1265 21.6511L86.7526 21.6052L87.3411 20.2503C87.6647 19.5051 87.9769 18.9461 88.0346 19.0081C88.0925 19.07 88.3876 19.6963 88.6907 20.3995L89.2415 21.6783H89.8571H90.4725L89.3026 18.938C88.6591 17.431 88.0869 16.1471 88.0311 16.0853C87.9754 16.0233 87.4177 17.1742 86.7918 18.6428ZM61.4247 16.694V17.2939H62.93C64.479 17.2939 64.786 17.3946 64.786 17.9026C64.786 18.3244 64.3004 18.4631 62.8227 18.4631H61.4247V20.0707V21.6783H62.0093H62.5939L62.5996 20.6918L62.6054 19.7053L63.513 20.6893C64.2652 21.5047 64.5128 21.6825 64.9581 21.7275C65.2536 21.7574 65.5634 21.7398 65.6466 21.6884C65.7331 21.6349 65.4216 21.1606 64.9169 20.5771L64.036 19.5592L64.5568 19.4727C65.9291 19.2445 66.3891 17.6121 65.3592 16.6253C64.925 16.2092 64.8664 16.1965 63.1689 16.1459L61.4247 16.0939V16.694ZM66.2475 16.7093V17.2939H68.2205H70.1935V16.7093V16.1247H68.2205H66.2475V16.7093ZM71.0704 18.9015V21.6783H73.0433H75.0163V21.1668V20.6553H73.6279H72.2395V18.39V16.1247H71.6549H71.0704V18.9015ZM76.5593 16.3362C75.2909 16.8026 74.6536 17.7011 74.6723 18.9964C74.6945 20.5321 75.8296 21.6783 77.3285 21.6783C79.0652 21.6783 80.1314 20.6174 80.1314 18.8895C80.1314 17.0479 78.2606 15.7107 76.5593 16.3362ZM82.6984 16.2893C80.8483 16.7217 80.0004 18.9018 81.0598 20.5027C81.5567 21.2534 82.383 21.6783 83.3467 21.6783C84.5389 21.6783 85.9541 20.7902 85.5459 20.2982C85.2201 19.9058 84.8545 19.9019 84.2905 20.2846C83.9902 20.4885 83.6198 20.6553 83.4677 20.6553C82.9287 20.6553 82.1944 20.2352 81.9679 19.7971C81.0761 18.0726 83.1361 16.4835 84.531 17.82C84.9094 18.1825 84.9372 18.1871 85.3768 17.9599C85.6267 17.8305 85.8312 17.6736 85.8312 17.611C85.8312 17.4545 84.9468 16.6307 84.5889 16.4538C84.1074 16.2158 83.3097 16.1464 82.6984 16.2893ZM89.631 16.7093V17.2939H90.4348H91.2386V19.4861V21.6783H91.8232H92.4078V19.4861V17.2939H93.2116H94.0154V16.7093V16.1247H91.8232H89.631V16.7093ZM96.1345 16.1933C96.0541 16.2219 95.8125 16.2839 95.5977 16.3311C94.6567 16.5379 93.7327 17.8272 93.7263 18.9427C93.7228 19.5568 94.0401 20.4248 94.4228 20.8482C95.2671 21.7818 97.1528 21.9605 98.1481 21.2014C98.7805 20.7191 99.2766 19.7334 99.2766 18.9594C99.2766 18.1496 98.7339 17.1559 98.0344 16.6852C97.5005 16.3258 96.494 16.0652 96.1345 16.1933ZM99.7151 16.7093V17.2939H101.22C102.705 17.2939 103.076 17.4 103.076 17.8243C103.076 18.3144 102.632 18.4631 101.166 18.4631H99.7151V20.0707V21.6783H100.3H100.884L100.889 20.6918L100.893 19.7053L101.275 20.1438C102.564 21.6276 102.67 21.7169 103.13 21.7119L103.209 21.7111C103.627 21.7068 103.856 21.7044 103.902 21.6113C103.958 21.4982 103.745 21.2512 103.274 20.7042L103.2 20.6187L102.287 19.5592L102.752 19.5136C103.336 19.4564 104.027 18.7868 104.154 18.1565C104.285 17.4995 103.867 16.7027 103.223 16.3808C102.836 16.1874 102.346 16.1252 101.213 16.125L99.7151 16.1247V16.7093ZM105.47 16.3267C104.635 16.7049 104.301 17.5982 104.708 18.3631C104.925 18.7707 105.191 18.9816 105.967 19.362C107.196 19.9641 107.266 20.7409 106.081 20.6195C105.755 20.5861 105.377 20.5094 105.242 20.4491C105.057 20.3666 104.936 20.4549 104.757 20.8024C104.531 21.2381 104.533 21.2774 104.783 21.4651C104.93 21.5748 105.328 21.7081 105.67 21.761C107.103 21.9836 108.192 21.3305 108.192 20.2478C108.192 19.4835 107.79 18.9983 106.706 18.4509C105.992 18.0907 105.843 17.9527 105.881 17.6891C105.922 17.4003 106.004 17.37 106.673 17.3969C107.35 17.4243 107.436 17.3914 107.594 17.0444C107.736 16.7328 107.728 16.6219 107.552 16.446C107.251 16.1447 106.027 16.0746 105.47 16.3267ZM76.5392 17.5612C75.2968 18.3416 75.6886 20.3204 77.1394 20.5926C78.1342 20.7792 79.2094 19.7502 79.0517 18.7627C78.8703 17.6274 77.4869 16.9659 76.5392 17.5612ZM95.6689 17.5789C95.0834 17.9359 94.8923 18.2902 94.8923 19.0183C94.8923 20.5712 96.912 21.1929 97.819 19.9193C98.1677 19.4295 98.1975 18.5104 97.8793 18.0563C97.6012 17.6593 96.9253 17.2938 96.4706 17.2945C96.2858 17.2948 95.9249 17.4228 95.6689 17.5789ZM66.2475 20.0707V21.6783H68.2205H70.1935V21.1668V20.6553H68.8051H67.4167V20.0707V19.4861H68.8051H70.1935V18.9746V18.4631H68.2205H66.2475V20.0707ZM2.50583 19.7053C2.45877 19.7857 2.30765 20.1968 2.16998 20.6187L1.91949 21.386L1.01791 21.3908L0.116186 21.3958L0.456416 21.6792C0.643484 21.8351 0.965444 22.0858 1.17195 22.2363L1.54755 22.5097L1.30684 23.2162C0.936654 24.3024 0.993065 24.3781 1.74484 23.8041C2.1181 23.5192 2.46988 23.2859 2.52673 23.2859C2.58343 23.2859 2.8864 23.4703 3.19988 23.6958L3.20377 23.6986C3.69798 24.0541 3.93178 24.2222 3.99761 24.1717C4.05672 24.1263 3.98045 23.9046 3.83571 23.484L3.83445 23.4803C3.67573 23.0193 3.56349 22.5927 3.58483 22.5322C3.60617 22.4719 3.95239 22.1892 4.354 21.9042L5.08429 21.386H4.11096H3.13762L2.86433 20.4726C2.71409 19.9703 2.55274 19.6249 2.50583 19.7053ZM31.9608 22.6591L31.6856 23.5668L30.6702 23.609L29.6548 23.6513L30.4097 24.1628C31.2356 24.7222 31.2781 24.8491 30.9515 25.7748C30.8301 26.119 30.7599 26.4297 30.7954 26.4652C30.8309 26.5007 31.17 26.293 31.549 26.0038C31.9626 25.688 32.3025 25.5253 32.3994 25.5969C32.4881 25.6625 32.8485 25.9377 33.2003 26.2085C33.8117 26.6794 33.8347 26.6854 33.7249 26.3453C33.6618 26.1497 33.5279 25.7197 33.4277 25.3897L33.2451 24.7898L33.9991 24.2205L34.7529 23.6513L33.7926 23.6086L32.8323 23.5661L32.5343 22.6586L32.2361 21.7514L31.9608 22.6591ZM8.05326 26.8756C8.00957 26.951 7.86122 27.358 7.72355 27.7799L7.47306 28.5472L6.57148 28.552L6.50463 28.5524C6.09084 28.5544 5.86591 28.5555 5.84079 28.6269C5.81088 28.712 6.06436 28.8967 6.61974 29.3015L6.69468 29.3561L7.10258 29.6534L6.84624 30.425C6.70521 30.8496 6.62336 31.2303 6.66428 31.2711C6.7052 31.312 7.01767 31.1433 7.35877 30.8963C7.69988 30.6492 8.0347 30.4471 8.10281 30.4471C8.17091 30.4471 8.55396 30.6822 8.95411 30.9697L9.68148 31.4923L9.4893 30.8601C9.38363 30.5124 9.25298 30.0915 9.19905 29.9249C9.11984 29.6803 9.23471 29.5258 9.79679 29.1211L10.4926 28.6203L9.66365 28.5463C9.20767 28.5057 8.79627 28.4341 8.74921 28.3872C8.7023 28.3401 8.54432 27.95 8.39817 27.5201C8.25202 27.0901 8.09681 26.8 8.05326 26.8756ZM25.5416 28.9523L25.2534 29.7894H24.3397C23.8372 29.7894 23.4261 29.8334 23.4263 29.8871C23.4264 29.9408 23.6402 30.1216 23.9015 30.289L24.0321 30.3724C24.5052 30.6744 24.7231 30.8134 24.7804 31.0014C24.8293 31.1618 24.7613 31.3578 24.6353 31.7211L24.5947 31.8386C24.4341 32.3053 24.3217 32.7062 24.345 32.7295C24.368 32.7527 24.726 32.5355 25.1401 32.2469L25.8931 31.7221L26.6327 32.2535C27.0396 32.5458 27.3725 32.7458 27.3725 32.698C27.3725 32.6502 27.2648 32.2409 27.1333 31.7883L26.894 30.9655L27.2997 30.6697L27.3736 30.6158C27.9281 30.2119 28.1814 30.0274 28.1515 29.9423C28.1264 29.8709 27.9011 29.8697 27.4863 29.8677L27.4208 29.8673L26.5192 29.8625L26.2701 29.0952C26.1334 28.6733 25.9781 28.28 25.9255 28.2216C25.8729 28.1631 25.7002 28.4919 25.5416 28.9523ZM16.5359 29.7894C16.4888 29.8698 16.3377 30.2809 16.2001 30.7028L15.9496 31.4701H14.9904H14.0311L14.7463 32.0063C15.1398 32.3013 15.4853 32.5607 15.5143 32.5827C15.5433 32.6048 15.4325 33.0212 15.2681 33.508C15.1037 33.9948 14.9977 34.393 15.0323 34.393C15.0671 34.393 15.4245 34.1567 15.8267 33.8678L16.5577 33.3425L17.2887 33.8678C17.6909 34.1567 18.049 34.393 18.0846 34.393C18.1204 34.393 18.0216 34.0211 17.8651 33.5663C17.7087 33.1116 17.5809 32.7007 17.581 32.6529C17.5811 32.6052 17.9196 32.336 18.3332 32.0547L19.0853 31.5432L18.1245 31.5002L17.1637 31.4573L16.8925 30.5503C16.7433 30.0515 16.5828 29.709 16.5359 29.7894Z" fill="#FFC202"/>
<path d="M28.8865 16.4237C28.039 16.9667 27.8916 18.0898 28.5858 18.7163C28.7625 18.8758 29.2528 19.1964 29.6755 19.4288C30.4704 19.8659 30.7685 20.3047 30.4207 20.5252C30.122 20.7145 29.5402 20.6788 29.0892 20.4435C28.7039 20.2425 28.6773 20.2516 28.468 20.6564C28.1648 21.2428 28.1883 21.3468 28.6805 21.6014C29.3066 21.9253 30.5544 21.8883 31.1446 21.5283C32.4972 20.7038 32.11 19.1739 30.3507 18.3906C29.4668 17.997 29.3359 17.836 29.6469 17.525C29.913 17.2588 30.1306 17.2385 30.6398 17.432C30.9452 17.5482 31.0398 17.514 31.2339 17.2179C31.3607 17.0243 31.4646 16.7754 31.4646 16.6649C31.4646 16.1029 29.6518 15.9334 28.8865 16.4237Z" fill="#267DDE"/>
</svg>
