<svg width="56" height="56" viewBox="0 0 56 56" fill="none" xmlns="http://www.w3.org/2000/svg">
<path d="M0 12C0 5.37258 5.37258 0 12 0H44C50.6274 0 56 5.37258 56 12V44C56 50.6274 50.6274 56 44 56H12C5.37258 56 0 50.6274 0 44V12Z" fill="#174D87"/>
<path fill-rule="evenodd" clip-rule="evenodd" d="M26 20H30C33.771 20 35.657 20 36.828 21.172C38 22.343 38 24.229 38 28C38 31.771 38 33.657 36.828 34.828C35.657 36 33.771 36 30 36H26C22.229 36 20.343 36 19.172 34.828C18 33.657 18 31.771 18 28C18 24.229 18 22.343 19.172 21.172C20.343 20 22.229 20 26 20ZM29.25 25C29.25 24.8011 29.329 24.6103 29.4697 24.4697C29.6103 24.329 29.8011 24.25 30 24.25H35C35.1989 24.25 35.3897 24.329 35.5303 24.4697C35.671 24.6103 35.75 24.8011 35.75 25C35.75 25.1989 35.671 25.3897 35.5303 25.5303C35.3897 25.671 35.1989 25.75 35 25.75H30C29.8011 25.75 29.6103 25.671 29.4697 25.5303C29.329 25.3897 29.25 25.1989 29.25 25ZM30.25 28C30.25 27.8011 30.329 27.6103 30.4697 27.4697C30.6103 27.329 30.8011 27.25 31 27.25H35C35.1989 27.25 35.3897 27.329 35.5303 27.4697C35.671 27.6103 35.75 27.8011 35.75 28C35.75 28.1989 35.671 28.3897 35.5303 28.5303C35.3897 28.671 35.1989 28.75 35 28.75H31C30.8011 28.75 30.6103 28.671 30.4697 28.5303C30.329 28.3897 30.25 28.1989 30.25 28ZM31.25 31C31.25 30.8011 31.329 30.6103 31.4697 30.4697C31.6103 30.329 31.8011 30.25 32 30.25H35C35.1989 30.25 35.3897 30.329 35.5303 30.4697C35.671 30.6103 35.75 30.8011 35.75 31C35.75 31.1989 35.671 31.3897 35.5303 31.5303C35.3897 31.671 35.1989 31.75 35 31.75H32C31.8011 31.75 31.6103 31.671 31.4697 31.5303C31.329 31.3897 31.25 31.1989 31.25 31ZM27 25C27 25.5304 26.7893 26.0391 26.4142 26.4142C26.0391 26.7893 25.5304 27 25 27C24.4696 27 23.9609 26.7893 23.5858 26.4142C23.2107 26.0391 23 25.5304 23 25C23 24.4696 23.2107 23.9609 23.5858 23.5858C23.9609 23.2107 24.4696 23 25 23C25.5304 23 26.0391 23.2107 26.4142 23.5858C26.7893 23.9609 27 24.4696 27 25ZM25 33C29 33 29 32.105 29 31C29 29.895 27.21 29 25 29C22.79 29 21 29.895 21 31C21 32.105 21 33 25 33Z" fill="white"/>
</svg>
