<svg width="30" height="30" viewBox="0 0 30 30" fill="none" xmlns="http://www.w3.org/2000/svg">
<path d="M10.0722 6.10449C7.24333 6.11182 5.72937 6.18141 4.61222 6.9274C4.07874 7.2838 3.62072 7.74183 3.26431 8.27531C2.44141 9.50722 2.44141 11.2202 2.44141 14.651C2.44141 18.0806 2.44141 19.7948 3.26431 21.0267C3.62072 21.5602 4.07874 22.0182 4.61222 22.3746C5.72937 23.1206 7.24333 23.1902 10.0722 23.1975V18.1978C9.28648 17.9941 8.59061 17.5353 8.09385 16.8934C7.59708 16.2514 7.32754 15.4627 7.32754 14.651C7.32754 13.8393 7.59708 13.0506 8.09385 12.4086C8.59061 11.7667 9.28648 11.3079 10.0722 11.1042V6.10449ZM11.9036 23.1975H17.3978V6.10449H11.9036V23.1975ZM19.2292 6.10449V11.1042C20.0149 11.3079 20.7108 11.7667 21.2076 12.4086C21.7043 13.0506 21.9739 13.8393 21.9739 14.651C21.9739 15.4627 21.7043 16.2514 21.2076 16.8934C20.7108 17.5353 20.0149 17.9941 19.2292 18.1978V23.1975C22.0581 23.1902 23.5733 23.1206 24.6892 22.3746C25.2226 22.0181 25.6806 21.5601 26.0371 21.0267C26.86 19.7948 26.86 18.0818 26.86 14.651C26.86 11.2214 26.86 9.50722 26.0371 8.27531C25.6807 7.74187 25.2226 7.28385 24.6892 6.9274C23.572 6.18141 22.0581 6.1106 19.2292 6.10449Z" fill="#919EAB"/>
</svg>
