<svg width="30" height="30" viewBox="0 0 30 30" fill="none" xmlns="http://www.w3.org/2000/svg">
<path d="M14.6505 2.44141C17.5648 2.44141 20.3597 3.59911 22.4204 5.65983C24.4812 7.72055 25.6389 10.5155 25.6389 13.4298C25.6389 17.1829 23.5926 20.2548 21.4364 22.4586C20.359 23.5475 19.1835 24.5349 17.925 25.4083L17.4049 25.7624L17.1607 25.9248L16.7004 26.2178L16.2902 26.4681L15.7823 26.7636C15.4374 26.9599 15.0473 27.0631 14.6505 27.0631C14.2536 27.0631 13.8636 26.9599 13.5187 26.7636L13.0108 26.4681L12.3759 26.0774L12.1415 25.9248L11.6409 25.5915C10.2832 24.6725 9.01841 23.6232 7.86455 22.4586C5.70839 20.2523 3.66211 17.1829 3.66211 13.4298C3.66211 10.5155 4.81981 7.72055 6.88053 5.65983C8.94125 3.59911 11.7362 2.44141 14.6505 2.44141ZM14.6505 9.76699C14.1695 9.76699 13.6932 9.86173 13.2488 10.0458C12.8044 10.2299 12.4006 10.4997 12.0605 10.8398C11.7204 11.1799 11.4506 11.5837 11.2665 12.0281C11.0824 12.4725 10.9877 12.9488 10.9877 13.4298C10.9877 13.9108 11.0824 14.3871 11.2665 14.8315C11.4506 15.2759 11.7204 15.6796 12.0605 16.0198C12.4006 16.3599 12.8044 16.6297 13.2488 16.8138C13.6932 16.9978 14.1695 17.0926 14.6505 17.0926C15.6219 17.0926 16.5536 16.7067 17.2405 16.0198C17.9274 15.3329 18.3133 14.4012 18.3133 13.4298C18.3133 12.4583 17.9274 11.5267 17.2405 10.8398C16.5536 10.1529 15.6219 9.76699 14.6505 9.76699Z" fill="#919EAB"/>
</svg>
