<svg width="260" height="103" viewBox="0 0 260 103" fill="none" xmlns="http://www.w3.org/2000/svg">
<g filter="url(#filter0_d_4536_7618)">
<path d="M245.496 47.699C245.496 68.2554 230.885 84.919 212.86 84.919H46.9416C28.9178 84.919 14.3066 68.2554 14.3066 47.699C14.3066 27.1435 29.2852 10.4795 47.3094 10.4795H212.86C230.885 10.4795 245.496 27.1435 245.496 47.699Z" fill="url(#paint0_linear_4536_7618)"/>
<path d="M127.814 48.3128C124.615 48.3128 122.007 50.9021 122.007 54.4712C122.007 58.0171 124.615 60.6299 127.814 60.6299C131.014 60.6299 133.622 58.0171 133.622 54.4712C133.622 50.9021 131.014 48.3128 127.814 48.3128ZM127.814 58.2037C126.061 58.2037 124.549 56.6641 124.549 54.4712C124.549 52.2551 126.061 50.7388 127.814 50.7388C129.568 50.7388 131.08 52.2551 131.08 54.4712C131.08 56.6641 129.568 58.2037 127.814 58.2037ZM115.145 48.3128C111.945 48.3128 109.337 50.9021 109.337 54.4712C109.337 58.0171 111.945 60.6299 115.145 60.6299C118.345 60.6299 120.953 58.0171 120.953 54.4712C120.953 50.9021 118.345 48.3128 115.145 48.3128ZM115.145 58.2037C113.392 58.2037 111.88 56.6641 111.88 54.4712C111.88 52.2551 113.392 50.7388 115.145 50.7388C116.898 50.7388 118.41 52.2551 118.41 54.4712C118.41 56.6641 116.898 58.2037 115.145 58.2037ZM100.074 50.2024V52.815H105.948C105.772 54.2847 105.312 55.3577 104.611 56.1043C103.756 57.0141 102.419 58.0171 100.074 58.0171C96.458 58.0171 93.631 54.9145 93.631 51.0654C93.631 47.2163 96.458 44.1138 100.074 44.1138C102.025 44.1138 103.449 44.9303 104.501 45.98L106.232 44.1371C104.764 42.6442 102.814 41.501 100.074 41.501C95.1211 41.501 90.957 45.7934 90.957 51.0654C90.957 56.3375 95.1211 60.6299 100.074 60.6299C102.748 60.6299 104.764 59.6967 106.342 57.9471C107.964 56.2208 108.468 53.7949 108.468 51.8353C108.468 51.2288 108.424 50.669 108.336 50.2024H100.074ZM161.709 52.2318C161.227 50.8554 159.758 48.3128 156.756 48.3128C153.775 48.3128 151.299 50.8088 151.299 54.4712C151.299 57.9238 153.753 60.6299 157.041 60.6299C159.692 60.6299 161.227 58.9035 161.862 57.9005L159.89 56.5009C159.232 57.5272 158.334 58.2037 157.041 58.2037C155.748 58.2037 154.827 57.5739 154.235 56.3375L161.972 52.9318L161.709 52.2318ZM153.819 54.2847C153.753 51.9052 155.55 50.6923 156.843 50.6923C157.852 50.6923 158.706 51.2288 158.991 51.9986L153.819 54.2847ZM147.529 60.2565H150.071V42.1543H147.529V60.2565ZM143.365 49.6891H143.278C142.708 48.966 141.612 48.3128 140.231 48.3128C137.339 48.3128 134.687 51.0187 134.687 54.4946C134.687 57.9471 137.339 60.6299 140.231 60.6299C141.612 60.6299 142.708 59.9766 143.278 59.2302H143.365V60.1166C143.365 62.4729 142.182 63.7324 140.275 63.7324C138.719 63.7324 137.755 62.5428 137.36 61.5396L135.147 62.5195C135.782 64.1524 137.47 66.1586 140.275 66.1586C143.256 66.1586 145.776 64.2924 145.776 59.7434V48.686H143.365V49.6891ZM140.451 58.2037C138.697 58.2037 137.229 56.6407 137.229 54.4946C137.229 52.3251 138.697 50.7388 140.451 50.7388C142.182 50.7388 143.541 52.3251 143.541 54.4946C143.541 56.6407 142.182 58.2037 140.451 58.2037ZM173.617 42.1546H167.535V60.2565H170.073V53.3983H173.617C176.431 53.3983 179.196 51.2302 179.196 47.7765C179.196 44.3227 176.431 42.1546 173.617 42.1546ZM173.683 50.879H170.073V44.674H173.683C175.58 44.674 176.658 46.3466 176.658 47.7765C176.658 49.1794 175.58 50.879 173.683 50.879ZM189.37 48.2795C187.532 48.2795 185.628 49.1412 184.841 51.0508L187.094 52.0522C187.575 51.0508 188.472 50.7247 189.413 50.7247C190.726 50.7247 192.061 51.5631 192.083 53.0535V53.2398C191.623 52.9604 190.639 52.5412 189.435 52.5412C187.007 52.5412 184.534 53.9619 184.534 56.6167C184.534 59.0386 186.525 60.599 188.757 60.599C190.463 60.599 191.404 59.7839 191.995 58.8291H192.083V60.2265H194.533V53.2865C194.533 50.0726 192.279 48.2795 189.37 48.2795ZM189.063 58.2003C188.232 58.2003 187.072 57.7579 187.072 56.6632C187.072 55.266 188.516 54.7302 189.763 54.7302C190.879 54.7302 191.404 54.9866 192.083 55.3359C191.886 57.0126 190.529 58.2003 189.063 58.2003ZM203.459 48.6753L200.55 56.5235H200.462L197.443 48.6753H194.708L199.237 59.6442L196.655 65.7457H199.302L206.282 48.6753H203.459ZM180.596 60.2565H183.134V42.1546H180.596V60.2565Z" fill="#666666"/>
<path d="M94.5995 33.627V32.9128H97.2643V33.076C97.2643 33.9195 97.0597 34.6371 96.6508 35.2289C96.082 36.0452 95.2897 36.4533 94.2736 36.4533C93.3278 36.4533 92.5386 36.115 91.906 35.4381C91.2734 34.7613 90.957 33.9264 90.957 32.9332C90.957 31.9401 91.2748 31.1052 91.9108 30.4283C92.5466 29.7515 93.3405 29.4131 94.2928 29.4131C95.0467 29.4131 95.6985 29.6376 96.2482 30.0865C96.5294 30.3178 96.7754 30.5865 96.9863 30.8926L96.4591 31.4027C96.2737 31.1239 96.0724 30.8892 95.8552 30.6987C95.4143 30.3178 94.8967 30.1273 94.3024 30.1273C93.5418 30.1273 92.9156 30.3961 92.4236 30.9334C91.9314 31.4708 91.6855 32.1409 91.6855 32.9434C91.6855 33.5285 91.8197 34.0402 92.0881 34.479C92.3565 34.9177 92.6839 35.2375 93.0706 35.4381C93.4572 35.6388 93.8614 35.739 94.2832 35.739C94.705 35.739 95.0899 35.6354 95.4383 35.4279C95.7865 35.2205 96.0532 34.9432 96.2387 34.5963C96.3983 34.3039 96.4846 33.9808 96.4975 33.627H94.5995Z" fill="#666666"/>
<path d="M101.649 29.5244V30.2386H99.0414V32.2589H101.572V32.9731H99.0414V35.6157H101.649V36.3299H98.332V29.5244H101.649Z" fill="#666666"/>
<path d="M105.833 30.2386H104.28V36.3299H103.57V30.2386H102.018V29.5244H105.833V30.2386Z" fill="#666666"/>
<path d="M108.545 29.5244H109.254V36.3299H108.545V29.5244Z" fill="#666666"/>
<path d="M113.79 30.2386H112.237V36.3299H111.527V30.2386H109.975V29.5244H113.79V30.2386Z" fill="#666666"/>
<path d="M121.845 35.4432C121.203 36.1166 120.415 36.4533 119.482 36.4533C118.549 36.4533 117.762 36.1166 117.12 35.4432C116.477 34.7698 116.156 33.9331 116.156 32.9332C116.156 31.9266 116.479 31.0882 117.124 30.4181C117.77 29.7482 118.556 29.4131 119.482 29.4131C120.409 29.4131 121.195 29.7482 121.84 30.4181C122.486 31.0882 122.809 31.9266 122.809 32.9332C122.809 33.9331 122.487 34.7698 121.845 35.4432ZM121.323 30.9436C120.818 30.3995 120.205 30.1273 119.482 30.1273C118.76 30.1273 118.147 30.3995 117.642 30.9436C117.137 31.4879 116.885 32.1511 116.885 32.9332C116.885 33.7155 117.137 34.3787 117.642 34.9228C118.147 35.4671 118.76 35.739 119.482 35.739C120.205 35.739 120.818 35.4671 121.323 34.9228C121.828 34.3787 122.08 33.7155 122.08 32.9332C122.08 32.1511 121.828 31.4879 121.323 30.9436Z" fill="#666666"/>
<path d="M124.584 36.3285H123.875V29.2373L128.859 34.798V29.523H129.569V36.6346L124.584 31.0739V36.3285Z" fill="#666666"/>
<path d="M46.5017 28.2845C46.0757 28.7641 45.8242 29.5082 45.8242 30.4734V64.9262C45.8242 65.8911 46.0757 66.6355 46.5017 67.115L46.6098 67.2277L64.7411 47.9275V47.6997V47.4721L46.6098 28.1719L46.5017 28.2845Z" fill="#00CDFF"/>
<path d="M70.7816 54.3622L64.7383 47.9263V47.6985V47.4709L70.7834 41.0361L70.92 41.1186L78.0807 45.4495C80.1259 46.6865 80.1259 48.7108 78.0807 49.9478L70.9198 54.2786L70.7816 54.3622Z" fill="#FFCD00"/>
<path d="M70.919 54.2783L64.7375 47.6982L46.498 67.1136C47.1725 67.8732 48.2856 67.9672 49.5394 67.2089L70.919 54.2783Z" fill="#FB3646"/>
<path d="M70.9191 41.1184L49.5394 28.1878C48.2856 27.4295 47.1725 27.5235 46.498 28.2831L64.7375 47.6983L70.9191 41.1184Z" fill="#00FF00"/>
</g>
<defs>
<filter id="filter0_d_4536_7618" x="0.70664" y="0.879492" width="258.389" height="101.639" filterUnits="userSpaceOnUse" color-interpolation-filters="sRGB">
<feFlood flood-opacity="0" result="BackgroundImageFix"/>
<feColorMatrix in="SourceAlpha" type="matrix" values="0 0 0 0 0 0 0 0 0 0 0 0 0 0 0 0 0 0 127 0" result="hardAlpha"/>
<feOffset dy="4"/>
<feGaussianBlur stdDeviation="6.8"/>
<feComposite in2="hardAlpha" operator="out"/>
<feColorMatrix type="matrix" values="0 0 0 0 0 0 0 0 0 0 0 0 0 0 0 0 0 0 0.49 0"/>
<feBlend mode="normal" in2="BackgroundImageFix" result="effect1_dropShadow_4536_7618"/>
<feBlend mode="normal" in="SourceGraphic" in2="effect1_dropShadow_4536_7618" result="shape"/>
</filter>
<linearGradient id="paint0_linear_4536_7618" x1="137.528" y1="7.48757" x2="120.151" y2="88.3527" gradientUnits="userSpaceOnUse">
<stop stop-color="white"/>
<stop offset="0.741176" stop-color="#D7D7D7"/>
<stop offset="1" stop-color="#AFAFAF"/>
</linearGradient>
</defs>
</svg>
