<svg width="34" height="41" viewBox="0 0 34 41" fill="none" xmlns="http://www.w3.org/2000/svg">
<path d="M0.677461 0.620451C0.251445 1.10001 0 1.84418 0 2.8093V37.2621C0 38.227 0.251445 38.9714 0.677461 39.4509L0.785563 39.5636L18.9169 20.2634V20.0356V19.808L0.785563 0.507812L0.677461 0.620451Z" fill="#00CDFF"/>
<path d="M24.9574 26.6981L18.9141 20.2623V20.0345V19.8069L24.9592 13.3721L25.0957 13.4546L32.2565 17.7854C34.3017 19.0224 34.3017 21.0467 32.2565 22.2837L25.0956 26.6145L24.9574 26.6981Z" fill="#FFCD00"/>
<path d="M25.0947 26.6142L18.9132 20.0342L0.673828 39.4495C1.34829 40.2091 2.46133 40.3031 3.71518 39.5448L25.0947 26.6142Z" fill="#FB3646"/>
<path d="M25.0949 13.4543L3.71518 0.523786C2.46133 -0.234547 1.34829 -0.140518 0.673828 0.619073L18.9132 20.0342L25.0949 13.4543Z" fill="#6FAAEA"/>
</svg>
