<svg width="15" height="15" viewBox="0 0 15 15" fill="none" xmlns="http://www.w3.org/2000/svg">
<path fill-rule="evenodd" clip-rule="evenodd" d="M2.36055 13.3597C1.83288 13.2473 1.48104 12.8226 1.42562 12.2859C1.34345 11.4902 1.25 10.0293 1.25 7.5C1.25 4.97066 1.34345 3.50975 1.42562 2.71407C1.48104 2.17743 1.83288 1.75265 2.36055 1.64032C3.19344 1.46301 4.7635 1.25 7.5 1.25C10.2365 1.25 11.8066 1.46301 12.6394 1.64032C13.1671 1.75265 13.519 2.17743 13.5744 2.71407C13.6566 3.50975 13.75 4.97066 13.75 7.5C13.75 10.0293 13.6566 11.4902 13.5744 12.2859C13.519 12.8226 13.1671 13.2473 12.6395 13.3597C11.8066 13.537 10.2365 13.75 7.5 13.75C4.7635 13.75 3.19344 13.537 2.36055 13.3597ZM10.625 5.23292V9.52253C10.621 9.74741 10.529 9.96171 10.3687 10.1193C10.2085 10.2769 9.9929 10.3652 9.76832 10.3652C9.54373 10.3652 9.32812 10.2769 9.16789 10.1193C9.00767 9.96171 8.91565 9.74741 8.91163 9.52253V7.29193L5.8435 10.3721C5.50789 10.709 4.96266 10.7093 4.62664 10.3728C4.29181 10.0375 4.2908 9.49492 4.62555 9.15953C5.70253 8.08054 7.31013 6.47655 7.71227 6.09084H5.48489C5.26034 6.08682 5.04634 5.99466 4.88896 5.83421C4.73158 5.67376 4.6434 5.45783 4.6434 5.23292C4.6434 5.00801 4.73158 4.79209 4.88896 4.63163C5.04634 4.47118 5.26034 4.37902 5.48489 4.375H9.76832C9.99532 4.37568 10.2128 4.46628 10.3733 4.62703C10.5338 4.78777 10.6243 5.0056 10.625 5.23292Z" fill="white"/>
<path d="M10.625 9.52253V5.23292C10.6243 5.0056 10.5338 4.78777 10.3733 4.62703C10.2128 4.46628 9.99532 4.37568 9.76832 4.375H5.48489C5.26034 4.37902 5.04634 4.47118 4.88896 4.63163C4.73158 4.79209 4.6434 5.00801 4.6434 5.23292C4.6434 5.45783 4.73158 5.67376 4.88896 5.83421C5.04634 5.99466 5.26034 6.08682 5.48489 6.09084H7.71227C7.31013 6.47655 5.70253 8.08054 4.62555 9.15953C4.2908 9.49492 4.29181 10.0375 4.62664 10.3728C4.96266 10.7093 5.50789 10.709 5.8435 10.3721L8.91163 7.29193V9.52253C8.91565 9.74741 9.00767 9.96172 9.1679 10.1193C9.32812 10.2769 9.54373 10.3652 9.76832 10.3652C9.99291 10.3652 10.2085 10.2769 10.3687 10.1193C10.529 9.96172 10.621 9.74741 10.625 9.52253Z" fill="#174D87"/>
</svg>
