<svg width="56" height="56" viewBox="0 0 56 56" fill="none" xmlns="http://www.w3.org/2000/svg">
<path d="M0 12C0 5.37258 5.37258 0 12 0H44C50.6274 0 56 5.37258 56 12V44C56 50.6274 50.6274 56 44 56H12C5.37258 56 0 50.6274 0 44V12Z" fill="#174D87"/>
<path opacity="0.6" d="M18 24V28C18 30.828 18 32.243 18.879 33.121C19.355 33.598 19.989 33.816 20.919 33.916C20.994 33.816 21.064 33.737 21.114 33.682C21.23 33.554 21.377 33.409 21.52 33.268L23.013 31.796L23.564 31.238C23.7438 30.1917 24.2875 29.2427 25.0993 28.5585C25.911 27.8744 26.9384 27.4992 28 27.4992C29.0616 27.4992 30.089 27.8744 30.9007 28.5585C31.7125 29.2427 32.2562 30.1917 32.436 31.238L32.987 31.796L34.48 33.268C34.623 33.409 34.77 33.554 34.886 33.682C34.936 33.737 35.006 33.816 35.08 33.916C36.011 33.816 36.645 33.598 37.121 33.121C38 32.243 38 30.828 38 28V24C38 21.172 38 19.757 37.121 18.879C36.243 18 34.828 18 32 18H24C21.172 18 19.757 18 18.879 18.879C18 19.757 18 21.172 18 24Z" fill="white"/>
<path d="M23 24.75C22.801 24.75 22.6103 24.829 22.4696 24.9697C22.329 25.1103 22.25 25.3011 22.25 25.5C22.25 25.6989 22.329 25.8897 22.4696 26.0303C22.6103 26.171 22.801 26.25 23 26.25H33C33.1989 26.25 33.3896 26.171 33.5303 26.0303C33.6709 25.8897 33.75 25.6989 33.75 25.5C33.75 25.3011 33.6709 25.1103 33.5303 24.9697C33.3896 24.829 33.1989 24.75 33 24.75H23ZM24.25 22C24.25 21.8011 24.329 21.6103 24.4696 21.4697C24.6103 21.329 24.801 21.25 25 21.25H31C31.1989 21.25 31.3896 21.329 31.5303 21.4697C31.6709 21.6103 31.75 21.8011 31.75 22C31.75 22.1989 31.6709 22.3897 31.5303 22.5303C31.3896 22.671 31.1989 22.75 31 22.75H25C24.801 22.75 24.6103 22.671 24.4696 22.5303C24.329 22.3897 24.25 22.1989 24.25 22ZM25.001 31.917L25 32C25.0014 32.7921 25.316 33.5514 25.8751 34.1124C26.4342 34.6734 27.1925 34.9905 27.9846 34.9946C28.7766 34.9987 29.5381 34.6893 30.103 34.1341C30.6678 33.5789 30.9902 32.8228 30.9997 32.0308C31.0093 31.2388 30.7052 30.4751 30.1539 29.9065C29.6026 29.3378 28.8488 29.0102 28.0568 28.9952C27.2649 28.9802 26.4992 29.2789 25.9267 29.8263C25.3542 30.3737 25.0215 31.1252 25.001 31.917ZM23.676 33.25L22.596 34.315C22.271 34.635 22.109 34.795 22.053 34.929C21.9894 35.0729 21.9807 35.235 22.0286 35.3849C22.0765 35.5347 22.1777 35.6617 22.313 35.742C22.435 35.813 22.655 35.835 23.096 35.88C23.344 35.905 23.469 35.917 23.573 35.955C23.6871 35.9962 23.7909 36.0618 23.8773 36.147C23.9636 36.2323 24.0304 36.3354 24.073 36.449C24.112 36.552 24.125 36.674 24.15 36.919C24.195 37.354 24.218 37.571 24.29 37.692C24.374 37.8261 24.5033 37.9257 24.6545 37.9727C24.8057 38.0197 24.9687 38.0109 25.114 37.948C25.251 37.892 25.414 37.733 25.737 37.413L26.817 36.343C26.0723 36.1393 25.3925 35.7478 24.8425 35.2061C24.2925 34.6643 23.8909 33.9915 23.676 33.25ZM29.182 36.343L30.262 37.413C30.587 37.733 30.749 37.893 30.886 37.948C31.199 38.074 31.546 37.966 31.71 37.692C31.782 37.572 31.805 37.354 31.85 36.92C31.875 36.674 31.888 36.552 31.927 36.45C31.9695 36.3362 32.0362 36.233 32.1226 36.1476C32.2089 36.0621 32.3128 35.9964 32.427 35.955C32.532 35.917 32.656 35.905 32.904 35.88C33.344 35.835 33.565 35.813 33.687 35.742C33.8222 35.6617 33.9234 35.5347 33.9713 35.3849C34.0192 35.235 34.0106 35.0729 33.947 34.929C33.891 34.794 33.729 34.634 33.405 34.315L32.325 33.249C32.1099 33.9907 31.7079 34.6647 31.1576 35.2065C30.6072 35.7483 29.927 36.1396 29.182 36.343Z" fill="white"/>
</svg>
