<svg width="30" height="30" viewBox="0 0 30 30" fill="none" xmlns="http://www.w3.org/2000/svg">
<path d="M25.6391 8.54613C25.6506 8.46105 25.6506 8.3748 25.6391 8.28973C25.6284 8.21805 25.6079 8.14819 25.578 8.08217C25.5457 8.0225 25.509 7.96536 25.4681 7.91124C25.4217 7.83402 25.3641 7.76408 25.2972 7.70368L25.1507 7.61822C25.0802 7.56567 25.0019 7.52447 24.9187 7.49613H24.6745C24.6001 7.42408 24.5132 7.36617 24.4181 7.3252H18.3135C17.6392 7.3252 17.0925 7.87182 17.0925 8.54613C17.0925 9.22043 17.6392 9.76706 18.3135 9.76706H21.7687L16.885 15.5176L11.6106 12.3798C11.0945 12.0729 10.4318 12.1868 10.0478 12.6485L3.94312 19.974C3.73549 20.2232 3.63554 20.5447 3.66532 20.8677C3.69509 21.1907 3.85215 21.4885 4.10184 21.6955C4.3215 21.8776 4.59797 21.9769 4.88324 21.9764C5.24638 21.9769 5.59094 21.8159 5.82336 21.5368L11.2565 15.0171L16.4699 18.1426C16.9803 18.4454 17.6346 18.3372 18.0204 17.8862L23.1972 11.8426V14.6508C23.1972 15.3251 23.7438 15.8717 24.4181 15.8717C25.0924 15.8717 25.6391 15.3251 25.6391 14.6508V8.54613Z" fill="#174D87"/>
</svg>
