<svg width="56" height="56" viewBox="0 0 56 56" fill="none" xmlns="http://www.w3.org/2000/svg">
<path d="M0 12C0 5.37258 5.37258 0 12 0H44C50.6274 0 56 5.37258 56 12V44C56 50.6274 50.6274 56 44 56H12C5.37258 56 0 50.6274 0 44V12Z" fill="#174D87"/>
<path d="M29.4716 16.5C30.0018 16.5 30.5103 16.7105 30.8853 17.0853L37.1883 23.3835C37.5637 23.7586 37.7746 24.2676 37.7746 24.7983V36.8167C37.7746 38.2986 36.5492 39.5 35.0376 39.5H20.9616C19.45 39.5 18.2246 38.2986 18.2246 36.8167V19.1833C18.2246 17.7014 19.45 16.5 20.9616 16.5H29.4716Z" fill="white"/>
<g filter="url(#filter0_d_4747_16495)">
<path d="M36.354 23.1176C36.667 23.4332 36.4435 23.9697 35.9991 23.9697H33.1742C31.6923 23.9697 30.3554 22.6662 30.3554 21.2213V18.2838C30.3554 17.8374 30.896 17.6148 31.2103 17.9317L36.354 23.1176Z" fill="white" fill-opacity="0.24" shape-rendering="crispEdges"/>
</g>
<path fill-rule="evenodd" clip-rule="evenodd" d="M22.25 26.2695H30.3V27.2758H22.25V26.2695ZM22.25 28.282H30.3V29.2883H22.25V28.282ZM22.25 30.2945H30.3V31.3008H22.25V30.2945ZM22.25 32.307H26.275V33.3133H22.25V32.307Z" fill="#002C5C"/>
<defs>
<filter id="filter0_d_4747_16495" x="28.3555" y="17.7832" width="10.1445" height="10.1865" filterUnits="userSpaceOnUse" color-interpolation-filters="sRGB">
<feFlood flood-opacity="0" result="BackgroundImageFix"/>
<feColorMatrix in="SourceAlpha" type="matrix" values="0 0 0 0 0 0 0 0 0 0 0 0 0 0 0 0 0 0 127 0" result="hardAlpha"/>
<feOffset dy="2"/>
<feGaussianBlur stdDeviation="1"/>
<feComposite in2="hardAlpha" operator="out"/>
<feColorMatrix type="matrix" values="0 0 0 0 0 0 0 0 0 0 0 0 0 0 0 0 0 0 0.04 0"/>
<feBlend mode="normal" in2="BackgroundImageFix" result="effect1_dropShadow_4747_16495"/>
<feBlend mode="normal" in="SourceGraphic" in2="effect1_dropShadow_4747_16495" result="shape"/>
</filter>
</defs>
</svg>
