<svg width="46" height="36" viewBox="0 0 46 36" fill="none" xmlns="http://www.w3.org/2000/svg">
<g opacity="0.8">
<path d="M15.8132 7.5C11.3722 7.509 8.99557 7.5945 7.24182 8.511C6.40434 8.94887 5.68531 9.51158 5.12582 10.167C3.83398 11.6805 3.83398 13.785 3.83398 18C3.83398 22.2135 3.83398 24.3195 5.12582 25.833C5.68531 26.4884 6.40434 27.0511 7.24182 27.489C8.99557 28.4055 11.3722 28.491 15.8132 28.5V22.3575C14.5797 22.1073 13.4873 21.5436 12.7074 20.7549C11.9276 19.9662 11.5044 18.9972 11.5044 18C11.5044 17.0028 11.9276 16.0338 12.7074 15.2451C13.4873 14.4564 14.5797 13.8927 15.8132 13.6425V7.5ZM18.6882 28.5H27.3132V7.5H18.6882V28.5ZM30.1882 7.5V13.6425C31.4216 13.8927 32.514 14.4564 33.2939 15.2451C34.0737 16.0338 34.4969 17.0028 34.4969 18C34.4969 18.9972 34.0737 19.9662 33.2939 20.7549C32.514 21.5436 31.4216 22.1073 30.1882 22.3575V28.5C34.6291 28.491 37.0077 28.4055 38.7595 27.489C39.5969 27.051 40.3159 26.4883 40.8755 25.833C42.1673 24.3195 42.1673 22.215 42.1673 18C42.1673 13.7865 42.1673 11.6805 40.8755 10.167C40.3159 9.51163 39.5969 8.94893 38.7595 8.511C37.0057 7.5945 34.6291 7.5075 30.1882 7.5Z" fill="#174D87"/>
</g>
</svg>
